<mxfile host="app.diagrams.net" modified="2023-12-06T16:05:14.049Z" agent="Mozilla/5.0 (Windows NT 10.0; Win64; x64) AppleWebKit/537.36 (KHTML, like Gecko) Chrome/119.0.0.0 Safari/537.36" etag="KG-BxVMg23-3n2FtS4bS" version="22.1.6" type="github">
  <diagram id="6a731a19-8d31-9384-78a2-239565b7b9f0" name="Page-1">
    <mxGraphModel dx="2669" dy="763" grid="1" gridSize="10" guides="1" tooltips="1" connect="1" arrows="1" fold="1" page="1" pageScale="1" pageWidth="1169" pageHeight="827" background="#003469" math="0" shadow="0">
      <root>
        <mxCell id="0" />
        <mxCell id="1" parent="0" />
        <mxCell id="2019" value="" style="rounded=1;whiteSpace=wrap;html=1;dashed=1;strokeColor=none;strokeWidth=2;fillColor=#E6E6E6;fontFamily=Verdana;fontSize=12;fontColor=#00BEF2" parent="1" vertex="1">
          <mxGeometry x="38.5" y="157" width="165" height="670" as="geometry" />
        </mxCell>
        <mxCell id="2020" value="" style="rounded=1;whiteSpace=wrap;html=1;dashed=1;strokeColor=none;strokeWidth=2;fillColor=#E6E6E6;fontFamily=Verdana;fontSize=12;fontColor=#00BEF2" parent="1" vertex="1">
          <mxGeometry x="220" y="120" width="165" height="670" as="geometry" />
        </mxCell>
        <mxCell id="2021" value="" style="rounded=1;whiteSpace=wrap;html=1;dashed=1;strokeColor=none;strokeWidth=2;fillColor=#E6E6E6;fontFamily=Verdana;fontSize=12;fontColor=#00BEF2" parent="1" vertex="1">
          <mxGeometry x="400" y="120" width="165" height="670" as="geometry" />
        </mxCell>
        <mxCell id="2022" value="" style="rounded=1;whiteSpace=wrap;html=1;dashed=1;strokeColor=none;strokeWidth=2;fillColor=#E6E6E6;fontFamily=Verdana;fontSize=12;fontColor=#00BEF2" parent="1" vertex="1">
          <mxGeometry x="580" y="120" width="165" height="670" as="geometry" />
        </mxCell>
        <mxCell id="2023" value="" style="rounded=1;whiteSpace=wrap;html=1;dashed=1;strokeColor=none;strokeWidth=2;fillColor=#E6E6E6;fontFamily=Verdana;fontSize=12;fontColor=#00BEF2" parent="1" vertex="1">
          <mxGeometry x="760" y="141" width="230" height="670" as="geometry" />
        </mxCell>
        <mxCell id="2025" value="Event" style="whiteSpace=wrap;html=1;dashed=1;strokeColor=none;strokeWidth=2;fillColor=#3399FF;fontFamily=Helvetica;fontSize=18;fontColor=#FFFFFF;fontStyle=1" parent="1" vertex="1">
          <mxGeometry x="40" y="120" width="165" height="60" as="geometry" />
        </mxCell>
        <mxCell id="2026" value="Compute" style="whiteSpace=wrap;html=1;dashed=1;strokeColor=none;strokeWidth=2;fillColor=#3399FF;fontFamily=Helvetica;fontSize=18;fontColor=#FFFFFF;fontStyle=1" parent="1" vertex="1">
          <mxGeometry x="220" y="120" width="165" height="60" as="geometry" />
        </mxCell>
        <mxCell id="2027" value="表现层&lt;br&gt;Presidentation Layer" style="whiteSpace=wrap;html=1;dashed=1;strokeColor=none;strokeWidth=2;fillColor=#3399FF;fontFamily=Helvetica;fontSize=18;fontColor=#FFFFFF;fontStyle=1" parent="1" vertex="1">
          <mxGeometry x="400" y="120" width="165" height="60" as="geometry" />
        </mxCell>
        <mxCell id="2028" value="业务逻辑层&lt;br&gt;Business Layer" style="whiteSpace=wrap;html=1;dashed=1;strokeColor=none;strokeWidth=2;fillColor=#3399FF;fontFamily=Helvetica;fontSize=18;fontColor=#FFFFFF;fontStyle=1" parent="1" vertex="1">
          <mxGeometry x="580" y="120" width="165" height="60" as="geometry" />
        </mxCell>
        <mxCell id="2029" value="数据访问层" style="whiteSpace=wrap;html=1;dashed=1;strokeColor=none;strokeWidth=2;fillColor=#3399FF;fontFamily=Helvetica;fontSize=18;fontColor=#FFFFFF;fontStyle=1" parent="1" vertex="1">
          <mxGeometry x="760" y="120" width="230" height="60" as="geometry" />
        </mxCell>
        <mxCell id="2031" value="" style="shape=mxgraph.arrows.two_way_arrow_horizontal;html=1;verticalLabelPosition=bottom;verticalAlign=top;strokeWidth=2;strokeColor=none;dashed=1;fillColor=#FFFFFF;fontFamily=Verdana;fontSize=12;fontColor=#00BEF2" parent="1" vertex="1">
          <mxGeometry x="180" y="131" width="67" height="39" as="geometry" />
        </mxCell>
        <mxCell id="2032" value="" style="shape=mxgraph.arrows.two_way_arrow_horizontal;html=1;verticalLabelPosition=bottom;verticalAlign=top;strokeWidth=2;strokeColor=none;dashed=1;fillColor=#FFFFFF;fontFamily=Verdana;fontSize=12;fontColor=#00BEF2" parent="1" vertex="1">
          <mxGeometry x="360" y="131" width="67" height="39" as="geometry" />
        </mxCell>
        <mxCell id="2033" value="" style="shape=mxgraph.arrows.two_way_arrow_horizontal;html=1;verticalLabelPosition=bottom;verticalAlign=top;strokeWidth=2;strokeColor=none;dashed=1;fillColor=#FFFFFF;fontFamily=Verdana;fontSize=12;fontColor=#00BEF2" parent="1" vertex="1">
          <mxGeometry x="540" y="131" width="67" height="39" as="geometry" />
        </mxCell>
        <mxCell id="2034" value="" style="shape=mxgraph.arrows.two_way_arrow_horizontal;html=1;verticalLabelPosition=bottom;verticalAlign=top;strokeWidth=2;strokeColor=none;dashed=1;fillColor=#FFFFFF;fontFamily=Verdana;fontSize=12;fontColor=#00BEF2" parent="1" vertex="1">
          <mxGeometry x="720" y="131" width="67" height="39" as="geometry" />
        </mxCell>
        <mxCell id="2037" value="" style="verticalLabelPosition=bottom;html=1;verticalAlign=top;strokeColor=none;fillColor=#3399FF;shape=mxgraph.azure.tablet;dashed=1;fontFamily=Helvetica;fontSize=14;fontColor=#004C99" parent="1" vertex="1">
          <mxGeometry x="66" y="401" width="50" height="37.5" as="geometry" />
        </mxCell>
        <mxCell id="2038" value="" style="verticalLabelPosition=bottom;html=1;verticalAlign=top;strokeColor=none;fillColor=#3399FF;shape=mxgraph.azure.mobile;dashed=1;fontFamily=Helvetica;fontSize=14;fontColor=#004C99" parent="1" vertex="1">
          <mxGeometry x="146" y="395" width="35" height="50" as="geometry" />
        </mxCell>
        <mxCell id="2039" value="其他设备" style="verticalLabelPosition=bottom;html=1;verticalAlign=top;strokeColor=none;fillColor=#3399FF;shape=mxgraph.azure.laptop;dashed=1;fontFamily=Helvetica;fontSize=14;fontColor=#004C99" parent="1" vertex="1">
          <mxGeometry x="96" y="451" width="64" height="39" as="geometry" />
        </mxCell>
        <mxCell id="2040" value="微信小程序" style="verticalLabelPosition=bottom;html=1;verticalAlign=middle;strokeColor=none;fillColor=#3399FF;shape=mxgraph.azure.mobile_services;dashed=1;fontFamily=Helvetica;fontSize=14;fontColor=#004C99" parent="1" vertex="1">
          <mxGeometry x="92" y="261" width="40" height="70" as="geometry" />
        </mxCell>
        <mxCell id="2045" value="Azure Website" style="verticalLabelPosition=bottom;html=1;verticalAlign=top;strokeColor=none;fillColor=#3399FF;shape=mxgraph.azure.azure_website;dashed=1;fontSize=14;fontColor=#004C99" parent="1" vertex="1">
          <mxGeometry x="278" y="258" width="50" height="50" as="geometry" />
        </mxCell>
        <mxCell id="2046" value="Mobile Services" style="verticalLabelPosition=bottom;html=1;verticalAlign=top;strokeColor=none;fillColor=#3399FF;shape=mxgraph.azure.mobile_services;dashed=1;fontSize=14;fontColor=#004C99" parent="1" vertex="1">
          <mxGeometry x="287" y="661" width="32.5" height="50" as="geometry" />
        </mxCell>
        <mxCell id="2047" value="Windows Azure Management Portal" style="text;html=1;strokeColor=none;fillColor=none;align=center;verticalAlign=middle;whiteSpace=wrap;overflow=hidden;dashed=1;fontSize=36;fontColor=#FFFFFF;fontFamily=Helvetica;fontStyle=1" parent="1" vertex="1">
          <mxGeometry x="40" y="50" width="1060" height="50" as="geometry" />
        </mxCell>
        <mxCell id="2049" value="脚本语言" style="rounded=1;whiteSpace=wrap;html=1;dashed=1;strokeColor=none;strokeWidth=2;fillColor=#FFFFFF;fontFamily=Helvetica;fontSize=26;fontColor=#7EA6E0;opacity=75;verticalAlign=top;fontStyle=1" parent="1" vertex="1">
          <mxGeometry x="413.5" y="215" width="146.5" height="355" as="geometry" />
        </mxCell>
        <mxCell id="2055" value="Storage Management" style="rounded=1;whiteSpace=wrap;html=1;dashed=1;strokeColor=none;strokeWidth=2;fillColor=#FFFFFF;fontFamily=Helvetica;fontSize=14;fontColor=#FFB366;opacity=75;verticalAlign=top;fontStyle=1" parent="1" vertex="1">
          <mxGeometry x="594" y="240" width="140" height="460" as="geometry" />
        </mxCell>
        <mxCell id="2059" value="数据库" style="rounded=1;whiteSpace=wrap;html=1;dashed=1;strokeColor=none;strokeWidth=2;fillColor=#FFFFFF;fontFamily=Helvetica;fontSize=21;fontColor=#FFB366;opacity=75;verticalAlign=top;fontStyle=1" parent="1" vertex="1">
          <mxGeometry x="766.5" y="373.25" width="217" height="184" as="geometry" />
        </mxCell>
        <mxCell id="2068" value="Cloud&lt;div&gt;Services&lt;/div&gt;" style="rounded=1;whiteSpace=wrap;html=1;dashed=1;strokeColor=none;strokeWidth=2;fillColor=#FFFFFF;fontFamily=Helvetica;fontSize=14;fontColor=#FFB366;opacity=75;verticalAlign=top;fontStyle=1" parent="1" vertex="1">
          <mxGeometry x="233" y="397" width="140" height="223" as="geometry" />
        </mxCell>
        <mxCell id="2069" value="Cloud" style="verticalLabelPosition=bottom;html=1;verticalAlign=top;strokeColor=none;fillColor=#3399FF;shape=mxgraph.azure.cloud;dashed=1;fontSize=14;fontColor=#004C99" parent="1" vertex="1">
          <mxGeometry x="278" y="449" width="50" height="32.5" as="geometry" />
        </mxCell>
        <mxCell id="2070" value="Virtual Machine" style="verticalLabelPosition=bottom;html=1;verticalAlign=top;strokeColor=none;fillColor=#3399FF;shape=mxgraph.azure.virtual_machine;dashed=1;fontSize=14;fontColor=#004C99" parent="1" vertex="1">
          <mxGeometry x="278" y="536" width="50" height="40" as="geometry" />
        </mxCell>
        <mxCell id="2075" value="" style="arrow;html=1;endArrow=block;endFill=1;strokeColor=none;strokeWidth=4;fontFamily=Helvetica;fontSize=36;fontColor=#FFB366;fillColor=#FFB366;" parent="1" edge="1">
          <mxGeometry width="100" height="100" relative="1" as="geometry">
            <mxPoint x="167" y="283" as="sourcePoint" />
            <mxPoint x="247" y="283" as="targetPoint" />
          </mxGeometry>
        </mxCell>
        <mxCell id="2076" value="" style="arrow;html=1;endArrow=block;endFill=1;strokeColor=none;strokeWidth=4;fontFamily=Helvetica;fontSize=36;fontColor=#FFB366;fillColor=#FFB366;opacity=100" parent="1" edge="1">
          <mxGeometry width="100" height="100" relative="1" as="geometry">
            <mxPoint x="347" y="283" as="sourcePoint" />
            <mxPoint x="427" y="283" as="targetPoint" />
          </mxGeometry>
        </mxCell>
        <mxCell id="2077" value="" style="arrow;html=1;endArrow=block;endFill=1;strokeColor=none;strokeWidth=4;fontFamily=Helvetica;fontSize=36;fontColor=#FFB366;fillColor=#FFB366;" parent="1" edge="1">
          <mxGeometry width="100" height="100" relative="1" as="geometry">
            <mxPoint x="527" y="360" as="sourcePoint" />
            <mxPoint x="607" y="360" as="targetPoint" />
          </mxGeometry>
        </mxCell>
        <mxCell id="2079" value="" style="arrow;html=1;endArrow=block;endFill=1;strokeColor=none;strokeWidth=4;fontFamily=Helvetica;fontSize=36;fontColor=#FFB366;fillColor=#FFB366;" parent="1" edge="1">
          <mxGeometry width="100" height="100" relative="1" as="geometry">
            <mxPoint x="705.93" y="399.57" as="sourcePoint" />
            <mxPoint x="785.93" y="399.57" as="targetPoint" />
          </mxGeometry>
        </mxCell>
        <mxCell id="2082" value="" style="arrow;html=1;endArrow=block;endFill=1;strokeColor=none;strokeWidth=4;fontFamily=Helvetica;fontSize=36;fontColor=#FFB366;fillColor=#FFB366;" parent="1" edge="1">
          <mxGeometry width="100" height="100" relative="1" as="geometry">
            <mxPoint x="787" y="540" as="sourcePoint" />
            <mxPoint x="707" y="540" as="targetPoint" />
          </mxGeometry>
        </mxCell>
        <mxCell id="2084" value="" style="arrow;html=1;endArrow=block;endFill=1;strokeColor=none;strokeWidth=4;fontFamily=Helvetica;fontSize=36;fontColor=#FFB366;fillColor=#FFB366;" parent="1" edge="1">
          <mxGeometry width="100" height="100" relative="1" as="geometry">
            <mxPoint x="347" y="536" as="sourcePoint" />
            <mxPoint x="427" y="536" as="targetPoint" />
          </mxGeometry>
        </mxCell>
        <mxCell id="2085" value="" style="arrow;html=1;endArrow=block;endFill=1;strokeColor=none;strokeWidth=4;fontFamily=Helvetica;fontSize=36;fontColor=#FFB366;fillColor=#FFB366;" parent="1" edge="1">
          <mxGeometry width="100" height="100" relative="1" as="geometry">
            <mxPoint x="174" y="688" as="sourcePoint" />
            <mxPoint x="254" y="688" as="targetPoint" />
          </mxGeometry>
        </mxCell>
        <mxCell id="cUAh2cXA-izQVIxBllL9-2088" value="" style="shape=image;verticalLabelPosition=bottom;labelBackgroundColor=default;verticalAlign=top;aspect=fixed;imageAspect=0;image=data:image/png,iVBORw0KGgoAAAANSUhEUgAAAHcAAABNCAIAAAATumwWAAAACXBIWXMAABJ0AAASdAHeZh94AAAdCklEQVR4Ae2ba4xkxXXHb91Xv7tnZofZB7vLzsKyrAHzCoFg7IC/GOIvlpxEOLKlWJEw8SdHiRwJPsRKlC/Bdkw+W7ETJD/kR0QcIqPIssGyEWgNmOeysMsuyy77nlf39OveW/mdqtt3emZ6Z6bH64liTU3P7bpVp8459a9Tp07Vva201s5m+i0j4P6W+W+yFwQ2Ud4IO9hEeRPljUBgI2Rs2vImyhuBwEbI2LTlTZQ3AoGNkLFpy5sobwQCGyFj05b/36K8/GxkeQmdywrJZPmN6PSGy/DXLfH8+fOnTp0KgmDv3r1c33333bm5uUqlMjY2duLEiSRJ+jmPjo4Wi8WTJ08qpa688sparQasx48fr9fr+Xx+586dVLXbbdru2LGjv+FlzCPxzJkz586d6+eJMt1u9+zZs1khGm7fvj2OY1uYDT+KoR61GeUQGbisL33jG99A8G233Xb06FEA+uxnP7t169bPfOYzTz/99DXXXEO+Pz3yyCPf//73QZMOPPzww/Pz84cOHfrQhz7E7T333PPmm29+7GMf27Zt2xe/+EWGZ336rNoKzo8++ihSMsXQ/zvf+c7XvvY11Ogv/Pa3v/3YY49RmBFD+fjjjwP9qlIGEqzfllutFqaBFUdRRAdmZma4nZ6e7nQ6mPns7KyVx+CTGo0GIwEBxN/85jc/8pGPPPXUU88//zy34+PjaD81NUUts2EIAxmeFDWQQjtU4ur7PlrZQvLVatV1ZaFCc+wASm6ZhRBTMry0hRbrR9nyANYvfelLpVLp5ZdftqrjQL761a/iAbARsPvUpz714Q9/+Prrr8c/2CZoj83ibQCXkt+wAwtdWVsOcRjmF77wBYvp7bffjn+jKV249957C4UCyEJgtcXLMdUopGv4FtvBtclZRPWboozNMr8yluiBiniPI0eOfP3rX2cMcAsPPvggBDhurtg+jvjVV1+lM/STGZC13bDMyMgIng1vgERAt9ihKj6NEs/zmGq2kLn1gx/8gEK0vfvuu0Gc/DrS+lG2NpjL5SYnJ8MwBEQU7dcAAktjNUZRapmAn/jEJ/Bx+/bt279///e+9z3bxFLCAR9NCV3dvXs3zPsZXq48XuKNN96wyyA2gf+94447YE75a6+9xgxDYQrvvPNOtMIxQoxno5C0Ph3WjzLykDoxMYGfZTY99NBDTz755KpKAN+nP/1pPMnHP/7x119/3YKbtXriiSd+9rOfcYuhffe732UksqrLmMEgHnjgAZRHma985StksIAlmlBIQihXqrJkC4dVZv0oIw8tSZgnKxh+gLw1WKuEqfQytTJ6iL/85S/jLg4fPpw1oSF5rMnGT6xF1msP25+V6a0U1uqLFy9CiUTWalaIZ599lkLbFtFgyrpCoQXXUq7MeeXa9a+eWCJ6sD7cf//9hMk//elPWTF27dr10Y9+FEVxuD/+8Y9Zvpl3Bw4cAGI8NUEeKwn0QIxaBw8efOWVV/CS+LtnnnnG9tyOCmN233332fV95Q6svRbIXnzxRVZpMtnY33XXXazGKJbxYSTQkEC+vxB6Cm+55ZasYUa/lsz6UYa7HWorOFN9iR6UQ0lhP3FWYlXMqiAjWc62yt7a/G9+zZTMWFn1uO0XlBVmZDbTT7OkauXbIVG28lXiYA2AnPG2OfDR/epSquSfUi5SKX8my53lYEC14ZyQUGm49OiV49LClJpqIVk5iVaWBQLhJs1FKslysPWmILtIvaGx6mTlkhlE318umGhXeYsaLb4Zzi93283mW7/22k1He0b/fg2MltKvxRJShQgwIOinpyK7zTK2bd+t8twrJsKdez03WM53eQldPnS2eXwqsXr0GFmfK0GOSb1RkBshMfYimT6Qe02FZim9lEmSctqGQXTH7nIpvCSYl6ywbJZc48bshX991D9xFBPrVfVrkAo2Vf3laGwThVl5lsmqMjJK0nyi3OCP/3zrnzyUMljtK3HUf744808/iWLYp4mc1Raei05XFgxFp3M6hVkmAB8m4QIXYcYkNl+mymSlO86BidYPP1e4bCh7QeC7jt9umZlvxazxalBT2dis3EqIrXMhyPLzJb0wqCs3xBp1IefPRTHxbW9EwcyCBVsUIJ/OOCPCKJYSiBezBNY1mrzQp6D3yIwSsBI+NFF+IfAvn8fwglAVquKVRY6RbXJG6koXo85KBIvqhGfsMOkR4YXhyNii2hVvQHSskvdUK8I85Q+gZA0xSQzWLBLcCbiZgzAegw2eIoC0yEq17WVqv2mTtJA7RyfoiHFrZzSvc1jfpdNwHkP5gVOq4S7M0oeJiNZGLdGqL2Pu+kogzZdCL3SVkrOL1ZLWsdOcpQ9sGEIPiQhca1K1vPJd1Y6NP6CVAczqJzwWcnKT3TEe5bLavjvnysjYTQpC+XBrpWe0wobys6f01MUYDEYKyYogO8Oh7OAyRkdjUc6I1B4yjMgMhSxjiuViSmQL43pBqmh/m7QoIzcZM4B0xI0Dl94vrlzxTqlaycl5UT0ZvFpaAx3IQrlxGAQcBJg5YF0w2mU9spmevjpUuslo4DCuqISM60CetnAlO1/ejM67pZpMZYOyXceXky0rMYTYiGnICMlHxgeN5WMmdpq3nLV2jYTYyYdusbJmQSKhlneLveG0PqHnMZbp1StICWRsRb7GXxnFzBW4+z89nbWO4oQbaEYKLnvcHrMB38OhLB65PALUizkhQcQhx37EGIwDwyxEuuBrME0NP7UPIVpgJNmFVc7WqVjl8m6u2E+30GJwTmNYJTwzQkQvK4Ec66LRS4SbWylJM7IqKprwB739wD3rUH/GStWJk0Ti5mGRjFewCWv7g3UazmOghVcbk2UCnoi2yCjVHd+hcyVXK08nzHITrCpXy3zSKk5codaVgsbEzGJC02VJ1Ixnzwfzs8LYLCuIA2IvzAssa05YfylnB1DM0rTUW3LJlUUP3UxFys1seGSVZXTBqViLt1V89DahiPTNJDJCb/qq5mPnNLsFATlh9YPSB+XCErOzDReuw6HMvPBro7Hvu1FH7NUYRxLkcp980L/u91APVRJwBBSpJXFNjENwC+UicWA6NrbS6i/qS9JRq/6tf3Re+wX5hEc/eGX+izUVhqaPto0hXfGCu6jkWPtkIhmNZC27c4/zD/cVQxUbaYBixk1usAQ4k0uCMKhUStIoTZlEStJJ8fPT8//8fLOVeKzMRIuUhn48Vr6sKCPNLZY4itdtmW7IVgJIHLu+N7IFfbFHOma1s8ravEyCSsXLhbbbthfS3ub4UjppNpI4sWGnFpQFAK9QUT4oD5ECzxnJYz1AIHyFjaPiTjSed/JeWpJJNnxFFJ8wVOWiZ5YxbvuB41YSyjNZeTCJL2KyiS0rlfOcMv/G3i3Z8utwtkx7VSgmoRyuG7zEEFwduXNTdAW5It+oJFcDsM2QtR/pjjEj03shF55mGifdtp43z/1k7IQL1V656ni+aWX4rtgZaaIdlvuRgskJbxqIqLl20om1cddCJRVpEoVM1mgiOTK2JKXou1UzbS27SmNcNvoOQ13EpRkVswZLMv0jtqRq8K0YV1jCavFxGoerXY8hbdRNhLmgHEBlH4t7auFoyNAwRGJogkWaZ5C6dd0RlKnA+oCewNwdGWX7RxujzQJ/czv44ip3S9Vzxd8KEzt7ZttOq4NI8RVGArPOfuBsZiAVZsgHMzWlkNabGDHxq0ofZzu6nHOx5ax3A5sPZ8so6OYLfj5Pr42NCExko/qczGoBTDYs8fn3kqkz0klqbS8dp1UuxkEvhkXfPsTMne5OnXDnZ/Gn9IEwyQyboysjYOCtaCn9HTNj42wpyVgiIh1Lx7nQUj8/0d5aIZBAmtHJor2ghsrldK1mn0NIqRBpZ1vZ3VUOXTZi4iX0+Rbxm8sYxpGIxaarOVWRfq1kr8OhDFeXRwmlglmdFxSMZy7GSeS4AUUIbh98Ovqvf8MHcktn+WKo1UgQ5UwP+1Hpy6skDrpty5S1RbroOkFFtteGRx/ppbNQYvlby/iGiN1TRni2nvvbJ7rK7ZqlmGJRzVzJWzJVqeqdk9D0SBzNU5MHb8o/cGDUTCYVaWe2I76McJ7XIyQqUmokn+SDFfckvJKQ6bGWjOjlB0mpJmNrlDOaarcxpSL0C1CQ1d0LC3q+4TnymFJ6YhALc4GbULK4d/ZWZGPBmIMcqEqnTXyReMqvsKG3BroWBa0oNVaUU62u2Bfv0IgKADQDOxk8oREJmehUJfYiboMT3ViOtMUstA51nM8Fss6b3nYTXe+y0Mnm17zlIH0bzcUBBiVTB0aD00p2PrAFO+VcRZ4n2WQZ69Y8cY0Vgym55Zr2jLlLLIpx0y/5gL/pnCmUXpoMV/kYRXGR8s3kNDD7oVsugwklhqYndYVvBhb7Krk5ZnnKWczB2Cc6kGWJlo+4Ywk6exkrmJNWtp3YkIwEK4IqhtbnoqruxHGLyWBOOTpdURNrGC1zUiRCV1BqOFsWjFzPqW0BPQmKegmUddQGSdEAIgzQD1TcTc1GDF/sSuxDej4w2XIxCZmJYoHaCQqqVDVd4PZSDZdyg67GIZknrEyrTFEZK0qEl2hpcjIAaUZqBaxUPHeup0dltNI0H8VzHUwG1ioSvywwjzEOZkx6VAO+h0RZODteZQz8BIUstZq6PS8aSplWI+Pxtbfodt3YB1rKmtMaYRZIraGQlv1dlfsLJ4Pp87JicqIoHVBuoegVy8J2zRALH+1Uc0ExjJ0WUydVEgV2VaIdVdmuZUkYG7j5Rsty2d02apQSzyJzsRzqcQ7ppIGM2Xw3mY9sI9kmoCOr4HjVKge5IRTipWlIlOGjXQ6MuDgxY54m1ek4jYZZ0Jny2tu6q/qXf+9yyEl8xukl01WpYqXghzi1tNu9pr3hiqPp/3hM/+JHOHYzFSVaYdX3coS+l9Q+Y7Iooxx8acEH2IVi3NYfHXD/6g+rygEeXr+Q0ZTe4GXxcQblHGNTKiJOTNMuDwCdHs+LDo3IaTFMuBs2uLIl4UwyHi3Cx0zUBWlLc8OhjOKoF4xsUewUbCxjGLpsKDp13J2YIMLZ3BdKwMSpBmZpAlfHK1X9LJJbqobjRJ2gjc9hsaIPNJPpHmHIQd5AIZ1ce+Ioo2Z2CguG4LiNdlIJs8NXmBk0BTSRQAAZhl6ZZ3fm1gi1AlN3APVsJ2YVZUTk/D7GkHXoeRNlJPWN5yAtF5zOoNplZXAjiimV2Y8ZxmnnWfrixpysAKk4Qcke+AhakoygHrmlEiK6Kr4BZOOYYFl8IiKIRzE3V3F+LwOTNpOqtaWc19v+9TwGWM7WmX7wt3bHFZ8gH2YNGBs9RRAtUMtoyK2xGqMjJTOgbBRMYpeXclg/2M1z0GqoTYtLqDecLVvxqlDWbLKb9YynxDWNpqwiBmdxaZKki5Qw0kzYVH2KxYNIrSiXgd9t6VbDzGLGR6pply/XXJ7OCMpSsvYUeu54yZ4tLDScb3FYmbiyXReGlilXkjhd0QtiE31KJWTiFNjkm35Itt6WyQmpeAwZDZX341KBAmltOA2+DIey8ECDQlHnC6rvbU2PKXT410mxhiyEG6WRKp5PeiluQ3UquSgUVeSfEk95V9+Sq0wYc9FJe96R2SAhVMLJrQxNwLMoE/yZuxW7Acv+xFyo4c9lZqSdR5Oj9fjJw1EttGZLrQEsvcpwh4WoMtoS6xXphNjJ7qLzgfEyBdzSq+n5rjznkt21HBlRWHCTYiAMUzH9SvTlh0NZZjfa5Et+3pysiyCbtH72qfZzPzHhJzTKY5VWEReDNHlXj7i+7P1SlDulWunz/+JUJ6Q9GneaOHcxHIwER+7ISTCvaJtDDGFoxazxSlgwUvVhisI9FfWxmeCvfySPtvH8KGSQlINiy5xVsVLzd02GhkBsyXG6f7Y3AGURiv1qZ4rozdqBHOBD4lbyPo8zZQSMPQvloDQcysKBtS0XeoUiIU1f77Ws1IEvsY2opBwg4wwatCTGwKhcL+J9w16XKYeUg2MKjL3H7Xndbcmt3BtMWWbLoyJx+ET78QIGTbwi/EwCPZX3JNw3ReKc5rq4ENm38UdtkPht2YDaAqJiv5gPxLDEk0hoMtVk6NmdsvATPsFXl/O6IGGq5I2oVJgVmV2HRhk2Kgi7pTItRXialLNnf+6Tn3eCnBGZRAd/Ev/PD93EHHSbosyo0hY8amJC2ISlzDdkj85DEixNDAWj8fzq2GpzMWWw7EtNlHy63+1TsRwkf3d/cMM4tCClztX1w/8dHZsTgMSuQUqI+cIdC3JMq1quh492WPdmOzJkUEfYsjGHkSLvCGTCB0NM9QJJRrtahuEMncq4DD8eyay50oRXrXZfqwsl0ZWa0+/F8iQNCxDn2NdZy55HTSUVFjEUmzj3AGWIRf2EcBbH7XkEM+tKYFQteURlLXNyBg9Q5Ncv28v65m1izGh4oeHWQlvd28mKH4ESArPDdrtlnrn0Emdxra7E2li3vFMDrdIjRd+jl3aQBP9ef3qt7LdZ4xcXrXrHwV9QrYjz7EsJL89FbRtdCM4VnjqkO0+BeDExBXGx4gX4aakQp9e8qJIOKLOs4AHpQ0IMVyr1SRgii8RagfjXbCHTdnJGNz0vgyj6cOrFix55mTTkjSnYGgBBJbEMX3kj+d56rZxmlMyLn5cDAJl1ktMEy7xaIAcaK6b1oIwGXq0qDyR74ImCzWbU4c2uXqrUurmS+Au6IM5aBImFiqPWkecl1S28pW17LH2tT7my6mFEsphwuCznPUVcygLLHuu1fKtazivKQWyaBDnOLVsy9WTf5/A2jdpebOdVl1MJfDOw0R35l0/CQ4DRIK6Z83CrQTNO5s2zWZSNiDWMgWxh/08DSTIANrf8ug6PYRhWRkT2AgLa67bdZlNMwzgSd/t1+nOPxG+/Er31qnr/hJq9IJtSHPHold7uPf7e3y/su9nx+e2RqMRYRLPTvjwBAGFTBg75oov/kV4PnWhTzXtlQZkpn1oSAF9sdB2HwxQZdc7a/ubeyt372r96N3rltDo+zdGQGzpqvKAna871E8GN44U9VTZfaScbHGLAgvGnJwTMYiPJeBngkbKKkutCGXde2cKUIspdGD/ZVtRxaXYOyrns9bfnPnC702lGF87E772pkmZucn9u6ySHTUxXMSiglD7Imuc0ZtmDye5a4yuB2tPy6Eue363ah4GDwFFGBSFipjYhQ51rchJlogxZ3PTVE97keOFPb/KmGslbF9vH57zJXYX9Y8H2Uq4gLwuJmzbS6ZNutCWyEItgMkpkotj4jRcYl9UwXtfqJ4L9YpXfJBKrGRRMN6Ku05oRhyobVplOQCVRHO+s7Lgq2LGzVK76oT1GFONiEZFQAkr+WE3qUywqcsgvL56ZrhWKPJgxrIe+wDL0FWGWcZ4WZxBzL9bdbsIDJVyYCZnlLJkAOJko42HDe8KwXK6ArrQSmbivVBcW5QuyvRa3wLrBS0V8+56uFbCrVQxZGA3dA2mgvVKFeC6DGDkgFZ06jknyLB1VhEp0lKhMcBRUWY15oUPWaPqRFmO7nUb37LFk5jRUGLOEuGapdysjPsFMzxSF4RBJcY4zWggFJJuMFu/PxidmkzaxvQQSIqiHEN+ilignq4hVEQrBlEck51vdYzMdlKWIs0h0hIanXhVQljy9zCSlAvu/1mMs8NMcZeTyTl0sVoTwc8ko6v7o8fpzv3Anr/MP3OTx9vzIFW5QMKZpbNvoYmjNHro+3TpzpHvsleTtl+JTh90LpzBsMQt6ZvoelEY1zxjtTb/Ka8jDhtdLx+SVH9muiYbm8uL76i++NX/9Vv/OPd4Hd/hXjSs23MauIRIKoTQ9wr2w3J2udw5dbL10pvP6uehEA15sYZMoNus0P3fl/Q1On007e7Ucll/XgzJ6e/kir8rCPx1BxpgXIebqztzLydGXu8880RoZ83ZMevtv86+51t12lSqPydt7zXY0fTJ671Dn8K/jY6975094rTnOQAJrD9JFiZO4I2LmPR+JpparvLYSuj1e4bHYopfyW1odmnYPTTtPvNkZzXf3jia37vDuvCq4bnuwreJyaNKO44vt+Mhs9Nr55qtnu+9M63Nt1ebMxQbRxCm4NHnsJ3pVeEdATszJr6LmelDGgN0wp/LFgdNEQuZOxzt32jl7ynnpYLMUOhM7vckDzo6t+uzh5P23vJkpv8tjDNEMVgKtGS25l40fbgyn4zmVMSLRtUE6gApu40UCABasRX20HCPHP9d0zrXcg6f0v7/Q2l6Zv26rd+u+UOdbh6baJ+dVU9ZgX+JOUcquFWgjS2LckfNFHHo5jIt9z6sGKNErWqRBr3DVb44g8k6xYsZwIBBYI+sg9tTxGx31zuH42FvOqOvlVQCAgiwgoH+aMyxw1Thls97IAhqENcKYVTW5FIGM3NZKznPb5tx9KZlINMxjVzW0f2TGeWcm+eX5aOckRzHmIJ9aWTzwORIkW1+GG+FNn04nkqBIubWiyxq7lPWg+/WhzFT2kkqJ8xiD1SDGYGaKueJOOIIh9iEgleVDklwlwKCvWAbrSezEbTnylIN22viuV+bnJMLD8pFGQyRgkU02EXPbChzc1gyqaEK1m0h0Z6ZPujZgJazk6MeKDrhOsxnPzUWNOejFUVQL8covh2cy14uy5wfVcVbbtUAAjQQ+xoYz0PDjHCUl3STuygszgjKvzcgKLwDFEojxPoIJ9KTNWuRknUoz1aLihUym09KKRfcpZzPkmRGArwwAP3Ln4GC+ntTnOq12QuCK05AAjzBOOwR/v12UWf+CfTd2Xn2BB8+q1ZJTfLFqAeUSeKAzMMsZRdLlHYIIfOU1a9pRbiIo3kmh+4kK4+qYe82N7sgEfaK72cAsAmfVG623l9U9e5yDp7pnm6obezhZhAlHWU/ga2aSXE0yilOH6XR4qW4+atRj3kLtdrEAEEcLmoNwjJ610LuqFt+6k/UfnbHrVVI6ZVahWlaNnrrb7UyfaZ880nrj1fbhF/W7b7lTUx57E4XbEoWWpLDg46uJ7GV3im6yhaJnclpPBxI20xM7w737c9fdkrvmhvCKnapU4kDaRK9LOK3lFv14kqjnOvE7F6MXTjSfP9J64WR8dJoS1jQTJAhyC0bBUJeKbqmiG/Wo3Za3oAyyZpQZCZ3wW5WtZeeGbeoPJnO37yntm8hNFF1eeOFn+qsqtG6URcMed165abTPnOwcebPzxkvdt1/SZ99XPF5C0x6F/ZYHH9IxDgLk7IbXy52RMX3lvtwNHyxce3N45b5ghAd95uGzWJZxM+IB15PEXg2YMr0dXgvSZ+eiQ+faz70z/+zb7UNnnDMNzcvepg9GTTPYBg5ayvDjvXgRYCTnXD2mbtut7tqbv2Fnfk81R5hs+iEKii8zNr6yiutEGabo1w8imzxxvHiy+sX2yROtNw62Dv1KHzvhTJ92u82eYbCldeNSxR2/yt13Xf7Abfl914fjW90CJzg89URluwuxy+ISCSt3ZEDtkvYWPK6NTnziQvvFk42fH229fKxzdEpNdwJ2HMY9MSY8/oh3VvWN24M79/q37intn8ht4cU70a7nwkzP7Qj1gzBACVO0fpQHczQ9EzvitfrOfPf8udaxQ603ftV66xU9N+PvvDp/4Obi/puC7Xv9ai32PH7FYfwkdrMWbQfLXEepvE3IWVfiTs/Hb59rPXd8/pdHmm+f7Y4Wgzv25O/aW/jgjty2mp/neYsBX45mDKjIsqqauSKS16L5ZUZZQLZAiwLkRDc8eNSY4bWYsDyheFeoN99kMsgfCm80ylYxo6MxUa3rHX2u3uZnP1sKoS8hKomBRzejHE7EFhilM4ilbA32cZlRFt2WJdFPlON7Qw12mSKrFxiPfPmV3AiUV+/c7zrFgJDrd73L/wf920R5I0DfRHkT5Y1AYCNkbNryRqD8v4x3R4PalImQAAAAAElFTkSuQmCC;imageBorder=none;" vertex="1" parent="1">
          <mxGeometry x="423" y="253" width="119" height="77" as="geometry" />
        </mxCell>
        <mxCell id="cUAh2cXA-izQVIxBllL9-2094" value="数据接口" style="rounded=1;whiteSpace=wrap;html=1;dashed=1;strokeColor=none;strokeWidth=2;fillColor=#FFFFFF;fontFamily=Helvetica;fontSize=23;fontColor=#7EA6E0;opacity=75;verticalAlign=top;fontStyle=1" vertex="1" parent="1">
          <mxGeometry x="413.5" y="576" width="136.5" height="154" as="geometry" />
        </mxCell>
        <mxCell id="cUAh2cXA-izQVIxBllL9-2095" style="edgeStyle=orthogonalEdgeStyle;rounded=0;orthogonalLoop=1;jettySize=auto;html=1;exitX=0.75;exitY=1;exitDx=0;exitDy=0;" edge="1" parent="1">
          <mxGeometry relative="1" as="geometry">
            <mxPoint x="1.5" y="691" as="sourcePoint" />
            <mxPoint x="-40.42857142857133" y="260.9999999999999" as="targetPoint" />
          </mxGeometry>
        </mxCell>
        <mxCell id="cUAh2cXA-izQVIxBllL9-2093" value="" style="shape=image;verticalLabelPosition=bottom;labelBackgroundColor=default;verticalAlign=top;aspect=fixed;imageAspect=0;image=data:image/png,iVBORw0KGgoAAAANSUhEUgAAAGgAAABECAIAAADiEOe7AAAACXBIWXMAABJ0AAASdAHeZh94AAAOeElEQVR4Ae2bZdBVVReACSlJkfroEFRKursGUUClRGoGBgaQHloalIERBn7QID8Ag5KQElBBpVM6JEbp7hL4nu9bsmbPOeeee865976g894fL+vsvXatvXptEj59+jRB/M8/BRL5HxI/4n8UiCdcQD6IJ1xAwr0UcNwLM2zkyJG//fbbm2++WaJEierVq6dNmzaOtoZx+Kf8/vrrryNHjpw+fRpA9rxr166cOXNCqcSJE/N31KhRcXaW58lxHPLx48f379+/cePGrVu3Hjx4wCckSJYsWZo0adKlS5ciRYqECRMKB0GsWbNmffrppxkzZpw+fXrJkiVpP3To0JUrVwAYyN/jx48/efIkUaK40D/Ph3APHz6EcbZt27Zly5aDBw+ePXv25s2bHB5Scn6hXadOnbp37w4Rablz586QIUOmTJly7969P/74Y8yYMa1btz5//vyXX3559+5dEOSXJ08epRqYSZIkeemlmB0wznhbFrp27dqSJUs+/PDDHDlyiHw9O7X1XygF+8io1atXZ8uWTTEY+PLLL9uHo+bWrFnDkJ07d9atW7dfv37cUIwOmCBG89qnhTUWL15crVq1pEmTKgkcART84MGDL126pJPAXPXq1XNEtjS+8sorsGrevHmlferUqTpJdIE4Ihzy2LJly1CCgyJLnjw59EqVKtWrr746duxYEVvzqN99953JdBZ6hfpEWnfv3m3OEy04Zirg2VHY6PLly/v06XP06NFnbX//i/p//fXXUfOFCxfOnj07n0LB1157TVWVDjlw4MDVq1f1EwDOzZQpU8qUKW/fvn3x4sVHjx6ZvQLTuHnz5mLFitm7Im2J1g04ziOmED4ydwl18ufP37dv302bNqHy7MylU505c2bp0qU//PDDt99+W6RIEXOSokWLTps27fDhw+fOnTt27Bh2o0CBAiaCwLVq1QJBJ4wiEENRRbXPnDkTYTHPkyVLlkGDBp06dcrLGYYOHYp0Y1hTp05tmgIc3X379llm2L9/v4W4DRs2xMuxoEXrM4aEwxTgiJlUq1q16i+//OJx6xjEVq1amcMFxo+DBx0nwV4juTqkQYMGjmhRaYwV4fbu3YvDoWcAaN68OcbR+6ZBrl27tjmDwHhw169fDzVP2bJldUjmzJn//PNPVIG6NaFGBWiPiZONth4+fDieqp7ho48+QiVxEm0JC6g/bMFElxFXWBr1E+2p8IULF5DWOnXqzJ8/XxujBgQgdtgh8+bNM/dXs2ZNrF7YUXaEdevW4cRyctxdnZArcbEn3JBiKoDttk8eYUv0RRUavfXWW7rp3LlzE1oF26WIGI5I8eLFdcLGjRtfvnzZcUKMOMGDYipQsWJFR/xIGqMvqt9//z0KTjaNKWzXrl3p0qX1DL4AifAJAzQSYPiqVauwMI7zzJkzByrbu+A4e2OkLZFQ3T6W0BrB1D3heZK9sKP5aiHdVqVKFZ0TACduw4YNlkm4MEkxCSYuNOTGQ+Zz7ty5FuTIP6MsqsprbJetkwWKcIsQyFH6MNkDBw6klxU3btzYu3dv3BQhmfwtU6YMWSYY8Ndff+U6I9yGfXiUCTdx4kTdPWdj6/YlfbV88sknOqEF4GJwjNOnT4/vJkJtImBY7AvhnZA4sbcHaIkC4VDhZDLWrl07YMAAMmK6e/IZATZkGfLjjz++8cYbMifUsRNIlzMB0IjnLFPxiS9J/EfUbO/y2xIp4eCpESNGEOtIxtHcPdUAv7txxCcOhbOYmZsgWeAYk5rrClyqVCmSozohQV7Tpk2liwIF2WbtCgYEJxzx+bBhw4g97ZumhWCLRFCwPVlGoaEmTJhAhPv777/TtWfPnkqVKpmLwl84euRXzLiYizQj4g4dOphDsPWWVfx+BiQcVRLTtzL3BIz2gQdRKH53Ewofj5efRk4tWrQwV+zatSsajUCF4FTaSe1RlzBnIyFosR6km0wEv3AQwq1cudKSKWK73DZ5NBx37AOZbspRek6/e3LHh4KkxZVwpE8oXMgQ9Ea5cuUQUruzAgISoKMAKlSo4L6Qe69vwqF0LRoakhGNUzchfUbi0H29qPSiVXPlyiWXh6tI3UenJTWA5xjqztq3b2/SLpJUnT/CUcezKDXM6FdffRW7mohSxAQoX6DviB9YGvfC+20R9pt6ENVpTusL9ke4Nm3amDcGt5u37Wvh54X8/vvv6xEQlMDb8EE41JYuCUAAGHk4FXjfgQeShddTYIgDz+ODcBZ2U5UceO3nMtCs+FBaC7yHhIzUG3AHWAa/UXCaNGkSNjuIhkb3gS/GhIUAMIJSPaBXdJNpasDBlUENSSPLUcPHjOIV8mMgCIxirDmKJeQU1L0Y7n4KelHTKDsAkJk8LL4jgtfyIAZeqcZEvXr1cpzObMT/7N+/PzsTfczZOHDWrFkbNWpEtgO3a/z48SdPntQkJQiQCfeQlw8ZMmSgZPHNN99gBKA+xVbqVTixTDV69GiKW9yiSTtw6KIgi7U19+AIM7kQTsjtiBO+kcFefqQfdC6q5V6GbN++XYZwscThsIx8ohwxhSdOnMDvo4Xzwyk4+lLhp4LFUxJIJg+2IASGW5i0S5cuhA3ly5fXnVgAer1szJzBC74jjleOo7Cku+QkCnsBiNInTZrEqySizmXLlmFkeOHB8xERq3z58sFiEAgEGIfJISXOKq4P+RUqFYSWPXr0YCAu5DvvvINZpLAA8+JmkwqG9WiUKgSM6WU/oR4UeBmrOF4JR9VSx1hiF20PBRCiU3ziqD/99BPnBw2SqaBxcmhH6I6cgkMyEu7jkkHDox43btzbb78NsTp37gwdsYP4EDAg+RgEFsLhBlN+JcIjby43EWob2s6VCKx70C4fgCMf2hvNGIvqiR3B3qKiitDVqFGDYEiSHAULFqScjPISUeX+4RQKYPxFoqECU1HAV23F8RBzXkoQnMCSshApBsnIc4u8krOv7tIC9YVAENoFzb3LK8cR2Wimn3KMj5tJkAAZJP0NdzCKxOznn3/OYxHRR7TAcRR0IBlE4SfiRrgOKamWkd3Fx6aQilr8+OOPUa9moOprG4JM6ZLsg8BitQJMwpDwxlvmrVy5si6AKVTYC4ChhFngOJBhNEmvq1ghpLyUIL2xYsUKsqEdO3bEr+aTrPd7772HNgSuX78+Y+EysjIwgpdFQ+GgLrSL7LHCfgGvhDOfp6EjduzY4X0lLhbFJB4MRJk8eTI5WM13o9pQoMg177H4i+ngE4ElZUZKGXZDSLXeaPFCvO9BMbkkhTE7CvsG3CXZ7DUZu23btmaXI6w6ThI4iBvmT/ZHnQWGkpw4rIcrhw6FlPQiyz///DOEE0xw0I9SrALmwmStYDoO11Kmlb+RBPledRwrITgLFiyQJUlLkNtxf+kHd6D+YSgMJafFRPBWEoaihYdZ2ERMIepPzQ44pD3wTpGgnj17AvOIBs2Is4pxgOj4kvJmmj1AbqwHhGAJ80Zle6H+4gmaXY5lfxPBBfYRclGQN5+0EAAsXLjQZWo0vbyywb1A02MciT1wI/AbOCpcBkCLKjumwh2hCwuAM8xwkPkRe+CmESeJUZYVacRGMRyjDD+K8+yyGbo+++wzs2aGb4ACdR/i1usoZaEaLcl+YqZQmC9aOy9OLFSA6yPZpI/sCMvgQ5jLwx2EBB6Xh5tgE/7KT2D7WHpNtGfofze64zvOiZf3wQcfmNsGxq+2T+WrxYeoytrE2Kh23QdOPPlozJ/5/EB7TQDviQgUzQW5OSEDeQtjejmCTA1FwjuJT6WRIwEgj3h8lBQIIUTAKYDh6xHbMidZEyQaq6WPwCAZr0lmz56NxjB3gsdD8Ge2BIF9kVmQmzVrZlmJk6B3cVZdZuP/xcgoDXQodKKkLEO4GEUDU3/SCDWxBl988QUakIHYViyMbgblSNJFJiSwdXyOxz4tKwb79CeqsgamUIu7umkAsg6hNkH60C4vhKh2WqPCzTkdYYwsiVzWouQcinA8dbeMxRxRgQu1Q7/tXh1gcxNYSd7/8H84LGkGuMBEM2G8EAIAswWYzJKZdLH0yif8RSYOiTaLREjo119/jWwioY6jLI3INQ48l9StWzdLV+DPIIRjMXaMH0eEREgQdvcoeAgEdzAQWcNxkyFcMk+JcDhcdk/ykvQRZ0bSIaJiEnvh4nFzyLI2mgCT84laxAEkZUBaVH1AEy0wHJBwsh7/v4g9EWMSHnEq088yN0T5UrJJNBLDkyNCSAWB4J84wUS2wJxcrAR8V6hQIe3Fi0ZjCHW00QRYiPzz+vXrFy1a9O677yIlZm/ksI/IwXEx1A1MR1SEO4qq5iR2FsCJ2bp1qwwn2ODZOFJG5EALUQHvkezqT9eCWwUm2KJQr+3ynzL10w7gq5NWML1rO04kLZESTtaGKf7z/599K9hNZE3byYXwZJN4HiUljVTLIKLErYqmACUhehFzIl8yK9qOISJgENuqjSYgfGq2RBeODuFc9kQ4ScgpCKg2nlfCkrxFhVXR8bTzHIZUTyjCQVZ+lvkJZnGJ4CYXc2QZEvXPiHScl93g0GriEMtIpoRR6DjNFOESo/tRWF5mg+iQGPdVXhqrIHsZG12c2HIcImZWzhFbMppILu38Lys9CfoLSbRHESCgPUmRQyCCDZgU+0C8gb9t16Q6W9wAsSWcFLT0JBgQx1iHeJu6rSPhyKFTA2MGaAexnju99CyxFVWe0MNlupgLQEHD3aFDo704VOMgMeQ4QmtNfLISDoRYAHFZ4CCCc1V/2FmMALWFF4o6LjcdQ8JBC/O/PfD/0WbMmIHjKqkR3AXS//qUAinGREC4sHGIy2HisitWhCO7K9ECHASLkerBDkIU+E6PR3mBEidMJzjYX3wXEu6KAODOgOpvywzuyOa0kcO+83GRL/nvmCG2xuHfQSPHU8QTzpEs4RvjCReeRo4Y8YRzJEv4xv8CtAzOVFxgaQEAAAAASUVORK5CYII=;" vertex="1" parent="1">
          <mxGeometry x="432.75" y="619" width="104" height="68" as="geometry" />
        </mxCell>
        <mxCell id="cUAh2cXA-izQVIxBllL9-2099" value="" style="shape=image;verticalLabelPosition=bottom;labelBackgroundColor=default;verticalAlign=top;aspect=fixed;imageAspect=0;image=data:image/png,iVBORw0KGgoAAAANSUhEUgAAAK4AAACnCAYAAACIA2cmAAAAAXNSR0IArs4c6QAAAARnQU1BAACxjwv8YQUAABOMSURBVHhe7Z0JjBxXtYZP7z09+9gxsR3bg0OcQGJsFpE8FDaxiAQURAwoxGyKACECRGxCAoEQTyDx9N5DvBcWsYlFQRFK2MQSQSABIiARRhgnxglgTzwZT7A94xn3TE/vzTm3brWra3pmqrrr3lvVfT6pxlXtdjI99c+pc+5ZbqzRaHwTAHbhwTBR4XES7n148mLrmmEiwf1xecIwkYKFy0QSFi4TSVi4TCRh4TKRhIXLRJLgl8MaJSicOyYvGMYiNbAZj+3yqmvuD1y41dJZ+Oev98srhkFbVpuBp1x1B4xP3ixf6ZrghVurLML0H2+Gysq0fIXpd+q1edj+nDtgaMuL5CtdE3wCIpHMQjJ7CTTqBfkKw2AwlRyTZ8EQfHAWy6Avs1NeMAxKIpaFRGpQXgWDklWFRGYTNBpFecX0O8nUEFrcAXkVDEqEmx5ki8s4SI6jcIfkRTAoEW48GexjgYk28XhOxD5Boki4wTriTHShIJ2C9aBR4+OiI04OOcMQifSECNqDRI1w02N4jMsrpt+JJ4L1bwklwo3FUxBT8M1GkVq9dw+v0CpT0Khp3WmUYOqBGzl7hkyMpuVZb7G4VIVypQ6JDUwfZc22PP2/gkz3EsGnfAUo3Cf+9D4ozP0KrW9Ovth/JPCu7t7ZmyssM7MFyBdqnoS7dd/XYGTbK+UrgaCo5wwdceGQM3jnevRANhKtTdDJB0KNcBEVDjkTElA1pUpDXmxMgOWMTZQJl9O+vU3NY3SWSm+OlsVNpEbkGdNzoGa9rio0YimMc4JdwyWUCTeVC/7xwIQAVEyx7FG1SCK1RSyPBo0y4XLal6F0L+kg6DoFQqGrwGlfBl2KxnDg6V5CocUdEHWYTH+TG9khz4JFoXBRtEmuV+hFlgsVebYxcUXGS52rgH4N1WEy/QsthyYzF8mrYFEmXPJruGmyNymWavJsY1RlUNUJF+G0b+9iMt1LKBUup317E6/pXlpVUpHuJdRaXE779h6UNfOYNlPR3WujVrgRTvuSb+7n8EV9KRrHGphO9xJq6nElS6d/AzOHDqLLEC1fNzWwAxoJf+uPsdr0qsJ5UY97SZt63Mx+NBlqLFGg1OYByo/KC4TMHIr22Im8Jx+Xfo6T135fRQJCUSG5pDB/GKYffFWkhEuFz7kdn4DBHW9FS1qWr65PLJ6G/PHPQfHJ21s+a1vhkiXbjTczc6l8IcQs/AJg9jYUrPxMKNZisQ5TM8sbCpeeQtnRq2HnNd9QIlzFrkLE074kXC9Hr1L9lzzpDFXpXkKpcDntG3Fq5+XJBfxkzVSlewnFwuW0b6SpzsmTzlCV7iXUugqc9o02wuJ21qWsMt1LKBUu+TdUj+l7uYgxT6NkrSq48JfuVVeTrVa4SCrHkxsjS321j0t4T/eqa81XLlxO+0aTajmPX2bxBrbePz/dvSq7YNQLl1cVIkmjjq5CF6iYQu5EuXDJQed6heiRiuM9q7t8XJ91CpH2cbm0MaLUXLUKUile6xRoGTSZHpYXwaPe4ma3yjMmUlTarCj4aEtPprcpy5oR6i0ud/tGk9qCPPEPLX8GveeDG+XC5bRvRHGXNXo3tgLVLqIG4Q6JukwmYlROyxMJKsVPnUIye7E8U4PSskZBxIY8t5Q1VtcupnYSw19OpWWNlMXC/zZUV/udyij+Bb9Xh7uAwp2bL8GZc+UNExCKhjk7UVuPa3PyDwehuPhgJIY8h1a4/7gRhXscLzRNOHclHki4/oY5fwVGtl0vXwkctfW4Npz2DQDqmKCCbhKUjqNLVO91p0W4nPbtDSjd671OQe3QQy3CVbHrChNerLb0zfJKDXqEmxrhtG8P4Cfdq6q710aPcDntG31Qs2FJ9xJ6fFxFQyEYTaBK/KR7RdeLwnQvoUm4PJ28X6B0r4pNp91oES456lyv0D/ocA01WdwhrleIOGFK9xJahCs2r+A29b5AdXevjRbhkqMu6jOZvkBl54ONHuEiokqM29Qji5+2dNXpXkKbcHktt3/QsYqkTbg6HHZGHX7qFFR299roEy53+0YXypp5TJuJtvRe8nHZVYgoPhWSSKtP9xLahMtp3+hC6V6vdQoxKmFVnO4lNAqX076hZ519H7wg0r2alj21CVd1fSbjARJm85iXhxRrHA1L9jkA6cut6w7R1e2i0eIOcb2CalaJso0wh14NMPFOgIs+CrDti6L/rbLze1Cb/C7AU78BMH6T9e8c+Nq7V1O3izbhJlKjkBxQN1q9L/AszPcAPOUz7YW549P4d7cCbH4zwOhLRNMmbaJH90fQxb4PtGqkq9tFm3AJnk7eBfERS5gjBwA2fcAS5q47m8KEp32/VZgTr20vzI0Q8xQ67yROD/aYq0DwptQdQlH65JcsYW7/BMCWd1jCzO1rCjOwSL7N7AZK93pvklSffCC0CpfXcrtAwxKTgGY4dIGu1SPNFpfTvqGnzb4PfqaQ61o90itcTvuGG7K2tO+DcyCIj3QvoXpKow27CkwTse9DfUVeIVIdXnWbzGy1mgY0oFW4nPYNN2LfB+egO8RPd28itUWbL65ZuJz2DTP1Klpbe13YJ9YwZ333V6twOe0bbjLpmDzrDLHptCY0W1xO+4aa4kn80robfFg2nXajVbjkuFO9JhNSGt5F6kZnupfQKlxy3IUDz4ST+rI86QwabqgLvcJFyIHntG9IqZ7FL611Cn66e1O57fJMPdqFy9PJQ4zY5t+B95UwQc+uKhA8nVwxjRJUVmYACoetww9tCmz8pHt1dPfaaBcuOfCc9g2Gagkf7aV/Aiz8AuBfXwA4+SGxyUnq5BsATrwU4NyP5Ds9Umu/KZ/ntnQN3b022oWrq16zl6hVFqGU/wfA4n0AZ78DMPMpFOYtkJx6DcDxGwFmbwOYvx1g+Zf4eJfii18EkPQR5VOdQqNNutdjvjeV3qylu9dGv6ugqV4zkqB4hBVdOYpC/AEK8n8Apm6FxNTNkHniAMCpdwOc+QzA+bsxajpk/RuxS86EPFxuWMJ7lF+r0m7prQU2frp7xVBDXaWXiAHhctqXICsqHvNkRU9/FWD6Y2g9D1pWdOqN+Oj/KLoA30YRP2BZUbdA3SJth5f3SBr1Cvoes/IK8RuYae5u0S5cSvs2ahg89CskplOfFlZUPObJis79L8DSTy4IpylSjwJdi7j3p5sosHGqwYcyRFu6hinkTgxY3CGIJfSt94WS8qPtrWjQ+NhDORVHV8G1k6afdG9qQG/sol24lPaluk1GAyn8hfBKjUTbWqfgB9172WkXLqd9NeJn1/rK6jVcr4g6BY3pXkK/cJFO074U4dK/o02OOW28EWn8QWfkuQdqq9dww5ruJYwIt5O6TRJqdtMNML7v52J389TIy/AXICNEzEJuT6nsPevVaQG5je7VIiPC7aZuM5HbKbbkH73y8zCy94cwesUdkL34PZAdvZqtsQtfrVLuOgXEa7qXVol0pnsJI8LtNu3bwOiXjng8C6mxZ8PQ5K0weMWXhTUe3v3/MLz19eL/0dfWOO5zP93qHH5xVIbJdVwv6V5aJdKZ7iWMCDfQtG8dI2F5xNMTaH2vh8zkJ2H0qrtgbO+PhVuR2/RS6629LmTnXLHkVn8pWKfFlaoIa7qXMCJclWlf2xoTycHLhFuR2/N/MPasnwu3IrP5bfiLc3lviNgpVGLgWmsK4+TdUNv5dX8pWGdbOhLmdC9hSLiaHitohZ1uRXriGhjZ83EYvupOmNh/H7oYn10d5IU5q+cWKg3BowF4u+6E2u6foWC/YE1hHHgG+pweh9wRVGBT63xKo4lhhkaEayrt27TG5FZkL4aBba8TQd7YvnuaQV56+MXy3SHBKdb0ZQBjbxfjQ8WERhqCRwPwcvv8CdWFVWCDFreD7B09sXSnewkjwqWgwXja12GNCQryhne/H8b23wO5rQear2vHKVSaeUtjRbd+HiqT9wJceheef1CMDxUTGgNCFNi4BoH4wcSEIiPCJUeeHPpQ4RKyVmyhEoMvt2bf7v4JwGU/tcaKjr0iUKG6EQU2LsK26bQbI8IVjnw/b0ptC5WsK+25YAt1z68Bdv63Nfs2c6l8s3pEgQ19Lx1Ay5o6Np12Y0a4SN9uSk0CIT+Vpolf8ZDlp9pC1RyZN2lTYOMn3at7DZcwJtx+3pS6MnaTNU3clFDdrFFgE7Yp5E6MCbefR46KR3OYqK0OzPwNc9YfaBsTbiq3S54xxhGDQBz4bdsxMD7WnMVNjXCbelhoU2DjZ9NpXVPInUTKVYhXT0B54c/iPEYtQPQDi3e+tREjETPD5M8RFeFrmHN6XNsUcifGhJvM+mvficVzUFx8EBaPvh7mD70ECo+9D1ZO3QXV5b8L8bKIO0N0G5en5NUFvNYp6JxC7sSgq+A/EiXxxhOWpS7M/QqWpj4CC0dugMW/3gDnH/tPKJ2+F+rlebbG6yCESqOZqCX+xC2QOH49mthD+LPqLN1ratyAQVehuw9si5iOWmkOynN3Qv74e+Hc4etg6egtsDz9Laicf9h6bx8LWQiVBozQBBwaLkJCffwmqyXeOVTEga/uXkNDDM25CgGnfW0h2y5FYfpTwq1YOPxKWHzkNuFW1ItPCvH2tIip0osGjdAknJMfsuY3TB2wJuDQcBEiwJZ4U3vXGROuyrSv0xrXqyW0vPcKt4Kscf7hm9Ayfw4qGOTV68XoW2MUqpgrRoPvaKbY8YPWoBGahGPPElM0u8FUupcwJ1xEVx2n0xqXlx+F4pO3w+KxgzB36DoR5JFbIYI8eq8t4hALWYwRpdFNNFsMhSrmitHgO5opRtNwSKBdCDXs6V7CqHBNbErttMaU0qQgj9wKEeQ9/LoLQV6I3AoxCI8CKholigGVGCNKo5totliZVlW6E2o3mBpiaFS4YUj7OoXsDPIWjhyA5WPvanErmpZYsZCbQqXIHwMqMQiPAqr5rzgCKilUBWKldK/XOgUT6V7CsMUN36bUtpAJCvJstyJ/9E1w/m8fxusfr3YruqQl8seAqilUivxbAio1Qm3BR7rXypqZ2S3UrHANOfZecVtjO8gjtyJ/9C1Nt8J38TkVbq8V+VNARQihSrFqxmu6N5ny2QIfILFGo4FePhhptDp/6mcwe/idTQsXJcg3p6iaeudSuedCLDEkxO0kgc/b3Ze08QGpJaf6BJ5QDSy5HvrFuR5/fzwvz9aHZlfsfuE9qCLt4r3fsKtguO+sC2xrnEjvFUtubtGuS8uI0RCJFtXgpy1drAoZqik2KlzdY3uY4DCZ7iWMCpcce97bN7qY3LPOsHCHRFkcEx781CmY3LPOrKuQzIqghokmuqeQOzEqXHLsTYzvYdaG0r1ekw8m96wzK1zERNqX6R5aCjS5Z51x4fZzt2/U6dtVBSKMad++RCrBa1s6rQaZXM40L9yQp317Frrz9oEUi3WYmS14TveKJklDJY2EceHSh+c2dY04hDo3X4LjJ5fh2Ik8TM0sQ6HovQ6XVoN0TyF3Yly4UU77hh6HRSUonUtW1RbqmXNlYWFpFcHrSoKNyXQvYVy4BGfPAsIWqryr9uOfimacVtUWql+x2phO9xIdfuvBQdPJqWCF6QC6e46j3eM/X7Ae/90ItR2d7FUXJAF+lM6gek7ag4HxiBSpU6jCqjoe/+XKhcd/kGJ10s1edUGg6GN5hxx8TvuuA90h+0Dsxz9ZVVuodlClWqxOTKZ7CQ0fcQPQwU/n9lzY9abfs2h0RxyH8/FPvqr9+O80qOoUui/2PaLOh+zo0+XfmMFoB4QTarleOXcEls/8BlYW/giVguzrwsAtqj7wmh0Qbmzx1VGoGPlThRbVDJAltZdVdQnUCYnVXqocGHsR5Da/AHKb/gNy41cIg2OQ+0Mj3BYaJSicOwal849AfvanUC08ApXy2ciJeO3WHfkn4RDr4lJVWFISq2mhpnKXoVivgcGLULCbngvJTKg2mwmpcF1Qu3Zx8RFYPv0AWuXfQ2npsHg97EJuEW4bq+oUKmFSrDQOKz1ytRBqZuTKMFjV9YiGcFugkUNL01CYe0i4FaX8n1HYs6EUsRDuzkHhp4bt8U8/L9oadmD8+TC45Vr0Wa8Mm1VdjwgK14VtjVfO/QVW5h8SsxDsGxMGIZN4aXlKnBsSqviTrKp8/GdH9+Lj/3mQGdoRZqu6HtEXbgsOa1xcPNIzQZ5fnI//ZO5KGJh4HlrW/eLoZuvUENFjwnVB1ri8PINC/gMUzv4uskHeRjiDqszQPvRRn4m+6gsgM7wnylZ1PXpbuC2gNa4Uz6JLcRh9499B6fxfxeTGMLkVfrDFmsxsRYE+G7JjzxJLVZnhyV6xquvRR8J1QfO6SvkpseTmDvKIsAl5raAqM/w0SGUxqOo9q7oe/StcN+RWFOb+hAHeIbHkZtoa20EVkRzYAbHU5TC27YVRD6qCgoXbDrLG1eIZEeQtnPotNCqPQnVlWvydShHbVpVGO2WG9zaDqogtVemAhesFdwKkgiKmnH231thtVXtkqUoHLFzftFlys60xsZGQnUFVamBPM/+fHtzOVtU7LNxucSdASvkjLdbYHVTZS1UD4/v6MagKChZuoEhrXMo/JpbcyBpTyaad/++TpSodsHCVgkJmi6oEs4Odex4WrTJYuEwkYeEykYSFy0QSFi4TSVi4TCSh5bBv4p+7rEuGiQLw+L8BJTdh11+taFQAAAAASUVORK5CYII=;" vertex="1" parent="1">
          <mxGeometry x="447.89" y="336" width="67.72" height="65" as="geometry" />
        </mxCell>
        <mxCell id="cUAh2cXA-izQVIxBllL9-2101" value="" style="shape=image;verticalLabelPosition=bottom;labelBackgroundColor=default;verticalAlign=top;aspect=fixed;imageAspect=0;image=data:image/png,iVBORw0KGgoAAAANSUhEUgAAALwAAAC8CAYAAADCScSrAAAAAXNSR0IArs4c6QAAAARnQU1BAACxjwv8YQUAADCSSURBVHhe7Z0HfFRV9sfvTHrvjRQSSCAklBAIJYDUpaMIiKLS7Lq2VRd1V3Rd26qofzvqigiKK33pKE1KEgihJiFAQkJ67z1T/uf3MpOdJDPJJJlJZpL75XOZ9+6bycy897vnnXvuuXdEjKM1crkc58tEUcQlJSXmeXl5phKJxLqiosKmqqFBVF1dalZYWmZeUV9sWVxXZVMlq7SpEtdYNViYmEpEEtN6UYNpg6jBvK5eYmohEslNJRYN5iKzOjtzq0pHZl1lLbattpFa1pmJmcxB5NBgbmPTMMDXt9jDw6PSx8dHQu8rLSgoENXV1UnpvSWjRo2SiOjvUD1HC7jg24AELqYHk8zMTFOZTGZZVVXlmpGdPSKzMGPUjarbw+LMk0JSnAuc6TnmVPBcnE/lOW253ZKWdUrRtnyU0VY9E8lrmFxcFlTqkR9a4VccYOF9vZ+T56X+Pv0vjR49OoWeV08Fr5HzBqAZdReiz6IQuCkVy7KyMte4uLhRCWnXJiZUpYTGeN3wKreutadTZkPPtKLnmFHB87sbiFlKBda+inZzHWqsk+8oCk0dYT8kZaCX/41+/fqluLm5FVdWVtbRXaGOGoAML+RwwUPkpsXFxdbklrimpqYOTM5IHn6m7HLEMY9LgfVimQ89xZEKLLghA0HX0dWku4C8wFxmcntyZuitCNvQS6OHjr4YFhZ2m45XUqnt6+Lvc4JX+uEQOW3bZWVl+f5x+cyMnaYnZ952KAikY05UIHBjPje4CzRQKaOS7lvikjC3auzZyCERZyZNmgT3p46KtC+6Pn1K8CRwExK4Y2Fhod/ZK2f/dKAhevoVz4wgOuRBxZJKbzwfsOgQfwmpO3VUwYCohXZ3nJo2btpFcn2KEhMTJSEhIej49gnL3+sFD5eFHqzJJ3c5E3MmYt+tozMP9r8cJhIxf7KD5JMLPntfAX5/BZ2VbBL/jTtzx12NtB+eMC5iXLypqWm+t7d3OQkfjaPX0msFD2teWlpqR375kD2xB2ftdIuaWGFRO4gOuVGxEJ7Ut1F0elm+Xa3V1UWF407fGTH3dEBAQLKjoyPqe2W4s1cKHlb9ypUrwVtidj681ef0XKrypQKR9ykXrgMg6lNM6k5eeCvi+F1DZ+0bPnx4orOzc0VvE32vEUBCQoK5i4uLY1JSUuh/U47M2e0ZPYWqg6nYUOFC1w5yZ+TU0RVdm50a9vuDIxcdjoyMvE71VSR8NAqjx+iFQNbcPCcnx/PChQujd2f+NveYb8J4uZz50TeD0DmdA358EZ3DKzOzw4+sGLLwDxJ+EtVB+EbduTVawZPQxdQRdSChh29I2f7wGe/rk6kTimhLTwwG9VZg1UvpbCdEZg468NTQ5TtI+OnG3LE1SsFnZ2dbFxUVBW4/89/lm3yPzaev4U/VvCOqPyDwfJGIxT6aP2fbI/NWnnB1daV943NzjErwihCj209bflr8qdn2hUU2laNo30E4yNE3cvpXTYpJca22//1Vi+UHJ46bmOjm5lZkTBbfKARPQsfntLp69eqIdbHfrT7lmXgX7btSMVqXzIiBD18mZyzpjszBh1YPuudgaGhoEgkf/r3BR3QMXjDw1VNSUry3/Lb1sQ1+R++m2yqG/w09t6UvgDh+sVgmPv9kwfxty+fdd8jd3R3WHvUGi0ELnsRuExsbO+6vyeueSHcsmkq3VOS5cKtuOCjdnFv9y1x/f9XloT0hISHxPj4+pSR8g4zmGKR4FC6M3cYdm5a8bfHTozKxLJz2kY7LMUyo8yovEctNo14sWrhr/tT5v/v6+uYZYqfW4AQPsScnJ3t/+se/n9vf7/z9ZEE8qZpbdeOghkry3MzwX/8y/fHNAwcOzDQ0v96ghERiN4uKjQ175foHz2U6l86lGkRguNiNC8y8yvItddn3suvDO8ZHRFx2cnJCioJBuDgGISaFC+Pwwy8/zHnH7j8PycTS8bRvLRzkGCMQd5FYKj79l/y7ti29c+kJNzc3xO17XPQ9LniI/fr1615fn/ph1Z5+5x+lKswywiRpjnGj7NAmzUob/uOHK/651dbWtqCnXZweFTzEnpKS4vO3Pz58OdYz+R6q4rH13kcdXenk0bmBm96f+srWgICALBJ9j4Uue0xcJHYTsuyBz51/58UbztmLyBpg9j+ndwK/Pi2o0HPX20Oe+9XHxwcTzasbD3UvPSJ4dE4TEhJCHrny+it5DmXIV7drPMLpxUhJbHkeJXaH3+n37IapU6fGkaWvVRzrNrpd8CR28YEDByb+rebLv5db1d1BVTzpq+8gI8WV2leZH/rae+1X48ePP9fd7k23Cp7Ebr5///4Jf5F+9obEVDqWqrjY+x7UaZUXmUjNjn0gf/z7qXdMjXV0dCzrrs5stwmexG6xe9/uyS+Iv3iLdsOo8JHTvguJW1Qml7PotypWfjN/9vyTTk5OpYpjeqVbJkuQ2E33Hjw4gcT+Ju0ipZeLvW9DhlbuQEZ98uv2G588ceLEePTrFMf0it4Fjy+y79C+yS9KPl1LuyOp8BlJHADvAksWjlsj/uah06dPjyWtYF+v6NWloS9gkpCQMPSBpDUfUAd1ElVhsSMORxX47sW21RaHPnV5aX1ISMglT09PLBOiF/RmbUnsolu3bg14/Mral0jsE6iKi52jDhhd50rrutmv5Xy+Ki0tLVif7o1eBA+xI+Pxz9FvPJ/tUDGPqnheDKctIHqnXMfyOWuvfXFPenq6LzTUeEi36Fzw+KDXrl3z/PvJD5+/7pSziGqw+i6H0x5i8m3ck91z7vzr0feW5Ofnu5OWdK5PfVh4+/WnNy+L9UxZStvujVUcjlZgkv6AWI+b9/9z57pFJHo3XVt6nQqePpz5hl9+nLHP+9zDtOtFRa+dYk6vBPOVBx/wu7hy276dk4uLi3WadqIzwZPYTaJiY0e8Y/fzSro1DaAqnuLL6SwWJKjQT9x33nf+/PnRpC2drfCsE8HjtkOdVK+Xr7//uFwsQ/iRpwxwuoaIWctIS+8UfL/49u3b6MTqRPS6svC2n578/uFs59LZtI011zmcriKEKzOciuZ8eOir+woLC+HPd1mvXf4D9CGsN27fPG+/Z+y95MpgbUfut3N0BbTkfcA37r6t+3dMKS0t7bIx7ZLg0eKiY2PD3rLcvJp2ud/O0QcYhAr82GX70ljqI2JZ9MbqztFpwcNvJ9/K4+XkdavIbx9DVXw1MI6+sJKJ5Xe8W/j9And3dxdoT1HfYbpi4S03HdiyLNOhaDptc7+do28cbjsUzti4b8vUvLy8To/cd0rw1MJM4+PjQ3/0Pb6AdvtR4X47R99Aq4Hr3fYvvXbtWhBpsFP5Nh0WvOJ24vJR7L+XyMTSUNrmrgynuyDXRhqx4ca22fn5+Z2a9N8hwUPsJSUl9pt+2TT7D4/4O8mw88VNOd2JiMmZ22mfpNnRsdHDSI8dDpJ01MLjh337f2G6i8TO+mNfqOVwug9T0v2wd6t/nFNcXOyl8Di0RmvB4w9XVFQ4bIvac1ehTUUEVfH8dk5P4VBgUz712z0bsSRjh3z5jlh48/Pnzw/d7IPfVOIDTJweRUyuTdC37vuXREVFIe1Aa09DK8HTHzTLy8vrtyF5+zLaxS9wdMuEWw5HIyJMKhKN+yp+80La0zos3q7gSexi6qhax16IHXXGO2kyVfGYO8cQgIfhEeVzczZZea2nBWpj4cV1dXVOu28fmcbkIr6yL8eQgMiH/nhtJzJ0tcqbb1Pw6KjSgyjxRuKgY37xEdSm9L6MAofTAaBP59+9LkWSlR+ojS/fnoXHH7Tan3x8IskfYUitfH4OpxtBnvyIX67snlhaWmqnMNIa0ShgxQvN4uPjB+3yiIok7fMfAOYYItCpx36/C9Mvxl8cTNtt+vJtWWzE3W03R22bxUQipBDobJoVh6NjMMNu+N6Lv08vLy+3baxST1uCN0lOTg7Y5nNmJm1jqY02bxUcTg8CbbruHnhuUmpqan/yTjQa57YEb7Hn3IHR9JcG0jZPEOMYOrDyQ3af2z+ysLBQY3BFreDhv9fU1Djtco8aI+fWnWMcCFZ+l2t0eFlZmaOmzqsmC296/OTx0HKLuqG0zVcg4BgLluUWNcPPXbgQRNtqQ5StBE8twyQ3N9dx722EIpkflbbcHg7HkBCTnR94tuISfoNAraFuJebExEQT8oG8fvO5GE67/JewOcaFnDn91/PcyPT0dA91bk0rwbu5uZmfuRgTIWfyANrlSWIcY4Msu3zQqbjoENpu5dY0EzxaBBWbgw1RE8iwe1IVd2c4xoZIJGL+u8uOIVe+VbSmpaBNCwoKPK94pQfTNl/TnWOcyJl9nHvyhFOnTgWgT6qoFWgm+Ly8PPOjl06G0Qu8aZePrHKMFUwDHBRzIw7rJTXrvDYJHu4MYbtTfGoa7bpS4Z1VjjHjtM8yGtGaZm5NMwtPPdt+6Q75cPb5yCrH2DHLcCoKuXz5sqdqtEZV8OKk20kI2PPOKqc3AA0PiI2/MIQem/x4VWFbRJddxciqQcXe6+USlietYqmSEuFRIpcK9XiskNVRfblQsK08xuEocI6tig9LS0tr6o82Cbuqqqpf+LG7Pq4XyxfRbo93WCHgQmk5W+QUyeZ7TWVjXcOYq5ULc7d0UTyDsQZqDLk1BSyl/DY7nXeOrc/cybKkFczbxI6Zi3ifm8PkFjLx1l2Bnz09ZMiQIlQIgicfR3z06NEJj9a99zHtYoS1xyw8LHqWtJqt8VrIng5dzXyt8VNR2nMo6wT78Pr37FhlIgswxcJonL6MnLHoH21ff2Ly5MlXsa90acQJqUnDSeY9ujAqXJbBVr4sedp29n7E3zosdjDbewo7Om0z2zTkb4KrgwbE6buQmL1TstMGw6hjX/gvOTnZJLE2JYSag05/Ma0jwEd/1W+ZINaBtshZ6xrLgxYLDcfB3E5wjzh9FqdL5dcwY69R8AjZODs7W5z1vIElOHpk+TyIff3gF9hrI55V1OgGNJyYqf9hfpbu3NL3XaxOusYj+mgBrQuqz8vLcyqzqXWjzXaXOdA1cGPWeC1mjw9+QFGjW+xMbdjBid+yOrmUR3H6JqZlljUDz549C3fdBIIXZeRkDCd3ptvXi4TVHWcTKPjr+gSRnV1jPmYZ0nJFDaeP0S8zNzMIrjsEL87Mzx5Gj51aYL4rIIT4fyNfU+y1zdWS62xd/Hq2+OSTbNSRxWzikXvZYzGvsm1p+1mFpErxLM1MdI9gz3rdyf35volTdklumI2NjSB4kxvVafBxunVVMQhvpctkNswJS4loJqUyXRD58JNL2RupP7KzFddYQV0xS6/LZ7sKT7OlV95kngdnsC+ubVS8QjMvhT4mxPY5ho+ODZNVam32SLFYLBInJiaaxZnfwAhrt072KJRVs0eCsBixZk7nx7LA36YIIg8wc2MeJjbCgJKpyEQodmILFmBqL9Q/c/MrNuPESsUr1YMwJwayeqoDi/fFheQd6LZBv+5+jxnCo44wSbRND/Dw8JCLPT09xSlOBd2/MgFddLgZmsiozmGTYp5gAZYDtBo1hfCjK26w52LfVNSoZ6HXDFbSA24NLt5nIWtYwfxT7JPQv+ryYrYCnXM0KmUDw3spixLV53S26AOMnewIf499GvEGezNgpc7O0w3nHIxCisWpqanmTCTv1pUJcLKmO4Qp9tSz9uKHzFXcsTkosPSfZe9kF4oTFDWtGeU6jFXL6xV73Ud1iwhRy/3OAkEr84mUOUV25rYs2KY/m+EYzh7ymCMI54vgv7D1wS8JQkdxs3AWntOVog+8TazZdym/CtuPBy9n1rpKERExy+LiYrEoKirK+4GStXFU5d54RP/gojzne4/GuHt+bREL+H2+IOCOAovwgu8S9lbYi4qa5nTlb3cFwXIN+wdbFDBX6Gij74G7UldQnsfHBj/ArEwthRBse0w/tpwdq7zONg15WRic6wqhvy9gFfWVgnupCTQuGQb4O0CWpITFTdrCwp1D2duXP2Nrb/8kNISO0MorELHiH23fGCI6ePy4/1M1b5+nz9RtURqI8v3Ax9nTQ1YpapqDjmrg0QWC395RcPeA9Tky5UdFTXMQ0RlwaLbg/3cn+hI8fN11o//OaqV1QmOubqhhjhb2Qn/lRG4MO5hxjOXVF7KMugJWJ6tn2fVFwvmHxV8dtFS4GyYUJTFLM+3GHGsbatks3ylCqLc9wUPsQVY+zNG0zeUe1RLhNIy9Muwp4Tsti3q+Q3/DTGzKosriW36uinW1T40Ubd+7Peiv4q9jqaLbftmjPcEnltxgoaeWdSr5C4IfazeE7bjja0VNc3qT4AG+L5LtmFzRL5FWsE3DPhSsN/ozn+XsEbJHARZtgQhUBf/N9Z/ZE0kfMGst3cfqhjwWN2WvYH3bEzxG0JOn7dJJqkhHsdk7vuVdvHpt1eox4tqaWkRnek0uLTqkU93GKvZaU1pfTv5z74mS4NaNhoO7IYq1mUeTtbZkZkI/CM9RRrdaYi42E8QOcWhTWAeNEO44ICb/opDJ2h0FdzY1vr9JTVWZuejLn78MW+e4M5oqus3k6dPCw6qkz9inMdMSt/BRp1d06m+3B27hmq2dfix8S3BuNw57jd3jP4+9HPsu25B3sNXdTNXC/3BzK3s66ZNGMWsBzm/cxE1aW/gr5ItjrOW+08+wX4tOki/dPTJTc24bni9YHCkuqK6EORByaoyd1IYCIQmtrbTiqLxYav36mbKLyAc+A4TfGdAoIMbOvt6QsRSZMW8yMsLdqBuKGkT15nXm4lJWYfSChx8LoX0+6C/tJqH9kLWXuYh1mxSK9w+w9GJxM3awvFnHBOF3VLQQ+qlxX7LS+aeEsGJnRd/RcGe9rEHwy9HYtCmMrHa9pOthXVh/XZd2zpm4oK7cVlwlr0RKQY9N+ugKjTHoEqGTijCWJhdJCUZuL1SnabwFdxb0G1b54udCmRAJSarJ7vB7YGzA2cyBmZHv+Vbgk1onuqGxoeBcoFCvVYikKClU1KPgeS2Z4T2JHRy7gR0etU6rgucOsO9aJxQNB24nOrRdLQmTfhEK/l47hkJULaqxFz2+6S8LfnO5sosqOmXlcSJxUoUogUpHAZ0lTZEQXfjwEDpycdaEPMFCnAYpatsGMejrNRlajdx2BNxdYNkRqkNOz8vJ37TyiXGR2/LhIcaJDsPYfyZ+LuxrE+PGOYCP7G+HqQyN1EhqmZNFY8NRl1S3KuoltrM0rlvi8MrPBx9+1ZkX2JHSC8K5R738zjhhTnJXQChWdewBSYXIs9LweeRTc0NWi1Zten7RHy5Xt1JFhwQvCJ2s0KMec9ki31lsgkdE05sjLQAjpftLYtWKvquCh8A2hbzeoQsGISLfRoN/12kgVIxobpyA6cDkx++bxKzoorY86e0JHuB7RY/fyMa5jxQiDVPP/bmdRl/Oosd9w7xtsbJKI3BR0PBwLRDDxh1HlVUxa4RG72Hhwpw6ER9X5VZ1lmJLPZoELxyj79oKaQVjihBqmzSks3DHaey78H8KnWeA6Mzyi2vbDDdPyAx6Ulwnqu2QucMtA1/kbteJLP1Ph9i3494T5pGqtjR0GiGAwZb9Ou2LagKN5bX+KzokdojnmZuf61zsADHw+/zvFLbhMiEprqPujBJ06l5L/D9he4rnODbNNkStG6IE32d8zOPM78j8phJ4aAS7WZ4mHH/n6hfM79CEZsdv1mQKooMlTKq63aXSFZRhVGVxNbFn97rPE7wEX1PnVsdRED7FOdox6mehvwSxwzgim3ZO3Ivtjq3UmcnMxBJTYVUmrXx4nPwMoXO1XhB6W9EQMN9jMqvp4m2rJYivPhPctq+uCuK/7VnKroIGDzbd2tnh/B9VIMSj5fFCwwFvDn1WGGZvC4ge301ZXC2HNlk9IQ5v7t3suLIx4hHv15WiK2DEPh78vODOQVvwxYUOsgLoDncEpIxcm7VfuEvCHVp76SMWevKexmxa+m7t0SCqF4kltRKtxA4Xxt/Cg+XNPNhmlqMqt6oyFFu6AXcLzE9VXZumLTbf3MHGR6/S6mR0Blyo9wIaGx/ch+/yf2vXyrQHRkVfubJO2MZ57kg6Mz4PcmtUUTfIBjHhLq2LAl10FSc6Z/vzTgjWGt854U972edBTwkix3sgVSR5+l4hPwqeBFxC872R7OOM7YLl17LxyU3NzJjYRGoCn6PN7B6ccAjt4JQNWosNAsAEja4KQBVYpZL6snY7O+hDwGdcce1d4YToC4QAHxh4t7C9NXWvTuL7uHhnqpKarPxfgx8TZoZpAyI9d/nNUuxRp441CJ1nVVFiG6s51C8422Ypn3tSKOqOKQs6nrDMaGhdAd/5dNlVod8Gq43ONvp3iLztGPaWkBeF9ATMekPgYemV18mINc6D6AhmzEIqNpeL0KtpU/A44ZgIreqnt8f9MS8otnQLTu4/L3+q2GsOLARGF+GrosOsL8sOIJyVLhMFtw4N8OPUn3QW34ef+knSBmEbHdj2fHmAu1+4tb/QQYQbB1YOXMKuzzkk9LdUXYSc6jyWXpXdZsG1tjSxUHtMWWBYyiTaNcb2gOhxvWC1R/x2l9AJhWsG9wWgIWDWGzrcnb2uFlLTWrGpiTmap0bB45ZycNRHWlt2ZDpivunlyls6te5K0KpxUhASwxxXJD/hZAw4MEOwEBhKxwnRx3urggjViyGPC9t7034TBNXZzmpLcPF3lkQ1CfedoS+0a+XRt3ol8CGh8V0ruynUxRZcEsKT6G896j5d+Iw4L5Ni/swCj92tvhxdwIYfv1d4PSwqZpypfR4VGJY3U77vkKWFwVJ1iVoW3KXwOCf6bqEzikYFfKw8hSgOzkPL17QsGtwsuanYpEb0zE9rxu1zijtBFa3ux7AqbaXaqoKT8/n1jeTHHhVyl9vyq/CluxqHh0UrkjUOsKAjqy4UqC9wXlQzMtuJ/wpAbB3JpWn5Hrj46JypO684F3hvWPPj2VEsqzpXyJNBtmQZuYDKkCkmvf9ccKJNgeJvodMIP7qreUcQHwaH4I4IuTTFUWzDkJdZkAN+Pqx9JLLGCB8iVoi0kWCF/bYgFbD92cfY+szdLY2edGb2yCViO5EDVKP2fonW9Frwk4o9zeDE4nYDnx0XsS2x6wpcYFw4FHyx7hI7wHmBbw1ghS9UJev8/QUrX3quafaW4MuTgNQB6/7ywNWCNd+StpsueeNnQZTmx8KjTdMeYekf8Zytk46mtijd4IL6UrKx1Ihdw4SOqTYFQkcBeFT3nJYFLuAAG191nXW5rdS8Wuwgtca3b2is+x9o6b4m9k1vqAm4L//OPSR0DvXtRhgCsLzT7YcKJxZ8mPSt4HPrA4Q4P0hcL2zj/dRFbHCdcEdFDhECBT/m7W42mQPxbeTEw/0DIfaBaiM3+gKjvnCzSmXVwnlaHveqcEfUpkBbeC2Kz/4pap+jLDiudAFxh1OTHiyzNrGtFZubWEDwssa6/4H4+d3ujfFlTcB3PlOd2iEfztiBdf9g+BphG9YXVlhfdzQYEKTUol8E1EVskHODyeFgU/I2tSOVcEmwxAncohdufCFcr8bQZOuCv5dWW6h4JSH4xeqfq010BncdkF6bL5wnuH7alLy6ImF2lhLc3dQ9DwV/G4vwwiggwvNe+i/qjK/U3cK5RmwtMZEwUetOK6xAmCN+PEE9sCZvp29p0w/tbcAVeNR9ZtPAzjvxXzTNJtIXsNDfXvtJ2G4ZscHnWeQ4RugX4EK/n/Yz05RvDpGjD4BH3BWQmXl8zGdqypfs8NjPhNcE2fuz45Fb1DznM+H1mBSuyT3CeyBqBErqyprWA4Lrp03B7CwrM5WlkqixqHseCka3MUgHtqTsFh7VIHGwdawSm1uZ1zO5vJWFR4w5wE5zVtyFIiy33X1+syEAI/B22EvCNm6f+rTuSmCpPsjZIRgY8GHYK2Tlqxs7l3Ts6zFvC/VvX/xU+HzWJABNKD8rJlWPcA4RVnBQV3AMwP9WdxwFzwl1CdboHsFDmOGA3xRj7Eb5rWaJhboEjR+NHv47XJ/3U37QEB4WSe1EFjViB1MH8t9FahJepMzeXLP1KqguavPk9jZgydDhU4ZnBd9dz9ZdCQa0Ntz8VbigmMACnx2CusdtmvB5ENX6IPtXrV1LCD/08Hw25PC8VgXzfREHB3DZ7PdHqn0eysLopzW+JzJoR7uNELZvlqUK30EfwMX7+9Cnhe3dtw8LrhasfmvkDdbW1tViPz8/NNFWnVZY72pJtWK7NW7WLsJdoDPgdQ6mmsVS3qCbxXd0CazplrwjwkgfpsUhxVbf1l0JRPVV+jYWcGCGkHqM9220/LsFUT5z8a0Od5whCvydlgXh3Wa0OK5a1AtLiZSFOmAFR8b+yFc7x7TL4C43wTqQ+Vg3Zov+4+Z65quhAYpI4yYmJlKxlZUVVNtKubDeaJmaCHfB+qudEzxeF+mlOR8nuwqDDYZ394DIkG2IOaDd3XdRClTVouIzzIp6Quc5/s18504AIYZY9RPmKeCuFFt9s3VD0gE4J1hj1OO3OUJEp6y+QmMjpE6qtH///g3ikJAQUq0csfhmHVe0yKTSZMVea3ArxbruHc2jUHb82lq6IbE8mbmSuAwRnFBtXYfuAI1Ql2LXBXC3Frk1RviSSlNYYidmgGkL/i4aPoTfznmoq6+vl2HShyyo1CufHpsJHi1yW8ExbGpMO3h79BoWTC1ZW9FD7O4Wjuyj0W0vkb0ha49eLEJPIxVpPJXdAq5TewWDWPl1pYpXEJLGnwttq7SM1CAis6z/AmF7f+bRTvvvNYolPrShnQYlDyz0yHdycpKJUlNTLT879O33u/3OLaEDzVYQxtAwwlRtDT7hlvVo1BphRA8hNFiclqAnjc4FetMbI9e1mYTW1eHsngYCaInQ15HXCRNmkGyGtOUnktbp5U6B91e3TAfqscaki4V2C8whNUHIeL19SFi7pi0w0PNpxjbhfSD+eU4RTekMoj1j2nX/8JqW0R7k1EAvSK3A5/D4bWZXNNGwNHfSln899MYTooSEBPOj546/9In7rlfoQLM5XxBqW6t4qYIw3f/d2CCkeQorYQn+vYngmkx3DGNPBD7Q7qgtQFqvpqmBhg4uHNJlMdKpOpEaTPGObJow01ZeTFfRJHjklivn3eoaYWnEY3cLglTNn9EmZwjn7AmfhWy4Y7BwzpB9icWy3Ohz3j9woWAc8XdWXX27Kwai/G/ly19/5L6VX4vkcrnJ9l275qyx+PJbOvC/yZEK8AUOj/qEzfS+Q1HTNhgAQYusow9vQRceJ7gti64KcsAnRT+i1xx2faJ6sTWBCM9D197X2x1Mk+CVxgvrLuqaBhl1TCuSBN9duUgu7vxhR+5udyK68s7z0tAnFDXNgSFdcO7ZrhrAtG/NX1kxY8aMKAhedP78+YCl+a9giAo/jNAKfKjUP+3Ti3VQgoaC+C96+Prq4OgbpbWa5BbBZCrZGtX11aygvoRtzTokrNyrzwgPrhVGQDHnt+XKY8oRWl2jXLMS4P33R3zCYgousLfSNrdrlXG9/Szc2cP9m89RrpJUs105R4XzhVBjlzQhYjG/Ba1fGhgYmCVM7yPRW4zcsWBXmVXNTNpttXoBThRyFQ5N/aEpN0LXIL59pTrNKF0ZVSB6YdmSFiDMixHA7mrMCC12pNOnSyB6RPm0vZYQvTLVWxUdnS+5XbXl3qNTNi53dXWtVIpbMqkoFBlKagagGkfmIMbZx1cLlliX4O/hp2piqpKNXuwA3wEWvGWBpevOOxdciZ4C37Uj1xLnBa9pWXR0vhoicwZnV1ZWCtpWCl4eZhecQKZfo5rxBSB6DCkrc7S7Cv7OuOP3CbOj8AU5uqM7G5eBUxFqE3jN399fGCVtEvzAfgGXmJyp5IW2BqKHv4awIfxDZUJTR8HrkFqMvwNL1BssO8dgyQzxH3yWHqUikUguCB4bfn5+6WZyMdyaVpmTqsByIMKAzpDH4WnCbBpEV9pzdXAcPW48H68Tlligv8MtEUePyM1l4uSIiIgU0rig66Y1aYqLix1e3vrP14/4Xn2KdrU2ucpOGjplI6382CiHEBZk25/ZmFoLPe2blbdZXFkiu16bLeQtt7XmJIejY+pnZ4d/9NUjH7xFghd6xU2Cv3nzpsXxmJNL3nPeglWA8ANnWi3QpAp624jFqo6adfcEaw5HhaK3qlY/98A9D2wlwQuibApBBgYG1o8ZNuoSbSJVsVNJHxA1rLdqTxv7XOycnkGeOzhg8DXaaHLTmwQPP37EiBHZviWuN2hXbXiSwzEiJP5l7ld9fHwylf47aBK8grp5NWNi6BETEHs2tY/D6Rpli2R3HKitrW02672V4COCRx6nR6y33Ga0hsMxYGCsMyaGjj/r7+/fbIH8ZoIn0y+dOnFqSnhBwAXa1Ty/j8MxbBrCcv2vu7q6Fqm6M6ClhQd1i2ymHqNGkk3b3MpzjJHi2abjsXxkq2QidYKXTB4/OVrEREnYbqzicIwGuDPJ48IiTlCHtdXPDbYSPKI13t7eRfNzIy4xEUMGEu+8coyJmrkZo2J9fX1zabuVh6LOwrPExERppH3YJbmMqX0Rh2PAZM0LmHLEycmpEsZbUdeEWsGHhIRIwkeEX7Wvt0TQnsfkOcaCzK7W6urkiZMvIwCjqGuGWsGjZ+vm5la8OD/yJO0iJVLtizkcA6NqcdH4U9bW1hp/1Vmt4IGjo2PlgjFzTtI9ASOv6lfM5HAMBxjlpPmjZmMcSeNUL42CJysv6d+/f+rCWxFnaBcr8XNfnmPIlN6bfcd2b29vpAJr9Eg0Ch44OzvXLhoxdx9txlPhVp5jqMiYiMUtnbBgq4eHR5sTedsUPNEwdOjQ67Nvj1T68tzKcwwQUfnCnLFHRw4Z2SxRTB1tCp5eLHdycip/cMTdB2kXE1lbBfI5nJ5Hnrxg0AysC9muQW7Pwguij4yMvDU7Z+QJum1wX55jaNRNvR1yaqDfwFvQqqJOI+0KXkH1A8EL/6BHHrHhGBIQeMYiv1kH/fz8tFqXRCvBU8uRTJgwIWl8RhBuG8VUuJXn9DxyVj0ha/DhMWPGIKiiVd6XthYeVD09bMVuEWPn6Y16ZkkrDud/yOUidv2hwCU/ubm5IQ1Yq5wvrQVPf7Bh/PjxNx8rnLuDfHn8NAhPOeD0JMWrMqbvDgsLS4I2FXXt0hELD9HXPjRn+RHXSrujJHpMndKqVXE4OkbiWmkftWzq4u1IElPUaUWHBA/o9pH3mu3qXeTFI7GMhyk53Q2MbNbT0sXbHBwcMsgIdyjPq8OCh68UMTIiMTJr8F7aLaDCJ4lwug/qqE7NDd25YtkDRzw8PDo8DbXDggdeXl4lD4cu2S+Wi6NpF2vscdeG0x1IRTJxwjNjV/+HtrXuqKrSKcHjNhLgHZDyZMHcX0UidouqeAeW0x0UrM6ctiMsNCyBNNgpzXVK8CAgIKD2/ln3nvQudTlCu3wElqNvqv1KXQ/fP2vpr7Td6bB4pwUP4Nq85vLwTrrNnKZd9Ja56Dn6QCqWiWM+DHrxhwEDBmR1xpVR0iXBw7UZOXJkwouFizfR7nUqrX7gmMPpIjIS1O21dSu+j4iIuADNKeo7RZcED9zd3SvvnDHvzOzMkb/QLtay4VEbju4QsdK7csdsW7n4wQMk9i7/jk+XBQ98fHxKX53z7FbfUhekEfNcG46uqPArcd3z9B0PfYntxqquoRPBU8uT+fr65rzitOoXsVQcRVX4cFz0nK5QT377iQ8CX/gqMDAwBxpT1HcJnQge0AeSh4eHX30uf+FG8rkSyZNHT5r785zOQH66/OZr1St+GDNmjMYlNzqDzgQPPD09q+6edeeZOalhPygSzHjuPKejwEjm3pUzdvOqpQ/+QWLX6RiPTgUPyJ8veX/FG7sjcgLRic2kwgelONoCseePyQ3c+ufJD22h7TKhVofoXPBwbezs7Irem7rm58AC9z1k6fFTmDq7JXF6M6KyIcXeO/8R+fzn5Ldn68pvV0XnggcQPQYI3gp+boNnkR2W+eCrl3Hao7pfmd3+Lyb847Pg4OB0fYgd6EXwgD6w1MXFJeX9/i98Y1dtfoiquOg5mqixq7H845vhb60LCAho+k1VfaA3wYOgoKC6SZMmXV3vvfZTE6kpFqjHmn88XMlRpc5UYhr1ruWT6ywsLDB7Sa8Dl3oVPKAvgKmBlz6QPP417Z6jwnNuOEpwx4/9xPyZdfPmzTsNA9lYrT/0LnhAopdPnDgx7o2K5Z/QLhLN0Pvmou/b1MnJAK6TP/X+vNnzTsEwKur1Sod/bbsr5Ofn256KPhX+CvvuGYlp/WR6e2eq7pZGxzEoas0kpjEfmT33r/lz5pwmsXfbD+h1q+CBXC4XnzlzJvyp3HdeqrCun8HkzIGq+U919x1q7aut/3jX+omP586de6K7LLuSbreu9AVlEyZMuPKF+6sfexXbKefF8sGpvkGFV7njvs2D33lt0KBBJ7tb7KDbLbyS1NRUy5ycnKDXk79YneySdyd9EG+qtmg8yumFFAUXe+/9dOxrH1LnNLknxA56TPCA3BuTtLQ03zXH/7XivMfNZfRx/KnanEqPfi6OTkG6QOHY3MCdb0/+60cDBwqLnvZYwKLHhUWiF1VWVrq98tOb9x3wu/gwVQ2kYkWFi974QUw98668sf95auKqf5NlT+tJsQODEBVEn5ub67pt384Zn3r8d4XMRDqOqu2pcNEbK3JWJZaLYtdWPbhx5b0rD1BNcU+LHRiMoCD6goICm7i4uNHvFP37oSyn0j9RtQsVU+EJHGMBoi7xK3H7/cNBL6yPiIg4S0I3mDRxg7OgCFuSX++37vBXDx/wvXAvVflS4X69cYCR04w7cyN2Pjf1sc8DAgLwEzQGlT9lkCKC6HNycpx3H9479SPX7atkYlkkVdtR4YNUhku1WCY+v7Z2xY8rlzy4m/bLDU3swKCtZnZ2tvXVq1eHvVuwYUW6Y9FMJpL7UDW39oaFhC5Gvm+J28n3Bz//w9jRY2NJ6KWKYwaHwQuHrL1Jfn6+66aDv8xf77J/uUwsH061sPZ8dLZnQbixSiwVX1+VNWPfynnLfvL19UUUxqBTwI3CUqJDSy6OVXJycvC3Sb8ujfJOWkBnGzF7Syrc2nc/GDTKnpwfeujF0Y9uHjp06GXaryGxG3xCoFGJhYRvmpeX5xx9IXrUexWb7iuwLb+DqvtRMROewNE3EHSBa6Xd5aeli3etWPbgfuyT0I1msr5RWkdY/OLiYp/v9m2c+43rgQeoahgVWyrczdEPcvpXTWq5tTJ9+oGlkxdu8/DwSHZ2dq4gscO1MRqM2h0g4VtER0cP+uLK5hXRvjdmUhXcHBsqPJqjOzBamjUhZ1DMqsB7N4wJD79oZ2dXSkI3yiUVjd7/RaeWHuzPnDkzdNO1HbN/73cZefaDqQ5px3zQqnPAalfSQ/q09GHnF/nN3Ddy5MhYLy+vfKqvMzarrkqv6fAphG8XExMz+KfLu+cf8Dk/hez8ELp0iOhwH1874KNXkCyu35UdEX33oNkHg4ODLxcWFpaEhIQ0GLPQlfQawatSUFBgFx8fP3hPwm937Q44N4OqAqk4UoGr0yu/cxeBkKvkcpa+LHvSsWXjFn03bNgw/GidtDeIXJVee/ER0SHLZJWRkTFgT+yByTvcoqdUWtSG0iFPKtZU+noHt7EjykS5dg0WKYvyJpxdEDHr4IABA5IcHR0rjdVHb49eb+1I+OLi4mLboqIi17hLl0ZEVVwcvdcjNowMVyBd8H50BpCK3Fc6ubDW+NGKYtpIn5sRfmWe//Qj0yZPjrW0tMToaHVvFbqSPnN7J+Hju6ITa5KZmely+tzpsO2Vx2bHud4aTwf6Uz3SkXG8t50TiBwiRic0Oywv4MYck8gTY8NGH/fz88ska46cF4MfMNIVfUbwqijED5fG8vTp0wOjk86P3WsVMzHTqXA41WGqobKja6znByLHj0aT1ZYX+pW731gimXJy8ojI056enllUX+nm5gZL3+t89Pbok4JXRRHdgbhtLl++7HcuPm70+cqEESe94wfXi6X9qGk4MhlZf5GQxmCofj9EW0cPlSImKjCTiW9PzxuREukYdiXYP/iav79/qkQiKfXw8MCIaJ8TuSp9XvCqwPInJyebu7i4WJLfb5+ent7vdv7tgEvl18NOOseHlFpVB9Apw6QUdHox4RwuUHdGfiBUuB/IZYEFx3oupXbVFvmRuUPSQq0GJA7xHxwbGRl5w8rKCotdKQXeZ1yW9uCC14DC7VECUZtFR0f7Z+dn988qyg9Mq88KTrRL873hlOdJz7UVNXZ+UZQNAXcDZWPAY8uGAfEqi5KWgsYjsg9RJ5HLWU1QkUdRuGTwzUHWfrf8PHySfPv5JtjY2BSQBa+mIg8MDJSQwA06Y7En4YLvACRspXAhZhQIVFRYWGiSnZ2NEKhtTmWORV1tnRhZ+zWsxqREWmVaIao2L6+tsmmQS2zrRXJziYVEZGFmJhE1iOus5BY1JiKzBnllg8xWbCVxYrYNjnbuEldTK4mpjbXEzdKhTmwjljpbOdfb2trW2dvby1xdXSFo1SIsZ4hHTlsw9v/+Ej+ndDe8NwAAAABJRU5ErkJggg==;" vertex="1" parent="1">
          <mxGeometry x="435" y="420.5" width="99.5" height="99.5" as="geometry" />
        </mxCell>
        <mxCell id="cUAh2cXA-izQVIxBllL9-2103" value="" style="shape=image;verticalLabelPosition=bottom;labelBackgroundColor=default;verticalAlign=top;aspect=fixed;imageAspect=0;image=data:image/png,iVBORw0KGgoAAAANSUhEUgAAAKUAAACUCAYAAADyDenSAAAAAXNSR0IArs4c6QAAAARnQU1BAACxjwv8YQUAAC7lSURBVHhe7X0HfBTV9v/Ubdn0XkiDEAhVBBFEpEuzAT6xgA0bKvpEsXfF5/NZn/r8Afb2FBV8CEgTkSJNpAgYEkhITzbZzWb7Trn/c5Zd/3QSdmazCfn6GXfm3mFy77nfe865nepABzrQgQ50oAMd6EAHOtCBDnSgAx0IXxBCaP9tBxREh1CbCSCgFn6Mbos7wmlzGmmaZux2M8VG661Go9FhNpud2dnZHggnR/5FB84WHaQ8A0pKSnQ6SpdSsurAlKJlBybJkhQniRLPsjQtCDLN8ozAabjazpflfZs3smCJxEnVaWlpTv8/78BZoIOUpwBoRr66pDptxwebH635rWqcTKhYiiF6iGLgOkZuNEXLFE03sTRblTEs8/uLbx0+XxejKwetKflf6UAL0EHK41BeXq6P5CNTdi7afnXht/tvZnVMJ1mWkYxnlBWQE7hMmnhWU3jeLQM+6nPVeUsguA7IKRx5owPNQQcp/UAzHRMTk2zeZ+q/9tlV98mM3AN0YjREoWZsEYCcqCHrWZb7c+AjF7+TVpC2Hb5dAeQUj7zRgdPhnCclaDbWZrPFmMvr+qx/cd1MT73rfMJRaYQivP+VswbDgIYkTLkxxfjHsCfGvJScnbwfiNnkj+7AKXDOkhLIyNTW1uopL5Wz45Nt0yrWlUykeSYHyKjzv6IYGJZxsQx7oMvo/B8GTBv0sTZKi/6mxx/dgeNwTpISCEmbzeaMA8v3T/jj450zCEvywEgbIUpNeRAw61atRnvw/JkXvlkwuucKCGsAcspHojsQwDlHSiAkd3Bn2cB1Tyx7WRTFHjRLRUJwi/3GswU2hoCIZp1Bu3/0c2MfJrHc7pSUFIc/ugOAc4aUQEadx+pJW/Lwd881ljRcTHF0MphqjT865AByipREqo3pMVuHPjpirqyT/+zUqZPLH31Oo92TEsloqjBl/P7JllvK1peNpTkqT5ZlA0SFRd4ZhnExFPNnl/Hd/zvg5oFf63S6atCkXn/0OYl2S0ogI7ae4/74Ydewre9smiVRUrez7eIJAWSGZuq1Ou1vA+4d8lH+Jfk/Q5gFyHlOdiG1O1JiIwZ+oqr3Vfda++yPc1wOVy8ISwdTzR15I3wBJt1LE6oyKjnmt3739n8vPjd5R0xMjBXIeU6Np7crUqJ2bDI1Za99ceUD9ftrRhKO7gRkxIkUbQpATg8lU9WxXeJ/uei+Yf+0U/aDeXl550wXUrsgJWpHk8mU/MeXu6cf+H7fDFbHoGbE/sY2nT/QkILklCpzx+V92Xt6vzeTk5NN54LWbNOFBmRkrFZrdNnmkqE73t7yoFcQe1IsCWkXTwgA9Yuy8ZymeMCsC1/qMar3WghDk95uJ3u0WVICISNrDtR0X/fCqvucVsdgSZRSW7OLR21go4fluUpDvGFX/1mD30rOTd5jNBrN7ZGcbY6UYKYjNUSTvPHf626u3Hx4HKWh84CgYdPFozZohnFTIjmUMiBtzXm3XPBhRExEaXtrDLWZggTiaSzVlpRd3/026cC3+yczBqYbhMVAFHvkjXMKOCpkld3ywa5Tun877KZRX1E6CmchtYspcmFPSiAeZ7FYIqp3lvff9I8NTxNW7gqpjoOosO/iCQEk8DcbOJrbO+yZS9/IGZCzEcKwf7NNa82wJiUSsuSPkoItr63/h6OmqS+oh4S20N8YatAULbEMUxvdKW7zJY+Oejm+U/wuIGabHRUKO1ICEZn6+voI0Sl2+v3DrbdXba2cSDEkXZblNtffGGrQLONmCF2e0j/jx343D5iXkplS1BbJGTakBDLSpaWlWoPBkFa0onDM3o923k7zdGfwGNWeUtbeQCiZstEytX/AbRd+1GdK/2UQVtuWyBkWhe33G9OqdpYPWP/MT/dyei6fsFQCRJ2LjRilINKENtEyvX/Ui2Nfzzo/dzOEYRdS2PubrUpK1I7wE9lQ0dBt5eM/3G+rsg6kNUwGhAW9FKEDR+AfTz8Yl5e4aegjI1+NT42vgGBHOJOz1UgJhOQ9Vk+nTQt+ufHQmqIrCUO6QFibHxoMUxCGZR0cyxZljchdlD+lx6epqalVQMyw7EJqFQIA+aL2/LDzsm3vbLpfouSuIViK0IEjIJyGa6RlprznzX1fzhue/2N0dHRjuGnNkBHBb6q1xduKB657fPkLEkMX0CwVBWEdfmOIASadMBxr0vLcnpFzJz6W0jVlDwSHzZYzISElEFJvr7Znr3h+yWP1hXVDGR2bAsHh6jdiwfgu9MeIJDtlkXhAUALN0hIRZKheuNgL/n9kfTdDczRDZIpneIYjMtHDexHk2CW6YWkFIP0eaAwdTChIWdf/joHzNTGa4sTExFb3N1UVFvqNlJNK2PjZ+qn7vt51A62j85GgEBVOhRQgoUAEYqNkYoHCstE064wvSDiUdVHORkNqZBkTxVh0ETq7lte6ZAADiIqMEjxeDycRSe9p8MS6LPYk08HagtINJRdYSxozQQBayKmOZpkomqdx1jtahXAjKPqbTUDDwpwxnb/tOfW8RVartbw152+qIiAgHmO32+Ortpb13/jq+ockIhYQmsRDVLiY6oAmFCCtFlomJlajKet6Zf6a3Evy18ekxdTo9Xo3vIPLEbBw8FcGDXLK5bDwHcwbXpr6+vpI4CzrdDr17mp3WtnmQxeX/HhwDMPRRkmQkkAW2N2FmjRsCIpaHzS8ieO4XefdNuD9tAGdNiYkJNS3RmNIcaHU1NREuM3u/A3Pr3nC2eA4j+LodAgOl6FBJKMM9HLShNToYg1/5l9dsCjj/KwtxjhjHZDInZyc7Dod+VoKICsHJNVrtVoNOAJRhSv3X1q0eN+VHtGTA3FpshQ+i9gQkHcvmPRKfbzxtwseGvxOl15dtkFYSHeRU1QYZrM5es/CXVP/XLhnFqNhOofZ/EYc6XBqtHxpUt/0FX1u6Pe5Mcl4OCoqCtdcC0oS8XRAksKPtmJfRY9t8zbdbS6uHwwqO53IsuI7cwQDkIeLIXRh1yt6fDTk9ks+gedGf5TqUIyUIOyYZY8tnl21s/ImME+pEBQus79xmpeXeOTK9Is6fd97Rv/XRFFsyMnJQfPcagB5+cb4GZHJ/Pn5lU82HKgfQmvopDCbcCKBWa9O7pOyaNijY56HClzvD1cVipASBGxc/966aUXL9j0gSVIOBIUDIX0+o+yWKhJ6JG684P6LX2D1bGU4bmiKFbq+tL7v6ieWznY0Os6XiZwIweHif8ssz5XnjMp9a/g9Y97BCu4PVw1BkxLNUdX+qt4/PbX8n26ne0iYmGys4RZDpHHLxU+OeC4qI6o4HDuJjwbKEX5SitYVjv71jQ13eEVPTzDp6G+2OkBuosag/W3wo8Me6HJely3wrKqrEzQpm5qa4lc/svxxS0XDNEmUcPKton5qSwFk9DIUU5Q/ofvHF80c9jkE4QyZkPiLwQKIibIzOK3O/FUvLL/fXGQaAa31FKjorWZ5QHaYLspqc3t0esOGqZ//bVJiYqLNH60KgsosJJatL6vP8Nic/WRRxtGZ1iUkTXt4hts68rnxs4CQ78IzboHSJgiJgLSi/+swRBt2DXti1LMF1/R8nWXYfVDRQr5TBqTD92u2OKjqaivlcng1riZXr6bqpmx/5VENwdZA3nrA0tNp8+BKwlb1gRiGcTIys2nM25ffkXV+1i8g1Da7GT6kXQJ349DAa4f8Z+Kbk2eyEr0bwkI2HxIJKXklHxndriPdlEhElyhEVO2o6g+PqpZ1sKQ0HF5bPEwWpSS4by0tCY192pKYl/zFlfOvuTEtOw13y23zy04hD6g1nYm5iRuv/fKWSTqt/jfcfBWiVPOLkYyyIPvIWFt/ooWmZVmz/3+FU+BWVXci2I8zXpsYC2xsrcaNzHJcbeagnHmXvzb5sfgM31zBdgUkpy5WVz7p06lXx6TGrmQ5FtmiKDGRjAg01UhG9CFPAVawiWnwG9bmG9wdwkEWWkNLypyWr8kd2uX9MU+OfwsEG5I+tNYAEtNgMFSP+uf4B6NSo1awGg47soMmJpIRr4DfGDDVpwOR1d+bKXhSQssQ/oekDCUxCWhIc2b/7M+GzR71HjzXHgluv0Bigp95ePjTY58xxBlWg8bEDf3PmphIRvQbq6oam0VGP7CMVTXdCNX/gBqAAnHGZ8UtH/nYpe/AI86gbjMt7GAA+RRtHlvJ0KdG/UOj1WwCHxOHSFtETCTj6fzGM8PX8lZVAQVFysbqRr3glUI6FQ2EKmCBDJ4z/Hl4REIGbcbaEnB4NC0rbffYf13xFMfyO7Ff1h91WiAZEc3wG08LQZA4sEvh2/qWNJKI+8r7a08oIDOE3Tvi+RGzEjMSD4Gg2+3OY6cD5jshM2HPRbOGvgoFWApBp7QUSEa8WuI3nhaEsGbeHL6khNoWSi1FiEiqBv/94kfT8nNKQNDnhMk+FSD/3i7D8zd2Gpi9FCcmQ9AJZYFkPL6/MVjQDPYMyaqWuxI+ZUi0JPpPSd2Tl3Qb1WMjFog/+FxHw+iHR81jae433NAfnn1kQTIiAn6j0rpDbWWkBClVBw6zcbSmcOwzl78Cjx1nzvgB5COUVls+6Mlh70HjrxCIieqQBEy1GtyBL5JEOTF8SWmgDIRhVffrCKvhmnrf2PctXYyu1Ro2UMAMXDxcEXBFwmWESw9Xa08xc2f3zd6W0D1pj9Xmditpqk8GlmFkKplStcyDI2WCQWQZzgN1VjWiMAwt8jpuX86ILktaw2wD6bimpqaEmuKabsXbigdvX7TlmnXvr/37+nlr/77r222T96/ZM7xqT1V3fAfeNcCF5A2JBYK/Q1sslihJkqIarI4op92D099Udac4lkVfXlXFEFQGQCiJC2/57P0mU9NoNXZF8w0XabnqC++/6G/dhvbcDKQMWeMGCXbot0P9Chftvrl6R/VQWZaMYC85qMasLPm0owxWAk8NkxieExioMGBCazMvyfkxc2in7w1p0cVKr/c5GkjIxsbG6K1fb52+9V877qGiSSdZUndnOrRS8XFxB2euurMX3Ku22lEBUn6+oMlkHaMGKaGQ3RFxxtXXfDhtSii0JORHAx5r7O8rto/Z9cFvdwiCN4fmGTTXONkWtd/p5EXQ9yUyZWNYqlFr0BX3vq3ff5J6pf6akpKi2EFNkBbWarVGlewoGfTDTctfFA1iDqNncIcR1bVzWyFlEpByvhqkhAKWdNG6w/3uGHRzwSUFG1Ag/ijFgQVtMpkSq7dXDNn6rw13yhq6K81QuCQYJ5qciYwnAxLUQwS5ljdoDgx7euTc6Oz4nXFxcVZ//FkB0hl58M+yrsvm/PCw+ZD5AkbLpEBYyJbqHiFlbPHMVXf1VpOUIfF9zgY0Q3s1PL83sSDxd5UJiUtgO697etUTm1/b8AKlYwYBIXEmDK4uRDN9NgUOCSY6iqczwd8bsvqxla///vG2+7ESw9UimcP7NFx6l8uVufi5xbO/vPLTD6zV1rG0hk6HcKw0ISHkcVD1bwZFSrPZrBFFUY1pazLNMpascXnf4zYi/jDFgQSxNdi6rHlg+RNNlY1ToKBzfWQ6O+14MmBHs54wcs/DPx285bv7vpoLGjkX/u4Zt6zBtOEaejDV2RsWbpryStfXv9m3tPB2EkF3B98xAl5plVa/iMOMKiuzoD4OgkOcrTY5JcD0yRzP1OUO6bJeTS1pr7F3W3r/oufsjfbxkigHdvBQQwtwoiRlNB42X/HToyvn1tbWZvjldlJAHA3vJDQcarhw/ugPFqx9/ue5VCLpIwoialrVW9ing0wRFiyLqhUiaFL6b5UEAdPt0cdEFLMGVpUpaVjoDpMjbfmcRc84rI5RsiQFTrdVs7BpSZDiHPVNI395evVLYGVSIR0nyB/C2CZTU+clDy195ZtbFn/kklyDCEfwXdSuqmqo5gAEpHoagv0DR0ipcFECKS35Uwq+goaBKs40aKHE5U/87xmb1X4JEDJwbF4otA8SM8ZaaR2+6a31D4HGSfaHIxk54iTpP7668qHXz39zWfXemqsoPcGGDDYgW52Mf4H2rW5UzXohlMis0gmUKYlujOuSuAvuFR+aKC8v1+/5fMd1TbXWEZIoxUJQqAgZAE3JJM60s3p05faykVC+MXCl7V61++rnOs9dvPGjLQ/SCUwWhAX8xlCmrVkI62FGADp8Svbw43cEhmVrIhMiG/zPigEKmhasQtfydaWTJa9vrUmrFDqu/IS0ZO+av/2uvev23vL6kDc/XfzAkleoFNKb5xmsKC3u5mFYRmBEppx1skWcmz2g8XAHtFptFcMwEvjlvu4clmMl2kNXMna2GN4rhveKOYmthHea34cKiaeSlS2X4xFUgYBgExfe+sU8q6nxUnJkNCHYApaJSBq6jMn/94jZY14GQSqqKSG9/Hd3/fdNS6VlCpjtwMYJISclkgSnlNU12L2iQ3SB7xyUVkTC6TW6kjuX3D7DmGAs8gdr/tjwx/BFd3//Iq1hsBEn8wzvmrrg6uuyemX9Ac84fk3XlZkLFlw2b77EyZkgH/x3pwSQl4BLdXjmyjsK4G+qthdT8OYbjS3WH2WAO6M1ZV6QuQ3uFV+Aby4z51krGgcCIQMbJ4SUkEjGo5ciAAk0QEhsZAXTokbZ4/aGNo7nDsPfqMQLwqo4DQf3DO4oh5fI8qxLo9WUQBye44iTWyp1eq6UYWjsdsP9N5tTjviOUuV9UgRLykDilEoktrztifmpxc0UULMBBGB+/ufK+yQiZcIjkiBkgLz4foNdinA84LuyYBYdxEGqaSddSTTk6IoMf4bI3lKvQ7SKTVKTbJEapDov7T2G/PANWjSRJsEiNMlOyQHa8KRj9YE8wI+qhEQEpSkg0zj2/W5TvXWcLMlKrNURiJf6/bpFN10eGRlZ5w9TBKSRxM6f/M4qSkt6wqPqHcCIo8mownQywnNc9TUfX31TbEzsATDNbmOysQH+pm9aGVbC6urqOLfJjaabEmlRYFlWzC3Ixb2V/urVgPf4urK6TtZGayJxk7T/zVn6ssvmwuNjfPGBPCDgHsx3/KGZK2/vefQ3lIbqBdMSgDtOiEREo9GouOk+XHo4m2LlkO07joWp9FKEo4Hf53nODg3C0ri0uLLIlMg6CPtrniPcy6mpqeac3jlFeOX1yisFQpZD1DETW+A9ITkr+ZA+Tr87pVvKHo7wuBF/IM73ezSAl6rLLihSOhwOhsgKj+jIhNhsNkUzjlqjdEPxcIrxbYaPeVZNsIGCVGspwlEg4CO6IyIiTrlnEhLzuAu3gjlpgjIyMtw8z7s1OtYD0sH3/DHHAiyi6pU6KFK63W5OkEQN5FKJRKKwJH1KhM1utyuaabPZbCxdc2gi+KvYUa4KAoWo5lKE40FEWjYYDBJWOrjOWmb4b5Gser0e/MmT+5Q+wF8QpTBfYguZgdzgBhnKAFqm3pjcmFKtVqvo3EmPx6OBGq7KAaRIRrwUW8LaAkiUpHFanZ1qSmsyDx8+jKM/xzTg4Jl1mBypLrMrEypmpr3WnoxF5o/2AZ756kPVnRobG3Nqyxq6e71CDFg/f+xJQCimnq1X1e0L9uPKqgOa8hoSImoFQVBsDQgWAjj4QEbCYr+vkkAyquk3ng6QLwYqW+7rF7+18KOrPl75zRWLPoaGDZ7E4QPmu6yoLOvfg975+K2x7y6eN3rBDwsmfPRtTXENVk4f8J1D+yuyP7v8ywXvjZi3ev64eV86HPbOEIXT5Y68dCx8hIY4Vc1A0JoSZ/v5H5UAmI5jujUUARQejqAo5gshGbG/UekunpYCtL9G5uUUkZNTJY2EZDsmIazEclQCHUNpSSKtp2PkCBlHi44By0mcqBVTRVZKIzoSB9/kTpcfmgnz1YxQOJBGZVe2yTLhNRqNov2IGq8GiR50OpGMCNwU6vetlVRZMe4B8P/DQ4yjiQH3RGIFFgkVSAxLBKIlItHKssRC+5FloLA8gueYd1iO5aFxiQ1WDDsT2TBe9WHGoEiZkJAgQJ7w3MJTO8ctAMMzNPFQ+tjYWMW0JRCGJHdOtrAM58IuJ39wi4Ckwws1467tlVRdpZ3itEdEh/cO+xHTHWJywp+jJfivliXsIU7gi4wJRlyoFsgjbXPaIsQmsV5ykxrZI1d564RqDdEcPcFYijJGOakmupYSqFriJhZoIpy2LKGFjvGKlPepEJQUocYlLJzxxdtNdY0TQO0He3IWNgEtKb1Tv544d9LDcK/YZu+QTuaTyQvWet2egeBXtmiyA6TDR0bUiqJH/ouMJ0N0nI7SGfhQmXNCcaxpyluXz9bRusOMlrFn983GXYx9ndqQBraioiLFcsDSWSSiBjSih2M5b2J+4t6kpCS77wsAeC+iaFvJ+XZLY5rgFjLX/uOX+7weL87fPKGSAWFx4VjZXSvu6Bb4O2ogKE2pArTmAw04e0fxdGkjNLVAxWZr4ECBFBfVU4f24oQl6rSERFjNbqq2wkZ5XKLqWhO/r6N5e1KXpO25A3M3AyH3HE0UuJcyMjLq9Jn6LZFZket7X9J7c8GQgh2JiYnH9GvCe468ATmb4RsrugzpslTLa81qp/1MCC9SEop11bsDHdxKguSM6rwGjM4Zt2bGAsEL/cbfNpZT9kb3Gcl4PJCcoTDprIbBA0/RV8bpaSf4zBAm4Gm0eOG9/zrB9EKY12KxuDiO83Ia1guV95Sd56EwAsEWPngwZ99pexLAt3x9bYqSEgRMsgdm/Qp0bPT7lSeIFgsBLzTVO7dVHOM3ng2QzAF/M/BtpSFLyjFEq9UygiCw0ND09eWGyAU5KYIufKhSmHolJI7foCFFvMPhOONqv5YiKT+jEox3DfyFQMd8gJyoFYjklcjRplopIDnRpLudR8ipJIA+DOQpjXJQycRK4tCP9Ef5UFJSoqusrOxUXV2dXVVVlYX38M4xsoVnzmaz4bF7WYJdyPG4PJH+lviJADcTqy/cKZuR4xDUx+vr69NX/H3JO65G52ho6ODS1GATK8pucd+Ed6+YnpGfsxcKUbHupoaGhqjN7264u+rX8jugsZMCQSx8HzuJ6dJDDVRDtZMORjM2F0npuPvLkVO8ggV8x+Ot9ZoYnvHqeH35tJ+uvQ38yINHskW4kh0lBR+N+ewDJprG/kc2Qmdsuv7ra8al907HOZf4DltSWNLli7Ffv+mlPPmSIEVok7W4POOYLjlMb+A30hhZdd/P93SFe9XOKQqqFCDx4J/QDIhXqZrD0DwXYTrYkAf3ig4JxsXF2Xtf1+8bjucKcVIrCFWqrrYS9BvBBwwJIRFKdiGB/LWaZE06H89nMlF0Esuy6DMG2I5zUxk+g4vj4rlkTZImkUtgYlkDi/7lX+/gaBcdRWXCW+nwTvzxhERA2FGVyHf6rqJlczyCJSVk3P+gDDFBinRUxS+HL4KMK7sNDDj4fARflXhe2qomj7cG/EZSedDKABmVqlDNRsDfdDoFkRO5GpawOO3srPpmsQjgYkETgry4zJqamqTa2tpkXMIreIUMCNfDxYNJ5sBf1AiykB14B6xHKpjkdNSQ8KkzjngFiInl7rtRCUEVSF1dXcrqB5f9n8PiGE2OmO+gAU0CD8uwG8bOu+La1NRUnLSqmACwAMuLy3NfGTPvU9khng9BqBVCTkoE9vkxWmbfM5tm31m1r6rzkpnLZ7sMnhyWoQKbabUIDMt49dH6ak7Pe7DxKQoiK7okg8fhSYR8+77HcqysidBUclrOg8oETbrgEg1ehxe3MTzjKBqUBRUVGVlz3cKpXY/u61QaQWlKSCRwCAtV0XLl4L84yfXX8lfFgATnIrjq8Q9e/D4rMK15GBRhRbb+8hfH/Cs2LXZHz9E9P3nkwIMjBt04YC7rYEuAPC0+7g4IpnGYHVnWysaujVXWPLvJkeu2u3HmUEAD0pIosS6rK9NWZ8trqrH53vHYPSfMLjoDSGJioqojOkEVuk6nk8BtESDHymkzcIWIRKLMe0294VFRUiLwEPqhNw1ZntYjZZMstcpW1aiwnTmXZC658Mrzf4SKggTECtMw9u9jXrtr3e1XpBSkfkFscjmEofOpqqlsIQgu2YXf8CWl0WiUwE/2gpRRcEoJDxpOJL5oaeGlcK+KaTUYDLW3fnXtSwl50asZjlFsOLMZIJyGdaT3Sl5536e3PRsREXHMOiQgoTcuJa7wmrcnPzZ94Y23aZ26zZRAVUOUqiRoCaC8MS2qVpRgNVGANIomEjRlhLvRmQ+NHWwNKk5MKHxJYqXCu7668cWo9Ig1ISImyIh2JuUnrZi97M45lJ7ydcv44/4Cpi0yMtKU0zfz5zn7H5g+8aVxT9I1zD6WZ9HdUJUMzQJoDP+dalDcPCoByDcneISMkpXFI+CxJf5Os5GcnOxMzUzdM3PhTS8kpMeugpYpbmiqlsBlYifWnN6ZSx5bctsDWq0WD6Y6rfaDeOzeOdxvYr+v5hQ+MKXHhJ4LOIEtggYNbgLQeuSEVpT/TjUETUpQY2qYWHTKkw/9WDTFYrFga1RxoJaCy4tHyt219MZHu43v8iXloaogN4p12CNolhYYmSkbNKv/27NX3TmTNhjQV2x2wcK7Tm2ktujKpya+MON/t1wTlxH7M0uxtX7frl0iaFKCdFHASExFyUlkonPbXb3KtpcNBBOu2nniUOgitCZL//byxKfvXDn9Tpqn/xAtUrDaCAfkJMkq2VgDu2PW6psn3/DSlBfgb+GRyC0GkhjJmZSTtPuGj6+74bJXx99Lm6hSwSO3ltZUQxH9haBIaTabdYIo6EBgiicSTDgjSVLSwa/3z4BHVYUAyRdSU1NNPS/ovuK53Q9dccM3V92ojdX8SlykDlro2B8XcO4DVwBHh8mQSlGWKRsrcRVxmTGr7l07Y9Ibxc+Pzuubh1tkB70YDr6Bxyubew/vvejx/Y9eMu7xkY+wDjDpjM+khwK0IIg4dq6q2xdUYZtMptTVs3/4j8PiGi1LvtNsFQUUgqTVaw4MvnfovZ2H5q/DZ3+UagCtzFRUVGh1Ol1M3eG6zD0/Fg7f9tnuy2kHFS24BZ0sUjwRZBwdAS5QMs0xImhXL6/jnXQ0U3vB9X1WDr1h4I/JGcm4n08TpFnxNUcBQFojHI2OLt89tXhWxebKUZIspcmyb122KoC8UFGRUdXXLbwmX83O86BIiSM6ax5c+p5apAQQjucaI2Mil034z6RH9Hp9SE8cg0LnwBoYgKAR8HeZpqqmWIvJluCw2GPcNjcu2vJERBnN0YkRFn2C3gqtZpcbgPu0hyqdmMb6+vrcQ1sOX7XyyZWzZcq3lFgV+EgZFVVz3dfXqDqiEzQpVz+07D9Os3OMSpqSyF5Z2l9YV3/RzAvfnvLwhDchrNXOZgQCoLxQEx1tvnydyaEi4fHANAEp8778+6LHD6wumZSYGoEVCMP9byiHUJEy+NY3Uf5ELcw8ouRgPb1jawUnuMXEFS/9dIul1oInK6jqz5wOSDy4RLi8R10467tVCOmHpq64rtuBZYcGQePQoOQspFMh7JfYgq5FTYGJDDqhvs/BhYv7/VPKArO/Wa1Ok/nSwLffgnucYKCOtNsiXFTSu1d/9jjhqWx48slF1Vnv2Hke5ktsvTzHueUj60TOGgHBBZYiVB60nrgUgVBcY7m131cvfDsdnvDYt3MaUDHRl0x/554PHhbtcjeUjz/qL6gx653X8D535ciTOgjaFBKKliG7Z11zUFi49UlzVg1qEviIn/+x9daSnSUXQqEoMlWuraK2tlZb+Evhxfv+WzSR09CnraSBVZaI4Mnpc9fCV1Mi0KWGnxYnMiAc8Bt9u01grW7G7G+GNTLZb0764DFrvbUHagt/+DkFyDdvrXGc98WsJQ8AHXFJcrOYpoxJx9UG6iJ4TXlkgL7ZxAwI5CR+Y/NAKI3kkgb8c8x/nvZ6vd2ggFSdmh9ugPxqaspq8hZc/9kz0OQK7ErcbARp0s9KAbUUwWtK7ECmz+xjBMh4Wr+xmcBWZmNF07A3Rs17Cnceg4IKOh9tAZBP2lRhynp78oevuy1ubG2ftQujrElXFkEVpt1uZ0TRx8fT1iDMdHP9xuaCpomxrLBq7Btj5r/kafIRs11rTCSkzWaLe2/yZ+/Zqh1DZJEo0i/c0i4kWcYmRHD922dCUMxwOp0MkY7s0ADXCcQMZDKwS1kz/cYWgBgP76249J8j337NXGNGU94uNSbki6uqqsqYe/Gbi0wV9RdKgrIDFS3pQpLsPlKqKuegPq7RaDzaBF0lwzI2yEqAkNjB7MvYyXYpUxoMS0dUHTQNf3nIO68KDqEXFqA/qs0DtSMe21d+sLzb3IH//q+txtFfFn2ncKiCM/mbuCObobO+GG5VbewExZSYmBhHzrCcXzm9phwUOs6C8RGy3nbEb1R6t4lTgeXpCIfdOWRW9uNvmspNg6AwcclomwbuboEHm9YVN4x8rv8bH1IC1Q/sUEi6wU7lbxKGdueOyFkEt6pNMkEERUpIsBCbn1is4dhDoLEcoB9F8BtJ6S5l/MYWgVAGlmUveG7w66/8+v3WyUBMXKV3ajsUxoB085GRkdm/fLjptg8nffWyVqPpDflTdB18c3C0SWcYhkTodJb8wVmrICqowZIzIWjWRCZGNkSmxf9e1+Cs3b6xjIAJCNluEycANAkRyHlf3bLkmXeu/fBFj82TBwWs2gRhNQDpNTSaGnu+O/6TuWuf23If4UlXCFZ8b6XmImDSPV7RG5lk3C7qmRbNnD8bBK1JQIjs7o27B3w89dt/eATvBf4a3doaisgy5dLFaoqmvHrZM4Mv678KBKna3jfBwK/NGbPZHAGaPn7j11svX/rsT7cyMt0ZGpFK7M8UPGhoURqMpTN/mHZ5Vo+svf5Q1aBIhq1Wa9zil5ZP3fLvnffSERSeLhBYAN/akKUm2RqXFXPo7hW33ZGWlfAnhB29BXOrAxsyHMcZTaWWPvOv/eI5b6W7BxfLoU/cSubmRNAuunHEYxe9fNUjE14B2ak+oqMIcbC2m0ym5K/vXzxjz8LCqVwsj8REsxkOxMRUeCkHqU3uk7Bvxic3vpiam4i13Q4CPtJB1wrwuxWR+7YfuGDBlZ897Kh3duNj+BiwNC3a/lplENEiWQom5n0/67vb7gN5qTaH8mgolnkkJrYWf/5g84SN/9pyvcwTbC1GQhTW+HAQMhG9slvHa8pTuyTtn/Dq8PdTu6b+LsuyNTExEbWnqs47Al0d+Img3O6YHRuK+y+c/f0M22F7d2hT42SwcHB7/j9oaO97qZIh9w78fOqzV/4fyEfRA1xPB8WFUFdXZzQdNhV8dPO3t7nL3RfKOjkHGyAQhX8rHIQuMxzjZty0iUlgKwdO77uy74TeaxI6xZTyPO+KiopCDRr0Iq+Ar1hdXa2Flqsxio/S1lXWZaz7ePNV277ZPZTUy2mUkUoE2YSPRUHgkLGDshiy9L9Pe//qN3oN7L4B5NHkjw0JVBEGagSHw5Hw+/K9AxY/vuxmt1XoC00PnM0SME3hUAjoV4qQFDtoBBsxyOY+k7tvGjx18PLMvOQDUYlRWBDYH4crBXGDe+yDPUGbBsgHF2pB7LjXWCyWKI/Hw4hOMfLwnoqCXxdsv7p4c1k3xkVHEg0djf2q/vfDCYSALLTR/L5xTw7/uM+lBSslSarBvZf88SGDquSAAuPB14xf+vKqa3Z8uHcK0ZDuRCZREBUw6eFAzgBkMO8eyiG7cXWimxFItD6isff07mvz+uWsj8+MKYlMiazXslq7QW+Q3Zybc1gcMW6PFOF1eSNcjc64+pL6LiW/lvX5Y2lRP69HMPJelicCpaeNjI7TMuHkKx4DmqElVmLKLryr36dXPDLufb1eXwMVsNX87ZAICcl56M9DOfMmfPGspdI6gI/mcI/to/dhDMvCAhBJIAKxyzIUnEgYIlE0jYkFrYlNexxr921a6lu9Q2SKAwIynIYJ9D6Ea74CIF6L15WYm7B99s933B2XEvfnyaxBqBEyoUHBMVarNbpif03Bghs+n+Wp9JzPRDG493g4+ZvNwdHdSW0lzcdDFi2inU/T/HnzB9e8mN4jeUtycnI9EFL17p7mIORCBXKi35W0+qNfhi17cc0kr008D/zNVAgLOPxttaDbAlCpO1gDUzzmkYs/6H9lnx9SUlKqIPzovdJbHa1GAJCOwWP1pH7+5HdX/vH1/jEiK/WRRTkOogINgA5yKgjcaIsjXGnPSV2Xjp8zcj6jY8pw57lwImMArVrwaNLhx1iyr6Tb+1P+e7vlcNNA2khlQhi2Tju0pjKQiZ1qSMiN3XXbwutm6xJ0pQkJCdjtFXZkDCAsCh3Iidox8s8txRe8Nva9h2g73ZOP41BroqnvIObZgQhm0U2iSNFd30yfnd230/bY2FhbuPiNp0PYFTgQNOan+esuW/z8ypmiU+rGsDSOCnVozeaDyBIlcAbm4JjHhr5x/hW9P2+NvsZgEJYFDcTkwd/s9MVDX8/Y/b8D4yRW7gz+ZuDo5g5ynhyE4RgvJ7MVvf7W/bupT135lj5ej+fztFp/49kibAsYiIlpiy3cWdj9y1u/v8d8yNpP1sqdwm6MOBxAUwLjYWtTuidsufGT615L75KERwiGdGhQSYR94eLULqPRmPTnxqLzP771mzvlBrkH+Ju43V2Hv+nrb5SsXAK7+/Yvb3yt9yXdtkAYHojV6h3gwaDNFCpoTh3lppIX/XvZpKUvrL6GY/g8TsOocTZ4WwCONDlkWjo4/rHhnwya1v/7pKSkCiBj0BNJwgFtTtMAOfVVh6u6LX7yx+v3/3BwPKUlWUctym/3mpNmaIER2Jo+k7p/c90rk97WRetwI1mcMNJu0CYLEYjJmkwmfd3Buj4L71n2oPlg4yCiI7FAzvZr0mmK0E7amdIjaft1C66+P6dHOvqNqq4qbC206QIEcnJ1dXXxhZtKhiyes/Q2b5PUmxDf9sqBCRHtAbJklRy6TH3R1Dcue37g+P5rICxk21e3Btp8wWErvbq6Ws/zfMb6DzaPXfbS2r9xNN+d5em27m+i3+gWJG/pqDlDvhx26+DPUlJSqtubqT4Z2o2pQ5MOP3pLnSV3wY1fzChZXzacMTI46x13lGhL+cQzeDySTarKHJy+Zdr8yW/RPF2cnp7eCIRs063q5qLdkDIAJGdtbW18TXF9jy/vXjTLftDRj4qgUqCoW23tdLNBUyKxEVNkl4htd34+7Y3sntl7IPScIWMA7Y6UAQT8zb1rCocsf37tvc4GdwGE4nh6OJp0XKdu08dqdk16adw7XYd2/iUxMdF0rpExgHZLygB8Zr2eMnz+2jdztn+we6pIixnQSg+bxVrYxeMVvFWDbu736cRZY95L6JSASxHCftKEmmj3pAwAyKlpqG7o/OrQ/3vTXNHYm4tmcY01krN1QFOC1CSZ4/Ljttz5zfVPdOrc6QCQsV10fgeLc4aUCCAm5jd+/+aivvOmffqAq8x1HhfDxUMY9m+GCpJkkcyReZHb7/7v9Bc0CZqi1NRU87muHY/GOUXKAICcWnejO3Xdd5vG/jh37VRvk9iTpqlYiFJTHlgnbJoofs+Vc8e+O2Bin3UGg6H2XPUbT4dzkpQIv9Y02M327K+eXjL9j4X7xwmUkOefhaQkCPqNGpo/0Gta9+/G3z3ikyZvU2VeXl677288W5yzpAwAyImt8cia4prz3pzwwRx7tb0fMZAEIGfQrXRclsu4mbrYjOhdMxZfex9rYKva2oTb1sA5T8oA/OSM2fTD9hGf3/HNbOKhChjWd2jS2chIlholuzZdu+eur296JL9/59/ATIfqTO42jw5SHgcgp8ZcZU5e9cn6y35+Y9OdlEDnsRzdXJMuSyJx8EZ27yTwG4ddf/H3EBbWi7TCER2kPAnQ38TxdMkqdf5qzvf3VGyrvcgjCBkM69tF7kSZ0ZQsS1SThuUOFozPXTH9tWsX6GJ0uONtRyPmLNBBytPA3xjS1ZXURf3w+qo+v//vjyGshzPIokTLMkVxHEsYhpMZo2QefuvA7YOmjfgzLl2PW+aF1eL+tgWK+n/r8Pjoy03CDwAAAABJRU5ErkJggg==;" vertex="1" parent="1">
          <mxGeometry x="610.52" y="296" width="117.06" height="105" as="geometry" />
        </mxCell>
        <mxCell id="cUAh2cXA-izQVIxBllL9-2107" value="" style="shape=image;verticalLabelPosition=bottom;labelBackgroundColor=default;verticalAlign=top;aspect=fixed;imageAspect=0;image=data:image/png,iVBORw0KGgoAAAANSUhEUgAAAOAAAADgCAYAAAAaLWrhAAAAAXNSR0IArs4c6QAAAARnQU1BAACxjwv8YQUAADyjSURBVHhe7Z0HfFTF9sfPtuxmk2x6JQmETugBgQACgjRRRESRh6J/bM/eC2J/PtEnivqe+CzPpyIPFMQCIoIoPSBVWmghkIT0ns1me/73N7kbUjYkIbub3c1887mf3Jm9e8veOXPOnJk5IyGOO6AMUgVFBUnCotXyoEhfmTLIV+YX6CtRB/rI1RpfqW+gUqb0l0rkPjKSymUSuUIqkcglUrkCX662mk3W6mqzpdpsspDVbK02Gw0Wg7bKWlVmNOvKq6p1ZVWWSmEzlOrMpXml1YU5pfrSXOGrBnyf035wAXQdEj/yiwxVRvQP9o0YEKaIHKBRBPfUyIMSBGGLFI9xKYJQ5pWbS9PLTSWnCk15h0uq8g8XGfIPV1JlnngIx8lwAXQegXF+XUZEKTuPilTGJIf6RA70larDxc/cmiqrrqDImPdnniE7Jddwfmdm5bndQnZZzaccR8IF0GEEBXX1j5rQSdl5QpQqblSoT0R/IdNbft/qImP+kVx95s4LhvObz2pzNxOVloqfcdoAF8DLRxqmiB4c758wJV7VbUqkKjZZQhKZ+JlXU03Vljx9VkqGPm1DhjZ9Q6Ep56CQba35lNMauAC2DmmMb0xygrrf7G5+vWepZf7RYn6HRmfR5qRVnlidrjv6dXZVdoqQxYWxhXABbB6JoOmG9AxInNPNL/FmP3lArJjPsUOluTwzrTJ11amK4ysEzbhfyKqu+YRjDy6ATRIY3E/T/dbEgMF3h9S05zitpFhoNx6vOPjJ0fIzXxGVlYjZnDpwAayPJFoVN7qP/+B7uvn3niWTyFViPqcNWKrN+jTtidWp2oMf5+gzdwhZXCuKcAGsQd7Nv8+sgZoRT0Yoo4eIeRwnUGDI2XeofPfiNG3qt0LSXJPbcenoAhgwQDP8zv6aoY8GKAI7i3kcF1BhKjt/pHzfu4fL9/wHyZrcjkdHFcCApOBRDw3SDH/SR6oKFvM47YDRqi85VL5n8YGSne8LSW1NbsehowmgelBg8gMDA4c/7StTh4l5HDegyqIrPFiW8ubhsj1LhaSuJtf76SgCqBDMzHuTgkY9317jLjktQ2epzN1fuv21Y+UHPhaSpppc78XrBTBemTAxOXziu8GKsEQxi+MBlJgKj6cUbHo0w5C+SczySrxWADXK8B6jgsa93Vnd4zoxi+OBnNOd/nFX6S9PlBvKz4hZXoU3CqBqWPC45wcFjnhaKpGy+XIcz8ZabTUdLN/15t7ibX8XkvqaXO/AqwQwWhU3ZlzYtZ8EKoJ7ilkcL6LMVHRyS+H6e3L0mdvELI/HSwQwKGhMWPKbiQGD7xEzOF7M8YpDH20rXP+MsOvxcxQ9XgAFrXfl1RHXr/CTaTqJWZwOQKWl/MKv+T/MEbThdjHLI/Hk+WvSpOBRC8aHX/elj1QVKOZxOgg+UqWmV8CAeRZJtSlXn7lLyPLI8aUeqQH9yT9iTOT0ZfHqLpPELE4HJrMq7ZetuT/dpiVtgZjlMXicAEapYsdOipi5gk+G5dRFZ9Fmb8r/DiapRzloPMkElQ0JGr1QMDk/h/kh5nE4DIXUJ0AwSW+vllgtghDuFLI8wiT1CA2IcH5XRU//KlaVcLWYxeE0SaY+fdPWnLW3CiZpvpjltri9AMb4xoy6Ovym1WqZX5SYxeE0C+LUbChYPSu/KhsOGrfFrU3QBHX36VMiZ69VSlVBYhaH0yJgkvb06ze3xJh3pNRUfFLMdjvcVgD7BAy6a3zE9V9JJTI+nIxzWUglUnk3/8TZOkv5hUJjHkInuh3uKICSpOBRz40KmfiuhCQeP1CA076gDHVR95xulliNCCwsZrsN7iaA0lGhk95LChy5QExzOA4hVtVlgkqmCs6oOrtRSLqNh9SdBFB5dfiMr/oEDJwvpjkchxKh7DQ8WBHS66zu5FohaanJbV/cRQADro2e8wNMBTHN4TiFEJ+IflG+scmntEe/F5LGmtz2o93bWP7kHz4p5qafeThAjivJN+Ts35i9amp7D1+Tiv/biwAufJz2AGVucsxN64XdgJqc9qE9TVAfwez8EZGoxTSH41L85AExkb6xQ09rj34tJNulTdheAiidGH79Mt7m47Q3gfLgbkE+wd3PVp78Tki63DvaHgIoQVdD74BBd4ppDqddweI7YhfFL2KWy3C5AKKTnffzcdwNdFGYJVZDbs3iMS7DpQKI4WUY4SImORy3Ap31lZayLFcOW3OZAGJgNcZ28uFlHHems7rHtcXG3EOuGsDtEgHElCLMauADqznuDhREgl+vG7IM6b9XmisyxWyn4fR+QEymxXw+vtglx1NAWZ0SPms1Yg+JWU7D2QIoHRc9fRmfTMvxNBBzCIG/hF2nyohTTdCk4JHPJfoPvltMcjgeRaAiqJtVYjU6M/ao0wQQ0cvGh0//nDtdOJ5MjKrzVdn681u05vLzYpZDcYp6he2M0IGC8LX3WFMOp02gDE+MuGEFJg2IWQ7FGQIihe3M43ZyvAWhLMeMjZrmlPagw01QhItPDBjEF0nheBWBipDuzhgp41ABxEIpWKuBt/s43kgnVedxQnvwd6E9mCFmtRkHqtSgIKxSxNt9HG9FKNsylHGUdTGrzThMA44Ju+q9TqouV4lJDscrwbIIarki+Lzu9Doxq004RFthZVpvWxyz2lJNVqNVTHHcAXOVharSDWKq/UgMGHQvmltisk04oq2mmhN735+uXBYagqG9UCWm6qOOUpHct22KHcInkUkovG8I5R0sJKmP463q8vRKca8+qkAf8gnhQ2YbAuHrN7MHTbtrAr15zb/b/I7bCpbLXpH10SBht01r1rdZAIcFj3stKWjkQjHpdCB8oX2C6PVNWKG4MW/OW0pnNmW06gUZLpjIJ0rOhM6WvueHW2jElCSar3yalJ1qBAK1r2+Cku23BQjfZ9p/kNLPR8y5yMYvttLXj/zEhbABpnIzJf91EN3+4s10b8QCt/h99pfteG1v8bYXxORl0SYB1CjDe9wSfecxqUTqsl+jrgB+9PhXVJJ/cZlwiVRCOUcLSF9kqBWm5oCw3b1qNlWUaGsLPq4ROTiM+o7uQZve2kkKjZwq06voncznaeWiH+nPNSfaVANDAL8wvE071vxBKd8eIIko07j/spwKKj5V1uL77yi4owBaq62mlTn/6VtuKDgtZrWaNtlWo4LGve1K4WsIhO3MhgxK25zJNmi+usKHlwZgvkDQsGHfBkzNSqOOYntGkY/Sh/RlRvY5TM6cfQX087PbmPBBIA1kpLDYEKqs0JEp18yOw4bP7IHPcP5LUZxbQidXp9e7f5vw4bu2e8VzGItNtefDf+TheaCVbc9pw/Y5wDlwXMPvI43v1s2vS8Nj6j5nU8+NazY8V8Nj8TmOw3lt997wOzje9vvhc1y/KXCsvXO4ApT9kUHjFovJy+KyBTBOmTCps7rHdWKy3ZCppEwb2ba6mmPsA8PZy+s2IY5pOZiVA2f2ZgUSLyykZyCNf2wE+fr7UnhcKI15bCj7HC80vF8wDb2/H9vvkhzLjgODJ/SlMc9ewc45dE4/9lnDwohr4rOIAaHNFgxZYOP7x3eieoWze0EhxXPc9u8bSBWqZNfCMVfM68+e6a8//4Xt45kAvhsQ7s++A62Nc+C5Z783jX0fz4PvX7doPPvulBfGsO/UvU+b4OMzHINrh3QJYt/FZzhnw+fG/si7k6hao6o9V8NjbUKFe8N5seE75sqLQor/sD66T4wnU5mZJj41il1f7tfY4sD5ohMj2Pn8o9X1nsFVdFH3mB6vTJgoJlvN5QqgYmT4xCXifrth0AkaS1ujiWwbwIvwD/Gj216ZyQres189wPLDIkPowQ/uoOnvjiddhp66D+1CcxbMoKCIQOo+qGb/qr+MpCpBiw6bOZDmvTyLKooqqc/4buwzMOKaITTr8Wk04tokSp4xhO5eMqe28AMUoIh+oXTvO7eSOlBFFrFgNUV1Vc392jaAAtl3cg+66alp9PjWO+n6BydRwoB4iuwWxoTn3SMv0R1/u5kkPhJSq33ZteZ9cQMTVlwvJCGQPfutn19Pd//jL+ycY2cl0+Ldz1Nwl0B6c88CSp46hH33pieupVd3PE4VGTp2HO4/rFswvXf8ZZo8bxxVG6vZtRfteIZ6XNOZdLl6GnrdAHpg6e21jjD87l3Hx9H8RbOp/5j42mc25BrZ7x0SF8jeE877/slX6Oanr2Wf4/rzXplF76S+QJqoAPb8OG70rKF042PX0ILf76cJc0ez60PA6oJrosJ6ft3DwntIooqsynqVrytJDmdhVuQ1qdZxWQLYXzP03mBFWKKYbDcSJ/SgAXN7Me8YNtSaNiG0MXBsInOkfHT9ClqYtJg5Oa69cyL5JfjSrk8O0JyIR+jCmVzaujqF7o54lt4a/THzRFoNNYVIST60dsFv7Diw9LEv2HGfzVlFq99az8zSLhM71dbgEMbpT19NeecK6PjyNFZImkKqlDIHDzQWtmChoNqE0GoWNEGXcNLpqtj1Xuj7Np3dkckK4jf/WEfz/B+nf0/9H7059iP6+s0fadwtyRQ+JISqTRe1QNcBnWm+/9PsOPzXlVXRW/ueo93r99PDCa+w7748aQm7TvL9g9hvB6F6+ZfH6Myhc+y6+N2e7ruIUn7cT49+eBfJhCKz9X+7SSPcb8yQCHa/MMnHzBrOrjlkcv9aE73vbd1Z3sFvjzNt9rffnmTntd37O2P/Q7crnyCjwUgPf3V7bSWAZ+4+uAtlncyhB+JeZM9ecqKcfQZQaUkFYfvniVfp3LFM9l6d4aluKZCFvpqke8Vkq7icu1YnBY16XtxvV1DLP/LBnbXbfW/PY7VuXf77/DckDZAw72VQpwDa9M+dJPeRsS4GmK+hFEhS4VdAG9DPR23Xy4kGf5AYQNk/0E+orf2ZAJ9bd4HKC7Q0bv4IMhXUmFcwKZMm9KeN/91OPqFNN48tJgvNuG8KK0SLdj1Tswlahpmg5otC9MNrm9h943oQZm2OjrZ+sEe4j4saYctHe9j/0N6CANf57mdPf826ZfBMCqGCPrD5CBkqjbTynp8oOF5DmgQ/Orep5hl6Dktgvx3McHhn35/9X1b5oGDj/5ePrmH5iXO7Ueqys+z8A6YJ5rogWDgGz7zm3fXsv9DSJkuxlQnlmYPnmGCNe3Y4+90/f2Q1ex7cE9sEs/jTZ1dQXO9O7H4gXDZ+Wvw7u088u0R+Ubuhsnvr4EImfK+PWMqOaW+GBl0Jb2h9Nd0CWi2AAwKH3+8r84sUk+3KgtFvMu12V9gzbHtiwGvsZdUl93hhbfsBhbv0wsWatK0oAuX02+odlHzdEDIbhVpfMB0Hz01kBfX3N3bbbbfYkClk9P2HG2jByDfphfGL2YbngRDbCpvZaKGMnTn1andcAxXHtJfHMfP0nfSFzCQF8KLWJfvXgloNjIoBmqa0oIwVYJu5BmFBPhBaYpQwMI5dd87i6XTfD3NZOxP/5707kx0TERfGvnNs5ylKmtSPOa5iJ9UUh41LdrBnjx4exn6Pvsm9aP/Gw+yzrgPjmaBn78+v9zz4jc7vymbX7Du1B/seTFMcm7e/0K5Z+bfUxyg/q5BeS/pXve6j9gQyMTBo+H1issW0VgADBgcm2++AaweUah+ShUjZS2TbJcw9ZwAB/OWt7azQwdxCe3HKXeOYuVa3kDcFzNyiI6VUkllWu9X9TmmdLhYAs677lHj6KGsRjZpxBeWm59O6T3+llyfbb45DUBoik9f/jWBS1gWWAIBQoo1dd9uyMoXyzhQyE33PuoPUd1RP4Qpmmnr3ODq4/SiVZJQz03v4TYMoZHAgM1NZN46gffGuSgThb3i9pigrqv/sNqBFo7tGMfMUz+cOwmdjkCb5WeGff02qZbRKAJOCRz3kK1OHiUm3AG0BvIT2eBG4JjyNMLPG/mUEM4XQdtmybHdt531zSASFbbv/hs9gMQvars4rgok49/kZTPugDQdTcte/DpJZX7/d2xZKS8qYefyfO1bRl7d/12g7l5LFKp69X4uabVQc03T71h5mpuqfW4/T4PH9aMh1/ZkwwqEF7Zt3oYCiOocLT1O/yEHj+0UI5rUgWBX5lbWfG6rsdz1AU7527fuszXv75zew399dgGwMEmRETLaI1ghgwCDN8CfFfbfAnhfU5sRoLajxYf7YnClNoVDKyVplrT1OGeVDGz7dwkbNXHX/CCrMKqajq087xSkAExG1/+nDZ1lhh/kFE3DiQ6PEI9oGhD31tzSm0QfP7cPycA1FuIxVFGhL47lsFU/miQvM4QTttm/pUfLtpKRdyw9Ql75xzDOZ8vN+pi3l/jI69F0qOy+6duCtxXvCbwinz+jbhzLBwu8GYW2Os5sy2YinSbePZZ7epob1tQdJmuFPCf9avOJSi0vJAM3wO32kqmAx6RbAC4o2F/qasKHvDX17l3L9Q2PWBTVuSX45cx5EDA+hhHGxZClr/H0UTgjX6BuHUXBvTW3flkwokAeXH2dtltnPTKefP9nCHAvNgRq/ORqaizDlTu5No6nzxlOXazsxz+mNSyaxrpG2YDM7odlSV6cxDYuum6S7Etk10AeINuezm+5jwmM7du+GPyl5+hA6uT+N5UE44dSBBoUlcGD9MSZ8yIfQwDRHt8SVC4ew8wbE+rH7hzPqy5dW1/vdFMqmLQh2n8vOspFQEEJoQtt9tTeQkQGaK1q8ynNLBVA+IPCKx8R9twDePPQnoZ/Ltt35xhwaOq0/01AAtao9kG/W17SPYCqueW0DBQT7s36yOc/NoCrSk8lgZm0Wm0kETfef51aydg+Ou+rOZOb5hDaAwMK1j/Pu/HzfJZ0vAMIMgcU16nr36mLUmam0oLz2+kAV70P/uu0LyjyVTa+ufYJ1KaAt+Lep77PzVVtrHDhVej27l7rmK4B7H+esq2VYBSQ8p7akRouo41X07qzPaoXF5p3FdaDpFYJGBBCCXSsPsOts+3pPbT6EDd5WaMeMdRcdSHCOfTrva+Z4wnAy3Dt+x6vnjqF/PfA57XhnPxt1hPvHvZQV1n92iUJCZp2FtYtxDDyoKUsO0WcLvqbxc0bT1DfGsIEC7kB/zTDISov6BVvUcOrm3+eWieE3rBCT7Y7NdLGHbTYBTBy4vwPi1fXaVrZ8/06+tYXDdj647NGHhZeLl2ksMtXzqsLERTsM3QvmIgs7DsAc+9uxJygnI4/1b9nyLwW+g/Og0NmDjTqpcw0buH8MIoAAoCDiHmH62e4fjijb88CtXxdjsYlVFg3PCe0BobSNr8Q19BlGweAVjhXOjb5N7KMSquvosv2WDWeg4HiY8w090gD3ALMZvz+aD9iH5qv7OzT17Lbfv+55cSzamQ3P0d5sKvjuljRtKtYdvCQtEUDJzJj/29sRVrFFgaorrE1hOw7/0S0QMTiEDQ5HN0LxudJawfYGWvqbtBZnndddyDfm7F1z4b8YnXBJp0SzJQUr2HaUJaRbWiBswof/GNr1yCfzmSe0YZ+dN+AsIfFm4QMRPtFXxKjim/WONVta+vh710x3RwET7Ylv72ZtGaPeSItnfMzMXQ7HRu8WyE4z1VBg8N1d7s3mC6s0BhoQnrxquZWKD5a7zYgMjvtgqTbrPzn3UQxRWYmY1YhLasB+mu63cuGzD4StokDLxmbCk8qFj9MQyE5/TY+5YtIulxJASWIAX1jlUkDouOBxLkXvgEGQoSYLSZMCGKaIHoLF68Ukh8O5DEJ9IgZAlsRkI5oUwJ4BiXPEXQ6H0wa6ByTeIu42oikBlHbzS7xZ3OdwOG2gh18fyJJdWbObGeMbk+wnD4gVkxwOpw34yTVxEb4xNUGFGmBXABPU/WaLu5wWgC4JbBgChq3u7Axbnu0YTsekp7qvXZmy552Rzot/OIuv72cfCBGL4lUh/DfWDP7FeEnfCBWpQ1UkV8nJV6UiqW/NT1tZUjNmVVdQRZX5VWzcJcZVyn3kbHoPBm5zT6r3o7Noc77MeB9WZb2pNo3ePDw2s2L/b5+Y7PBA4DC9CYO0ITgYQI0wgAjdEJUQQV36xNXMzFfILjnFCLMGME0Hcxgx+yD9cAalHT1HJzaks9ALGPkvD62Z2c8F0jtZnfXfIYWmnANiktHoTScFj1w4LGjca2KywwLzEUKHWQKYc4hoXz2SElgUNEeDqVWYU/fn5lQ6/NMJFjcFo/u5MHoXf5RuXXigZOfrYpLR6O3OiL5te5QqbrSY7HBgugwic/W8qTONuzWZho4f2KLJs44EA7u3fbOHUj4/yCoBzAPkguj55Ogzt/+Qs2yMmGQ0eKtBQfcm3FeI8R1iRocAZqYRJqZgamJiJ4LBOkPTtRZoxpS1+2nlM2vZHEC0Nb1ttkVHAm64j9IXhQq7tRGn6glgV//eN04Kn7laTHYIoPEQNmHqwrEsYO/lajsIC9p3iC2DYEp1QWgJhH1QB9YEH7ocMEP929d/psI9pVwjejAbC9bceFZ7Yo2YrC+AV4ZOXtpXM6TVsQ09EVsbDxpvxoNTWMCgloLwD+dSM+nMgXQ6tS+dCs+UMA8nmzkOhw0JbUexhweBlBDLBQ4W/3g185TG9Iykflf2othe0SyAUWuEEpG9v124gc0md4cVgjit43j5vqXbijbWrJUgUE8Ab+p0158YuyYmvRaEg0BQowf+OY+FZW8JaJchyOyhtals4i2ECg4aqa+wCdoIGqk5rWTrC7TorbXdGPB+9p6bwNaa6De6V4tMX2jbz1/4hrYt2dco5AbHvSkyFvy56sInWNiTUffNBf414TnMW/LatwntBC11x4obWVzJ5kAUtG2rd9PPb25jsUgQh8UW5cuRQBsjlDsEEhUDAt1eMWVQs5oR0csQ6r3kXJlbxUPhNI1QBVuFdiCiC7IQ7bXCFufXZfK0iL9sEJNeB9p6Id2D6MnVdzer9c4fv0BrP9jEYl1Cy7EASC7SMrZKAgGJJj91JQtBeCnzGNrw3fs+ZWH6GgYx4rgnP2WvmJxpSN+I/doqtlfAwNtjVPFjxaRXAZNz6J396NlV95MmtOnI4Yjk/MHDX9D/7l1LxZmlpAxXkMxX1mjNBWcCQVcEy5mpmvpTGv340q9EkVbqPjBBMHUba15oydE3XMGOObz8ZE1oPxfeL6f1VFhL07OrMrZgv1YAk4JGPqeRB3cVk14Dhn5d88ZYmv/6bLsFGGCUyvJXv6ePZ65ki7cgzJ5U0b7ufggRhB/CeHxVGm38chuF9Qqm2O72Rwj2vqI7dRsfT9vf20dyjWsrDU7rsJLVdEp7dBn2baVMEqqIrG0YegsIWf6Xz69jEaubAu0orFC05b3dzIRzx7YUQl5AI/5z6pcsJDvMTnsMGNOHXjn2GOvTxPEc9yRUcdHRyQTQj/wi3W3RlbYC4Xvwh9tY6PKmwMKWr49eymK7uLtLH6YpAu2eXn+e7gt5nlUc9uic2In+kYZFemq8rhz3w1fmFwGZwz4TwFCld4WeQJvv7hWz2boF9oAGefG6t+nnZ7exQu1JbnxoaERgQ8WBBTHtkX02jy2cybsn3JdAeSiTOSaAwV7U9wfhm7Hk6ia7GdC18Gj/Vyg7Jd9jvYY2bfj9Y7+ydRXqsnvDAVo89hPmueW4L6GycCZzTABDfGoSng66GkY9lkQzH71GzKkPFgx5Mu515ur3hn4zrJGAlZmwzjuAWbpk6mcsn2s/9yZIVqP02Fu6PnJeSrQ61u6UeU8Bndmd+kfSyxvtL+IE4Xtl9PtseWdvG9CMBUpik6LY6rVo93Hhc3+yCs6nrNMuH8lKYpA8KIHleigodBhJ8uBnt4s59UH/3gt9lnil8AFo85zj+Vz4PIgAaSCTOZRGpUpW45HxVLBE1t2rZtsdR4mB0y+NXcJc+d48lQfPxoXPc/CV+EUJ/5TSIFU0djwWmF/95/Zo0uP5ztxPWEgJbxY+jmeSEJ0QJQ1SB3ls8CWYXJhVcP8S+6YnljDO/COn3uKRHI67EBIeEiUNUwR7rPmJJcKmvzueNOGNx3diAium6/A5cxx3JSwwMkqqlPsGiWmPAtoP/XiYxd4QtPuwHjlfr8/9wXtsuHUUAgKDAqV+Kv9AMe1RQPvNe3em3TlzSx/7gq2f3pGdEujrbLhdqnDjM7SnMZABw/jqbshDH6sjQHcRplvhnNjwjoLjAms3xFyte03ct7cS7BcYKJnR65YXIqsSXvWkwmqrKT/KWiTmXOTwtlQ2EqTuQv4dDfw2IT3r16sIGFx+QUv6IkOjigkzRmBNjLt3OPUb3Zviesaw+DVAV1ZF+VmFdPC3o/Trkp2X7cyCMCHaXI/pnSn5xiRKGBBPnbpH2a1AMVTwzKFzdHLvGdq7+ghd2JnndQGp8HsEzpK+ILkl8c63ArURT3qSAKLAYJaDvYHWTw19ncpzKzq01xMa5t2sFxu1jZe9tIa2frCndhQQtEvVBQPNXDqpRQGp7uu6kAl3a8oKtKq5yMJi70ydb7+93hwIB/LZ019T1q95pI5XeYVlAwGMvz14sVTl41kmKAoAooKNn9M4dCkcLyzKNO9yYNHZLgVMQU1UAL2VvoBm3DelWeHDnMnWgPcEU3LQ7D70fv7LbErY5Qgf6D64C72+6Rm674e5bJC5t5ilAX7+gVKVTHl5v0o7gTbCqDuG2i0wP/7jV2aqcC4NCjC6Zl7b+mSLg1K1Bggf2uiYDvbgB3dctuA1BH29rx96iq3DgQrE0/FT+/tL5VJ5y+PxuQFVQhtm3JzhYuoiGIiMtkJ7aT8UOhRsaaGh0YZ8fO4OVJuryVRgoZd/e/SSsWZaq/Fs4DkxIRgTg5saHGED43PRZt+yMoVZL9hgbl7q2qgw3ty+gGTCe/Z0TSiT+SgkDw974XtDrvl6T7Cr8YOHdAmiRTueEXMusuimD+jsjkyXdrqjsMlKakw9Y2IYGXpFkzE2nMzB/mQNUpNEbyKJzkiq9FxSCptqVyY71hLs3MC6aANiUm7DoXloA6579Te6b8XcRtO1IAwbv9pGe5cdYVG4AUIm9pqVwJwmydcNoefHLmaTl5u6d5vwLTr5VJOaFeNyN/53O21+dRdb7AbXsFWaeL/4QyzVAbf1pFuevZ5NMLYHzrOg11tsbqQntgnRBhy3cMj3ksdGvPyTLttwjSc8BG562svjGk03Qr/fgxEvutTzCc0GQSq9dTSVjBlExrBAsvpcutNflV1IAUfOUPDqXeRzvJCsYc4xl5sSwM8WfE3Hfz9Ni3c/L+bUgMgAPz27hc0hbBgBDqYeAhiHDQ9iwYcvBZxjT+24h/qO6inm1AcVAASvJZHm4LwxFplo4ouj6bZXZoq59YHm/HzOtx45rxNlefxLw36SyiRyj5kYhwb4FVMGiqmL7F6/X2gTuuYxUMtL03VU9NB4OrlmIeXccjUTPiA1mi654biCySPo1CePU97z1zEhdqVpajKYaNbL9SsvWA6IDIDKC6OGGgoFLAoUcG2OTsyxD4RvxtKr7QofKsgFo9+k39+oibtj7zoNgacW9wSBxT3aA1o85upwjzVFFUKhlQp4xFgtFFSszRfXu7FJcmDTUZKFOL/thxeNgnP2+0eY4AEIVmuwCWPB1GQ6s+pxqtaoXCaE6gA1jZiSJKaIBXg6s+l8izTIpQQGWhKCAG9qQ9Cn98zwRVSYVsJmpLQW3NvpH883mvlvY+7LN7CuFE9EIfPxHH89vJ9waTcEL/jE8nSnt/2YkAT70tkPHyBd15hWC15D8H19TBidW3wXO7crhDB5xkXhg8Pj8LJTDhkrCxN1/j/sr2r+yowlzJxsy/uB4P6x9DBz2DQEGhea0lWVmKORWq1Wx4wxcjKY9YAFTRqCERNouDsbOFsgLBCatgqfDZsQZi35v1pnjjNBfxqAl/GLh751yFhZaL8+t3WtPXddsJAMOs8dEf4D3UvLHv9OTNXnhpcmMeePp2GyGI1SS7XZI+4c6yb0GdFdTF3k9OGzTg9AhLZa3ovTHSp8NnA+be8uVHLvaHYdV/Dbih2sn665dlhLwJoZ8FY2BJbJN0+sZyNXHAE8pRhkYS8cY9KE/h7ZDjQJhVpqsVrcXgPCvMCLDApvPGjnxM40tkKRs8C10cVQdNUQhwufDZw355aJZPRzjSNp0z93stFEbQWFPvbqSLtdBT9/+RuzWhwh5DbgA9iz7qCYugi8vfDSepoQWs0Wk9RabXF7DQghwOBiex3HWJsPnbLOAqZhwf9NbLaLoa3g/JW3jnC6FsTCM9AkjhAMdOiPE+7ZHr+8tZ310TkSrJmPbhR79BjZhS375kkYzGaz1Gw1O7/x0UasggBiUcuGwL1dkVUpphwPBN/cWUNlQ3s7TfvVpWS081cH2L/xT4eZ7AajkQaOTRRTF8FoFttUI0eC82GFYLz3hgwY14dpXE/CYjGapHqLofHTuBnWKiuFxzcOuIQBx+h0dvSLtgEBrBzdy+naD0DA4V1F5zyu6yxO7kx3iMmOe/QNVdod8XJ463GntcvhcCspqF1ivRZNaADzE3gSlTqtVqo3ahs/jZuBeWSRnRu/6CptlVM9oPJyE2kHNXb8OBPdkC5OFcDU1WkO6bJBoCt73ULg0OZUp7XLMXQt+0yumLpIWCeseelZVFRqywQNWMlW6nRn0LhWBTXuLC4vcp75yaiwkCEq1CXmpw1Dz05M8J0Bxk9inKUjgFUS0yNCTNUnY10OVZtqZtg7ekOFa9A1bjWFxoQ47NlcRVllWZlkUrfrH04wJb7nLDPOEWCY0+Nb72TLb9UFnckfXb/CaWMBMeTs+L7XxJTzgakbtnU/RT33bZvGiTY1FhQu/LdGf+yQ3wvv5N4f5tid8WCvjeZIlGqfRg459G3ernyCrZnhCRiLTSSbon1YWql3fxO0vTCE+rik/WcDmrZa5bzrVVQ4VjDQ7rIH5v85c2tqGhXapM403x1NiaABpQZzVamY5tQBLxKh7F0JhN0QqBFTjic3PZ/NRHAEMAU1oZ6hbdyVirLSMmmhqSRPTHMa4M5mOac+zYXUcEcKy/JypaW60hwxzWmAq80ZmKDKMuf5xCpydSxcozPBEDR09rtyw2Ri9D1KFJ4VirK4oDgXd6u8N36B3hOdMI50KtgDTpijh990mRfU2U6YhlHR2gI62v+e+kSj6WEQiPv7vkih5PpYX54UihJOmM/K3mKNHIPeUun2ZqhO13g2tn+wH2uLOBPMYnclipwScc+9QX9cSX5jbR0cHkhBFMCEwdWbJ1FVXYnOTANrkZeaS9Px312B4wAOhIb4aXxZQXAaATKSl2td6gn123+azBrXXe9yweyE4uzG/jt4KTnNU2EtYzLHSm+5ubjxHA83Au0WtF8a4qP0IXmocxvfAYfOiHvOB6au/GiuR8Q1lQgKpzjXvrZGX5wndQe0B2XWGpljb7rYWHAY/90VNK4vpDX2FSF8un+82mkvG0GX/Hced1kbMPhgqtNGwTgaVIqleRViqj59p/ZgQ9U4TVNqyWcyxwSwxFiTcFekMgmVnWvciQzXc2S3MKe9bDimlFsvkCqrwOlmKM7vv/2YR5ifAFODUjelian69ByWwJYM5zRNkaVG6TEBLDLkH8F/dwUmWf7RIrtDnLoOjSOMS3QW5k4qCl+zVUw5Dxay8MtDHmF+AlRO2fvzWbdDQ/oM7+6RM9RdSZm5iMkce9uVVJlXZdUVYN9dQUhCe9NQ+iQL5k6Z8142BCLguyPkf+Kc07Qgzhv16U9M2D0JBcnp5P7GWhBdE9GjPDdcoLOpslTmQ+awb6tuq4uMeX+K+24J4n5iuaqGdOkjaEAnd0WgLRj76kqntAUhfOE/p5D/Lyc9RvvZgAMs5fv9Yqo+kx8cw/ojOY0pMl1s8tW+8TxDdoq465Yg7ififzYEbm/EJXFmbcsGKZRUUfwb/3OoFmTtPkGzRj7zvdOiZDsTtAP3fnnErhk6euYwCh8SwrWgHfIMWbvE3YsCmGs4v1PcdUswiRTxP+0xdFp/Mmudu1oOtBO0VPenPmTptgoivh+86wh1ufNjsiZ45lLaqJiw9l/K2sZaEA6yO96bRdoLlw5n3xYQEtETV0nKrcyqlbVaAcysPLdb+Of2nTcY89cQhKtHG9HZQEuhn67nHW9fdpvQ9p24pd9Rp6dWeKTmqwuiq3393DoxVR8EzZ3+xng2bM2RoNsJ5xw4szfbPEkIq6nammlIh6wx6jY6yoqM7u0NrWlzHBBTF0GjP3JImEvMHWhCSbmeutz8IXV59QvWdwcgWLbNRt08bD6FZRS98lfqNvlVCly+1+OFD0ALYqwugvDaAwtzYoEVLNbpCDCGEkF456+4ia09qNb4stn3nkKxsRAyVjuGr94wklCf8AERypgrxKTbIZVLKOtIDl37yAQx5yI+Gjnt/+9RUgQ7P7amRCqh6mAFyc4XU+CPhyn0pxTyO32eFLoqUmfnk6qwmHxzC0mVkU8Bx9MFU/MwRf9rLYUv3UzqP9JJGuxD1Wrn3aelwkoTHxnNCmddDm9JpfN7L5BM6VhnD37zg58fp/EPjLQ7WXbgVX0oIMGXHYMS19rrQ+OZSs1kLrbSVU+OoEdXzqdew7uxzw5uPkaZB3Ic/kzO4lxl6przVWnrxWQ9DUgXDOc3i7tuCWpbmB72oiNj/TqsIeDKIVDQhtBiuKYq5SxFvraWzWSIfnwl22BiRr76IwWs2EOynHJ2rDdoPXsoouS0eP5HYqoxWM//zfRnqPuUeCpOL2MeUpiO9t4X8vAZtB3eN6J4T1owms3wwFJlnjzeNMuQUU/G6gngWW3uZiwTIibdEmWUD639cJOYughq3slPXumStmBDUDHYhNHexsxWeFK9GDjJLmzPYysuNQVCGD771QP0Sf4bdMvH01j7LUAQJggaTFRs2Ede94nxNOWFMfTigYfp8+rFzJRtOL0KKOqY/O4OZOus9kQ9AWxUKmZE37Y9ShU3Wky6JU3Nd4M7/F7/55hjwNsL/KVwxXzApsC1k+5KZO2zlmBbjtpiqvkvU9S0iloywx3ffWvuv+lcShar5NydHH3m9h9ylo0Rk4xGd52hT9sg7rotGIn/8ydbxNRFoAWnLxnvkSvleAtoBhxcfpxenrSECrOKxdymgaBhw7vDZks3ByLiPdT7RbYsuScIH8jUn20kW40FUJvu9gKINe02vLrNbgfw9Psnu7wtyKkP3s+FI3n0SNyr9P2HG+y+p8sBGg9rBD454jX68Prl7B07e11IR5KhbSyAje5eZ9XmJWoG36OQ+tiPOecmSKolVGnRMQ9bXaQyKcUPjqGt7/1BPsGe0z5wJEJbg7qMjiV9hYGKc0vZVlFSSYe3plLeqSKSKpyvMXANZbAPHV+VRpu+2EaVxkoKDPMXttZHfUPf76Yvt9GyJ76jTa/vYEMPlWFCM0PqOc0MnUWbk1Ky+Wlht55msPsEo0Invd9fM/QhMem2oP9pceZzdhvnWNIYppAjVoD1RPDbNBwjCwdWe2gMaCo4x/RlRjZZ94rZAygkPpAiO4VTTPcotna9Qqlg/wsyi4TKQkuZp7Mp/2QxnVydzp4Da01g89S2/dHyve/vKNr0iJisxe7TxPjGjJoedccOMem2wFXdbUIc86w1BGbPI4kvs5fvKW2EjgDrYqi0ULW5ms1iaVhJIMQIQpBgwi/isnrLu1uT+/mo/Krs2jGgNuw+XXZVdkqluSJLTLotqM2PL0+j3Rsaj45Bg/7J7+/x2AX8vRVoMHhhYZkgml3DwErIw2c4xluEr9JcnikIX+3ws7o09YTWtMrj34j7bg1Wzv34+pV2G/pYtxxDlhw1DIrDuRxOV6ZCluyOk2yyQVBl1hfDGSMm3RY2LEz4y87JpWHTGi9w2aVfHFkDzHT0m9Md1inDaV92FG56RGfVZovJejQpgMIXcrr69ZrpK/NrvDStm4FxgOc2XaDg3homcA3pO7In5ZcXUPrPF1wyVrQ9wAgSmHcdeQCCO1JkzD+8r3TbS2KyEZd0iUkkEnm8uvtUMenWQLulfHqQBl7fm0Kig8TciwydPICKDSV0et05r9OEGC+JaT/aKh2VpVV4zMDkjsDB0p2v5Ruy/xCTjbjkmzpafuYrS7VZLybdnoB4NS26ammTIzDmL5rNpsY4en5aewGPIp4F7dyZj15DC1c+REHdA9hClpz2B7JzpPz0cjFpl2Y6hQz6IHlo71BlxAAxw61BexAm2L51R2js3OF2hzSh414SWU0Hl6eSj0bhUZ25dcHcx6osA93/8600esYwlofnHTtnBO1at48MJUZujrYzZ7SpK9J1f64Qk3Zp1lZJ1R78WNz1COC6Lr1QTs+PXdzkEKgZ902h53bcz/qjPFFboL2niQqgdzKfpxFTksTcGtD98nc24KJGQ3LajxMtkJ1mBTBHn7mjwJCzT0x6BOgfhBAunPCPJoUQ4RLeSX2Bul0Vz0aNeAI2k3PY/AG0aNczdkcAgZ8++ZUseivXgO1IvjFnb7Y+o9k4S82YoDUYqw0V3fz6zBKTHgHGIupy9LRtzR4aOXMo0wwNQd6VNw+joN4BtO/TI+zXcFcHBrSe1WClxzfeSdPumcDGvNoDU47WP7eFVFHeOfHXU9hV/OsTJcbCxmH8GtDSKlJ+a9yDaf5yTbyY9hjQVsIctVeOPUadE+uvZVcXaMrPX/iGUpYcYrO73WWUPUxkRB6b+sYYuvGxaU1O1cFMgbfv+ohSl5112nqJnJZRYSo7vzzrg+7CbrPtm5aWMitkNU7ddYqY9hhghsk1Mvp10U6m6ez1EwIUbHRVDLmlL2Wm5VD2rnz23fbQiDA1EQMF8xqH/3UgPbpqPg27ZlCTWg9e379f9y/K2J5DqpjGmp7jWvaXbn+5pXF2W9NICJjf+fHzPlJVsJj2OFj76f4B9NcltzU76RPLHm/6Ygdte2MvSztbK0LosMiMSRA6OJImvzqaJswd3WQ7zwYmpmJunG+nmtAXnPbFaNWXfHb+nc7Crv2loxrQqlZ6UvCo54YFjf27mPRI0JbCYN8Hl93OHDHNAdP0wOYjtGXZbjr943lm0iI8IqJCt9XJAaGDJ9ZYJNxTqIIFLBp3azINHT+w2QoCC9V8+MSXdGzZGTYeljtc3IPdpVufO1Syc5GYbJbWvjX/2+MfTfeVqcPEtEeCgq/L0DNtePc//mLXQWMPFPpjKScpNeUM7Vl2qHamRd0pNFjLkOWJAmEVrmWLW9lwCg5G/w/9Sz+6YtIg6jWkW4vvY8vKFFr+2A/svM6M78JpHVjg6Ivz73YVdhsv49UEra42BwQOf3JkyIS3xKRHAwcHtM+MJVezUBbNaZ2GQCDzswrZJNKM1AtUWVpFFeVa0uVfHDwkURL5BqooQONPQZEBFN01kk1Cjeoc3mKBs4FwjJ8/spry9hdyreeGpJRsfvLP0j1vi8kWcTlvUH17/CNnPWGQdkuBl1QRLqOpC8fS1HnjWy0YzgZxUFa/tZ7OrbvA23puis5SmftlxnuIFtx4LfVLcDleBZO12qKPV3e7Rkx7PPCSguOr0+inN3+jcnMFhURrLit+iaNA2/O3FTvo0we/pl/EAFQsDgrXem7J7pLfni0w5DSa8d4cl/s2FbNj7zkUrAhLFNNeg80xUlVkoJghETTxoVE0cGwiCyrrbGDSHt9/ivatPUwpSw+R0seHaWau8dybIkPBsVXZn2AyaqvHNV52dRqvTJh4TcycjWLSK4Ewoi8Onk+s+Drouj7UeWAsJQ7p6ZDw6Og8P3csk47uPkGpv6VR2u8ZrNPdnQYCcJrnx5yVE7P1Z38Vk62iTfbM1Mibfuys7nGdmPRqIIQYXwkBMQkVHaJ7dR4ZQ526RVNk11DSRAZQWGQIi+4FpHWUlqHKRLqKKirOLqW88wVUmldO5/64QBd2slWKWbQvqa+UZIKm4yamZ3FOd/rHDXmrrheTraZNb1ujDO9xS/Sdx6QSaYeL9WDrOEdXQN3uBXRJNMSWD1MSUb29LeJXR8VabTWtzFmaWG4ob7x2egtpk51jsOiKZRK5MloVVy/efUcA8wgx4BtD1WSCuYhQF5hpj/8NN1s+nD04Ft/hms7zOVC+c1G69tS3YvKyaHMV/EfJltfKTCWN1wvjcLyYMlPRyb3F29o8KswRNpB+S+G6u8V9DqdDsKVwPcp8m8O1OMTVpjWXn1fL/WPCldFDxCwOx2s5XnHoo2Pl+5teCLEVOMwLsK0w5ZlKS/kFMcnheCUo49sK1z8jJtuMA91wpaW/5v8wp5qq7UYA5nA8HaFsWzbn/3iLsFtWk9N2HNrbK5iiGdWSanMnVZcJYhaH4zXsKd32/Gnt0f+JSYfg8OEWOfrMnRHKuORARRAGpnI4XkFmVdov2wt/vl/YdWioOWf0BFu35f14GxYkFNMcjkcjlOXsrbk/3SbsOrx55QwBJC1p8zfmr+HtQY7HgzK8Kf+7OUKZLhCzHIrTRvyia6JaYrUI7cHxYhaH43HsrWn3fSUmHY7TBBCgPRjpGzsyUB7M24McjyNDd27jtsL19wm7Tgsx7hQTtA7WrTlrb+XtQY6ngTILX4aw69RmlLMFkLUHfy1YfZMnrbLE6digrG4oWD0LZVfMchpONUFtVJgrMkuMeUe6+SfOlpCETwPguC3obN+Q/+2s7Krzm8Usp+ISAQSlpuKTOkv5hS7qntPFLA7H7cAg67OVqV+LSafjMgEEhca8g1aJ1cRHynDcEQTVPVa2959i0iW4VAABljtTyVTBEcpOw8UsDqfdOVy+9729xVteEJMuw+UCCDKqzm4MVoT0CvGJ6CdmcTjtxpnKoyu2Fv58r7Dr8hVN20UABarP6k6ujfKNTdbIgxHKm8NpFzL16Zt+yfv2ZmG3XZZKbi8BBJZT2qPfx6u7T/KTB8SIeRyOy8DKzz/kLJsm7FbV5Lie9hRAYMysOPNdlDp+PBdCjiuB8P2SveoaIxlLxKx2ob0FkIQfQJdacWiFYI5ewc1RjiuA2QnN197CB9pdAEWMgjn6dbAipAd3zHCcCRwuYpuv3czOuriLAALLWd3J75Qy35BIZQzvouA4nKPle9/fUuPtbBeHiz3cSQBBdWZV2gazxGqI5Z31HAeyp/T3BX8Ub0U/n8u7Gi6FuwkgI1efuaPSUpbVWd3jWj52lNMWMKF2S+H6u46W7XPpCJeW4pYCCDBsrdiYeyjBr9cNUomUr8PMaTWY1bAp/9tZZypTV4pZbofbCiDAAO5cQ/qWON8e1yikPm1fD4zTYcB8vp/yV157oer8ZS0b5io8wrzzI7/IcdHTl8WpEiaKWRxOk6CbARPBXTGfr624tQa0YSJT5Wnt0eVWicUUo+o8jrcLOfZAew8xXLYVrP+rkYxaMdut8biCjKXQJkbcsEIt8+cjZzi1IHQgopfl6DO3iVkegUdqEn/yDx8bNW1ZnG+3yWIWpwODoLmI2+ms0IHOxCNM0IZg+Npp7bH/ob+wk6rzVdwk7ZggfMQfpVsWbivccL9QJirFbI/C4wuuYJJeeXXE9Sv8ZJpOYhanA4BVirAYkGBybhezPBKP1IB1wYIwh8tOfaaWK4LDlVFDxWyOF3O84uC/1+b8b6bw7j1+ZWavMt3goBkXds3HgYrQXmIWx4vAstAImuTpWq8uHq8B64Jw+EfL938qkUooShmbLJFIvOr5OirWaqvpQPnORb/krZkrvOOzYrZX4LXOC40yvMfIoHGLu6h78DCIHsw53akfdpVufLLcUH5GzPIqvN57GK9MmJgcPvHdYEVYopjF8QBKTIXHUwo2PZphSN8kZnklHcV9L++rSbp3aNCVL/jK/CLFPI4borNU5u4v3f7asfIDHwlJt5m35yw6igDaUA8IHH7/4MDkZ3xl6jAxj+MGVFl0hYfKU974s3TPh0JSV5Pr/XQ0AbQRMCh41INJmuFP+UhVwWIepx0wWvUlB8r3vHWoZCfm63nE+E1H0lEF0EbAAM0V8/trhj0WoAjsLOZxXECFqez8kfI/lhwu3/sZkjW5HY+OLoA25N38+9w4SDPiyXBlNO/MdyIIB/inoPHOaI+vEZJe38ZrDi6A9ZHEqOJH9fYffE83/143ySRylZjPaQOYmZ6mPbnqhPbgx9n6jJ1CllvFZWlPuAA2SWBwf02Pub0DBt0d6hMxQMzktIIiY/7hExWHPjlSfno5UVm7x+B0R7gANo8kTBE9pHtA4i09/Prc7CfXxIn5HDtUmsszT1emfnOm4vjKQlPOfiGLa7tLwAWwdUgjfGNG9FT3nd3Vr89Napl/tJjfoUH8lbOVqatO6Y59nV+VvVvIcuq66t4EF8DLRypoxkHx/l2nxKm6TolSxY6UUMcYe4p5eLn6rF2Z+rMbMrRnNwia7pCQzYXuMuAC6DCCgrr6R42PVcZPiFR1HhXqE452o1f8voi1UmwsPJKnP78zy5Cx+az2BNZPL6v5lNMWuAA6D02cMmFElF/sqEhl7MhQn8iBvlJ1uPiZW1NlqcwvMuUfzjNk7cqtzNqZaUiHWVle8ynHkXABdCEIrxioiuwfrooYEKIIHxCkCOkZIA9KUMv8osRDXArGXVaYS9NLTcWnik0Fhwv0+YfL9HlHKqkyTzyE42S4ALoHyiBVUFSQJChKLQ+LUstUgT4ydaBaqgpUyvwDfYX/CpnKXyaRKYRNLiOZQir8l0plPviy1WoxWqstZgtZTBb8r7aYTBa9tsqqLzNYtGU64b/RoivTWfRlOnNhbml1aW6pvjRX+KoB3+e0F0T/D4sA5U66H119AAAAAElFTkSuQmCC;" vertex="1" parent="1">
          <mxGeometry x="618.55" y="560" width="101" height="101" as="geometry" />
        </mxCell>
        <mxCell id="cUAh2cXA-izQVIxBllL9-2109" value="" style="shape=image;verticalLabelPosition=bottom;labelBackgroundColor=default;verticalAlign=top;aspect=fixed;imageAspect=0;image=data:image/jpeg,/9j/4AAQSkZJRgABAQEAeAB4AAD/2wBDAAgGBgcGBQgHBwcJCQgKDBQNDAsLDBkSEw8UHRofHh0aHBwgJC4nICIsIxwcKDcpLDAxNDQ0Hyc5PTgyPC4zNDL/2wBDAQkJCQwLDBgNDRgyIRwhMjIyMjIyMjIyMjIyMjIyMjIyMjIyMjIyMjIyMjIyMjIyMjIyMjIyMjIyMjIyMjIyMjL/wAARCADhAOEDASIAAhEBAxEB/8QAHwAAAQUBAQEBAQEAAAAAAAAAAAECAwQFBgcICQoL/8QAtRAAAgEDAwIEAwUFBAQAAAF9AQIDAAQRBRIhMUEGE1FhByJxFDKBkaEII0KxwRVS0fAkM2JyggkKFhcYGRolJicoKSo0NTY3ODk6Q0RFRkdISUpTVFVWV1hZWmNkZWZnaGlqc3R1dnd4eXqDhIWGh4iJipKTlJWWl5iZmqKjpKWmp6ipqrKztLW2t7i5usLDxMXGx8jJytLT1NXW19jZ2uHi4+Tl5ufo6erx8vP09fb3+Pn6/8QAHwEAAwEBAQEBAQEBAQAAAAAAAAECAwQFBgcICQoL/8QAtREAAgECBAQDBAcFBAQAAQJ3AAECAxEEBSExBhJBUQdhcRMiMoEIFEKRobHBCSMzUvAVYnLRChYkNOEl8RcYGRomJygpKjU2Nzg5OkNERUZHSElKU1RVVldYWVpjZGVmZ2hpanN0dXZ3eHl6goOEhYaHiImKkpOUlZaXmJmaoqOkpaanqKmqsrO0tba3uLm6wsPExcbHyMnK0tPU1dbX2Nna4uPk5ebn6Onq8vP09fb3+Pn6/9oADAMBAAIRAxEAPwD3+iiigAooooAKKKKACikJABJIAHUmuI8R/E/R9Fd7a0P267XgiM/u1Pu3f8M1rRoVK0uSmrsqMXJ2R3Fc9rHjbQNEyt1fo0oGfKh+dv04H414nr3jvXdfDrPdGG3yQIYCVXj1xz+ea5qRiVUk5J5JNfQYbh+T1ryt5L/M6oYVv4metaj8aUVmXTdJLAfdkuJMZ/4CP8a5S9+KPim7dvLvUtkP8EMSjH4kE/rXGUV7NLKsJS2gn66/mdEaFNdDal8YeIph+81u+I9POYfyqo2t6s5y2p3Z+s7VQorsjh6UPhgjTkii8NZ1QdNSvB9J2q1D4s8QwACLWb5cf9N2P9ax6KJUKU/iig5YnX2fxM8VWZAOoidR/DNGGz+ma6rT/jQ4KrqOlKecM8En64P/ANavJqK5KuV4SrvBfLT8jN0Kb6H0fpHxA8OayVSG/WGU8eXONh/Pp+tdMrBlDKQQehFfJQJByOK6PR/GmteHpgtpdsYgf9TIdyH8D/SvGxPDz3oS+T/zMJ4S3ws+k6K888OfFjS9TZLfU0+w3DcBusZP17V6DHIksayRurowyGU5BFeBXw1WhLlqxszklCUHaSHUUUVgSFFFFABRRRQAUUUUAFFFFABRRRQAVma3r+neHrFrvUJxGn8KjlnPoB3rM8X+NLHwpZ/OVlvpFJitwef95vQfzrwDWtd1DX79rvUJ2kkJ4HRUHovoPYV6+XZVPF+/LSH4v0N6VBz16HQeLPiJqfiRnt4mNpp/aFDy/puPf6fpXHr99fqKSlX76/UV9jh8PSw8OSkrI9CEIwVkPb7v/AjSuq7Pvfc46Uj/AHf+BGlf7sn1FalEVFFFUMKKKKACiiigAooooAdGPnWnk7t3y/MBTEOx1anAqu7a3zGkxDMV1HhXxxqnhiUJHJ51mTl7eQ8fh6H6Vzgk/wBpv8KaZW/has61GnXi4VFdMmUVNWZ9MeHvE+m+JLQTWcoEoGZIGPzp+Hp71tV8q6fql5pd7Hd2dw0MychlJz/9cV7v4J8fWviaFbW5KQako+ZM4Enuv+FfHZllE8N+8p6w/FepwVaDhqtjs6KKK8Y5wooooAKKKKACiiigArmfGni+28KaYX+WS+lBEEJ/9CPsP16Vqa9rdr4e0ibULtsJGMKueXY9AK+bNd1q71/VptQu3JkkPA7Kv90egHQCvXyrLvrc+afwL8fI3oUud67Fe/1C51O9lvLyZ5ZpWJZmOc56cdhVaiivtoxjGPLE9JKwUUUVQxSzP96gszUlFABRRRQAUUUUAFFFFABRRRQAUUUUAFFFFABUlvcTWs6TwSNHKjblZW5BqOik0mrMD6B8A+OIvEtkLS6dU1OJfmX/AJ6AfxD+tdrXylYX9zpl9Dd2srRzRMCrA4xj39K+jvCHie38UaKl0m1bhMLPED91v8DXxeb5b9Wl7Sn8L/Bnm16PI7rY36KKK8U5wooooAKQkAEk4A6mlrhvif4lOieHvslvJtvL3KLg8qn8R/p+J9K1oUZVqipw3ZUYuTsjzT4ieLD4j1sw28h/s+1JSIdnPdsfy/CuNop6r/E33f51+h4fDww9JUoLRHqwgoRshlFOba3zLx6im1uWFFFFABRRRQAUUUUAFFFKo3vQAoT/AGlX60Mu3+JefSl+83+elI/zP936fSkA2iiimAUUUUAFFFFABRRRQAV0ngvxHceG9djuQSbZyEnTsVP9R/MVzdSyBX/i28D6VlXpRrQdOaumTKKlGzPq23niureO4gcPFIodGHQg9DUleZ/CXxF9p0+TRLmUGW3+eDJ6p3H4Hn8a9Mr89xWHlh6sqUuh5M4OEnFhRRRXOSFfOXj3Wjr3iu5uN3+jQ/uof90cZ/PJ/GvbPG+rnRfCN9dKwErJ5Uf+83H8sn8K+bpdxkJPUgV9Lw/hrylXfTRfqdeFjq5BuVvvdvTv7Uxm3UbG/u0bG/u19TodtxKKUg03mmFxaKTmjmgLi0UnNHNAXFopOaOaAuLT0HyN8y7j/KmU+MfPu9KTC4mGR9q/e9qc0m1Nu7c3c/0oY7P949TUdG4XCik5o5phcWik5o5oC4tFJzRzQFxaKTmjmgLi0+X7/wCAplSON/zL83ApMLmh4c1iTQdftNQTOInywH8S9CD7Hp+NfT0E0dzbxzxMGjkUOrDuCMivk/a392vf/hfqzaj4QiglbdNZsYj/ALvUf59q+b4hw6cY1lutGcmKjtJHa0UUV8qcR5P8aNSKxabpqscNundQeuOB/WvI97f3mrsvijfG88c3ce7KWypEvt8oJ/UmuMr73KaXs8JBPqr/AH6noUVaCQu9v7zUb2/vNSUV6RrcUszfxU2looC4lFLRQFxKKWigLiUUtFAXEpQzUUUBcSilooC4lFLRQFxKKWigLiUUtFAXEopaKAuJSg0UUBcXe395q9G+D2ptB4iuNPZjsuYSwUn+JT1/LNecVu+Db86d4w0u43bV89Ub/dY4P8zXFmNJVcNOPk/+ARVXNBo+mKKKK/PTzT5k8XSGXxhrD9vtcn/oX/1qxa0dfbzPEepOe91If/HjWdX6Rho8lGK8j0I/CFFFFblBRRRQB1PgXwkni7VbiGeaWG2tog7vDjO4nCjkEdmP4VY8deCU8KS2bWcs89tPkF5iuVYc44A4xk/hXYeHh/wh3woutWb5Lu7QzLn+82FjH6g/iasy/wDFY/CdHT57qCPPXJ3x9efpXzU8fWWK9qn+7UuX/NmCqPmv0eh4yIGZ1WP52JAAA5JPAxXpWn/CeCKw+2eIdW+yLgEpGVUR+xdsjNcHo13Fp2t2F3NuMcN1G7+u1WBP8q9h8e+GrnxhpVlc6RdRzLFl1j3fJKCOCD0z/ia6sxxNSFSFNS5IyveVr/Iqc2pKN7I5a/8Ah94cOiX9/pHiCS7ktYXkKrNFKPlXODtAI/8Ar1geA/Ctr4r1G7trq5uIVgiEgaArkknGDkGsC8sb/R71obuCe1n2lTuyhZSMEZHUEHB+td98Gf8AkP6l/wBeqf8AoVFb22Hwc5qrzdU+wSbjBu+v/DFxvhz4NW9+xt4pkF3u2eQbqDfu9Nu3Ofaub8ZfD+78LxLeRz/a9OLbS+Nrxk9AR0I9x+VZXjFGn8cavDHG0shuW+RAWY8DsK9U1sS2nweMWpt/pP2JIz5hy28gAAk9T0rlVbEYaVKTqcyna6a7i5pRlFN3ueSeFtIh13xNY6XPI8UdwzhnjxuG1GbjII6qK6vxt8N18N6WNS025ubmKNsXCy7SyA9GG1Rxnr9c9qxfhz/yULR/9+T/ANFPXsM+u2z+MbnwzfKpiubVJIt3RidwZD+Cgj8a1zHF16GLj7PWKjdruru4p1JRnpsfOznajN6Amu98b+A7Dwvottf2t5dTPNMsZWYrgAqxyNqg5+UVz/jPw1J4Z1q4s/mNs4L27t/Ep7Z9R0r0v4u/8ifp3/X0n/ot63xOLcqtB0pe7Ju/nsac3vRS2d/yOZ8F/D/TvE2gvqV5fXcDLIyFYigUAeuVNX/+EE8B4/5HJR/2+2//AMTW58LVZvAVyirljLKAPUkV5xL4N8VeaduiXW3P90f41xKpUq4mpGVbkUXoZRk5N3lbU0NM8MeFbvV9UtrvxEsFrbuq20/2iFfOBAJOSMNznpXT2Pwu8LamjtYeILi6CEBjbzwuFPYHCnFeVTefBcPDMrJJGxRkIGVIOCD+Nes/BhmfTtY3f890/wDQTWuYwxFGk68Kr0t+iHVc4a3M6TwJ4GjZ428XFZFJUoby3BBHBBG3g5rzKZVS4lVW3KGIB4OQCcGr+uf8h6//AOvqX/0M1nV6WCo1YR5pzcr236GsU1u7hRRRXeUFTWTbL6Bx1Ein9ahpyHbIpHYg0pK8WhH1X9qT1FFch/ab+tFfn31SRw8h4lry7fEOpL6XMn/oVZ1bPi2PyvGGsJjGLuX+Z/xrGr7vDy5qUZeR1xfuhRRRWw7hWloGktrev2Wmr924kCv14QcsfbgGs2u0+HWs6F4f1S41DV7hopvL8uACF5OCck/KDjoK5cXUnToylTTcraW11Jm3yux6d4v0zQ9WsLfSdR1uPTo4iJRGs8cbMACoyG7dfxHtSeC9N0PQ4ZtO0zXEv/OJk8szxuy9jgL2rxrxfrK6/wCKLzUI2YwkhIMgj5AMDg9M8nHuai8L6t/YXiOy1D5hHG+Jcd0bg/4/hXhxyms8JZze1+W3XcydN8trljxfpP8AYfiO+s2/1IlLp/uEZH8/0qTQ/F2reG/lsLhmtwRmCT5kOfbt+FdN4y8UeH7/AMQ6JrNhPLcSWsq/aI/IZC0YYMMbgAT1H4ir1xqXwu1E/aLuyaFm5ZY4Jo+T6iPgn3rp+sSdCEa9GUrrXTqtNvxLbuldG9Zzaf8AE3wdMbm28ieNjHu6mKUAEMp9ORx9RXKfBj/kO6l/17J/6FVnVPiNouk6I2meErRo8qQsnlbEjz/Fg8s31/HPSsD4a+I9L8NapeTanM8MUsCpGRE0hJBz/CD2rkhhqywlZKLUZfDHr56E2fI0djrPxNsNG1y8sxoe+4t5CnnblG4+vTNee+KfGepeKZUW42w20ZykEedufUnuaoeJL6HUvEupX1qzPBNMXQkFSQQOx5FbvgfUvCmnref8JFZRTOxHlPNbeeAO4AwcHpzXdSwlLC0VWjTcppLzfnuUkoq6WpV+HP8AyULR/wDfk/8ART1rfFOd7X4gx3EDMksVrC6svUMGfBrJ0PV9J0v4iW+rKr22lxzyso2liisjKOBk9WHHbNO+IGuWHiDxR9t02VpYPsqR7jGyHcCxIwQD3FXKEqmPhUcXy8mv3vRjt71/L9Tv7tIPiZ8P/MjVV1a2U4HdZAOR9GH86Pi7/wAifp3y4P2pOPT929ec+C/E8nhfXkuG3NZy4juEHOVzwwHqOv511PxF8ZaH4k0O2ttMunlkjuRIwMLoAoRhnLADqRXnywdajjKcYJumndeV90TCLU0uiudH8K3aHwJcSjqs0hH1AzXF/wDC0vFW6VPOtflJx+4Hr9a1vAHjTQNC8Mvp+qXLxTNI5KCCRwQfcA04XHwkw37qfJ68Xf8AjQqcYYmrKtRlNN6NK/5kxSTd1fU82uXnu7ma6m/10ztI+MAZYknA+pr1f4Loy6drG7vLH/6Ca848Qy6L/bM39gRsNPKrszvznHP3/m611nw48W6L4cs9Rj1K5eFppUZAIXfIAwfug4rvzGM62BtTi9baW13XQqreSRxeuf8AIev/APr6l/8AQzWdVrUJln1S8uI23Ry3MsinBGQXJHB6cEVVr06KtTSNbhRRRWoXCnIMyKPUim1NZruvrdfWRR+tTJ2TYXPdv7Pf0NFdh9kT+6KK+B+ts4+Y8C+Jdn9j8d35xhZtsy++VH9Qa5GvV/jRp5E2m6kqnBVoXYe3Iz+Z/KvKK+uyur7TCQflb7tDeDvFBRRRXoFXCiiigLhRRRQFwooooC4UUUUBcKKKKAuFFFFAXCiiigLhRRRQFwooooC4UUUUBcKKKKAuFbXhKy/tDxZplvjIadC3+6Dk/wAqxa9C+EOnm58Uy3hU7LaEnJ/vHj/69cmPq+yw05eTJm7RPcqKKK/PjlOY+IGknV/B17Ei5lhAnT6ryf0zXzo6eWfyr6xZQylWAIIwQe9fNvjXRG0HxNd2uCImPmRH1U8j/D8K+l4fxGsqD9V+prTfQ56ilIp4Gz5m+92FfT3NCOinM2//AHv502i4BRRS0AJRRRQAUUUtACUUU5B8386AF2r8u5m5pHVV2+/NKPmlpWVn+alcCOilpKYBRRRQAUUtJQAUUUUAFPEf95ttMqZyu/5t3Qcik2FxmI/7zflXuvwp0caf4XN4wPmXr78/7I4H9a8Z0XS/7X1i1sIdxedwv0Gev5V9N2drHZWUNrCMRwoEUewFfO5/iOWEaK66/Jf8EzqPoT0UUV8sZBXAfFPw9/aWirqcEe64s/vADlkPX8utd/TZI0ljaORQyMCrKehBrbD1pUKsakd0NOx8oiT+983pTCd1dV438Jy+HNckSNWNnMS8DfXt9e35VzHkt/k19/RrwrU1Ug9Ga3QyinNGy/eptahcKKKKoLhRRRQFwooooC4U9duzb60ynxL95vSkwuIY/n2rQx/hX7v86Gb+Ff8A9dNpBcKKKKoLhRRRQFwooooC4UUUUBcKkl+9+AqOtvw1oM/ibWobSAkITmQnoq9/0rKrUjSi5z2QXPQvhF4cKRy67cJy2Y7fI7dz/n1r1aq9jZQ6dYw2duu2GFAij2FWK+BxeIeIrSqPr+Rk3cKKKK5hBRRRQBi+KPDtt4l0aSymwsn3oZMco3rXzjqmmXOkajLZXaFJomKkEY49vavqiuN8eeCovE1ibm3VU1KFfkb/AJ6D+6f6V6+VZh9Wn7Ofwv8ABjTsfP1FSXFvLaTvBPGySo21lYcg1HX2Sd1dF3CiiimFwooooC4UUUUBcKKKKAuFFFFAXCiiigLhRRRQFwooooC4UUU5EaRwiKWYnAA70BcfbwS3U8cEKF5JDhVWvoXwN4Ti8MaQvmKDfTgGd+49F/CsX4d+BF0eBdU1GMG+kAMaMP8AVD/GvQ6+RzfMVXfsqb91de//AACGwooorwxBRRRQAUUUUAFFFFAHG+NvAdt4lga5tgsOpIPlfoJPZv8AGvB9Q0+70y8ktbyFopkYhlYen8xX1VWF4l8J6b4ntPLu49syj93On3l/xHtXsZdmssP+7qax/ID5ppyje9dF4m8F6p4ZnPnxmW1JO2eMZUj+h9utc6h+da+tpVoVoc9N3TC49lXZ8vsaHRUT+LtQ3yo3+9Q/3E/GrAiopaKYXEopaKAuJRS0UBcSilooC4lO8tv7tIBUsgbf/s4obAj8pv7tL5Tf3aTLf3q2dA8M6r4iuhFZRMVBw8jDCqPr0qKlSNKPPN2SC5lQW01xOkMEbSSOcKqivavAnw7i0dI9R1RBJekApGRxF/8AXrc8LeCdP8NQrIFWe924adh0+g7V09fKZjm0q6dOlpHr5gFFFFeIAUUUUAFFFFABRRRQAUUUUAFFFFAEc0EVzC0M8aSRuMMjjII+led+I/hPZXjtc6PILWXr5DfcP0PUV6RRW9DE1aEuam7AfM2teHdV0KbZqFm8YLnDjlSPUEVmOflb5V4wBxX1RNBFcRNFNEkkbcFXUEH8DXIax8MvD+qB2ihazlb+KHp+Rr38PnsXZVo2fdCseAUV6TqPwe1SAsbC8guU/hD/ACMfr/8Arrl7/wAD+I9PZvN0udlH8Ua71/SvXpZhhavwzXz0Ec9RVh7C8jOHtZx9YzUZt5h1hkH1U11KUXsxXI6KkEEx6RSH/gJqRbG7f7trMfpGaHKK3YXK9Fbtl4N8QX+PI0u4wf4mQqPzxXUaf8INZnKm9uLe3Xqedzfp/U1zVMfhqXxTX3jPPIv9ctaWlaLqWtTNFYW8szfTp9e1ezaP8LNC01xLceZeSj/nocL+VdlbWlvZxCK2gjhjH8KKAK8jEZ9FaUo39dF/mOx5j4c+EccRSfW5t5HP2eI8fia9Ns7K10+2W3tII4YV6Ii4FT0V4GIxVXEO9R3GFFFFc4BRRRQAUUUUAFFFFABRRRQAUUUUAFFFFABRRRQAUUUUAFFFFAFe5+7WNcfeNFFdFEBsHX8a2bWiinWEWqKKK5hhRRRQAUUUUAFFFFABRRRQAUUUUAFFFFAH/9k=;" vertex="1" parent="1">
          <mxGeometry x="618.55" y="426" width="100" height="100" as="geometry" />
        </mxCell>
        <mxCell id="cUAh2cXA-izQVIxBllL9-2110" value="" style="shape=image;verticalLabelPosition=bottom;labelBackgroundColor=default;verticalAlign=top;aspect=fixed;imageAspect=0;image=data:image/png,iVBORw0KGgoAAAANSUhEUgAAATgAAACiCAMAAADiKyHJAAAA4VBMVEX///8AYYrkjgDjiwAAXIcAXogAWYXjiQD66tLlkwsAVoMAWob//vvT3uXihQDkjwDssGHww4HI2OG1ytadusvvwZL45MXrq0jssFX++e/q8POAq8D88+nllCDtuH3B0dtRg6EAZo7ttHBjk63nmQz23cHhgQD00J0tep3xxosAUYD33br0+Prf6/DuuGsYcJWMscRVjqpsnbWiwdDonijvv3n01a388d700Z3nmTLpozt5obdLf560z9pZkKsdbJGDssbyy5Pnmivvv4zxyJ7qqUP01KRYhaPqqVnnnj5Bh6VovbzhAAAPjElEQVR4nO2da0PiuhaGW0haaClg4aAUHK3OMAhFbiJ7BOTocWYr//8HnaSXJL3SMqhI+37Ze4ZG6TMrWZesphx3FBpcTOs1dfDZX+OryWitZUGQ4Ppyqn32d/lKMsYS5LEglPRFZnaxtRAQMwAseEAYK5/9hb6IDAlx6042awgsdPwim7BxNBV4uYX+a1xMZME0O0GffvaX+goayXzPsP5Xaw0Fc7ETFsbnfqmvIAYcikvqvDlhwTibrts0lXhhRf+ojUw3AWB3cz1p1WuZqwjToMfDS3ZmDpbACk4AkAWgdye1LEQJVBe6TA65iWs7sLOiOyDp15m3CJCKKOnuJa3O9yRBRrEdhDY7fpS5C58mAnIG7r/SFHXamlz/uxza0R0Uuhef8+0OWNoa8lI95DN1AiXb7CaZ0XmkoOhNDl/GVmPZNDsZhtBNr0YIjB7uOw3l0QnvMgfr1jVa5jZRF6jjnhneZdmYWwaOSVqRl6y6gukkMqNzSeGRQamRl2gjMziRu9GXpU11gYdD91/5nKjalbDRSdl0ZTWReYHxmspQ131O1Bhhw+SF6ywwodIgD7sMEJR3yRPfVas1dq+gm5GjqgOenYTGGPA9/3KmbbCPAMOsakKEEgh4yfzZ0CG4DrhugWcrXGcZGNEj4HXWkKZyIDiujkM6CDNyjmqSyz2g4K4XnGOtsIuAIHOutgY6cg/sX9T1EB+grjE5vvYR3+oLyBhDvscW5ozQJEGx9sOyUNjS1DNXI6SYNqdn5EwZEg8fY0Zoqo7JDbPNMFMbBCMuCtWM5yJLKulRzR0DR2tqZV/v+X2+jAZrCJaxr26ZNpdVhbEmKBONn0xdy4iclCVfnLn7IEfXM1kZXYA7nTIHgVAsIQyLegOk4hRC8NdQUqiawAujBJf3+MgNshRJh3CYYFfhGk/W2CHMMWsqJJp72hqbXDZZzVWOB6vt1zmq4ZhEytJ9jlvhXZsEkxVHMHCdTVYzOgMJQgwN73wliGGOVwZK38EwfkwyMsPgbJsalylRcBY/xNC6KJiTF+/4hb6MVIEP3m0IVg0/KbHOTA5PVh4ksCBcOU4UNh+t8DMjSYoeKxySDLdfd/R6BDxIVBQ3e+cSBH9HqsEQJrSfFnKsSVbFI5UCk65YimlyqQ+C64J7Rz+GLrF7SH0QvIHwMeGQFU4fUl/R5GPvrhIZQ5goaD5KreQdEqipjPen3+PrfB3VZW9PawzhBNfzSFjqtABwvP0qr0Y479ph3PHI2EB5h/QJB3+8lOZeEmO42+4L3p4GSb3xMUlD+dYulXBNSHnjlybxcKdFfgHS3YSj9Xa0GzPv6qW3IUKR3OCmsSk+glSn+ggc21CueB+ejhhpPl+YWpPDp0LQNc7ogti9JGYlOL0mh5wD41UfhQQ+doU7SRK0iR2XUDhC47ga3m2+jD0WB8Egrf0QxpDJHHBveYKUf2pusaa0uoRSLpIAmGW2BDZkmFusaTU5FMg61RFzkz7JnukUpw9Jy8fHorrszDZjYx0VFL8obppcgv7ro5IKnFqupiNqa7TOxd+HUbFjBUs1lQ8Ck1VtgGtsl1OJT1BnwukDD2F3lEIXsQH2qoZ9AwpouxDqsTFoa+sQNUlvpa6bBDdQm3N1JJg9IRcgiadUuvZZTDIcp6zIpA3t51Zxs6W0Mk+YS+ApjdqGB9aJQvJjuhxsS7D2XXDu2UMT7sJ/Tlq0BtNr2bQ7IE3StNZpeHVHfnGJw1nOOhAi6XaCNh3zMh4/TFNj9Qj37BtG1+neQkEG3CSOMJSWLqTt3Lku8gf6QifbLy059Gi+SE3xwcLCMD1OQtEhbx7y6BRKxvJuzaraAqKfxNdTY3SrnhVTOAHcYBh8est21fB8ldJzGpM6lCAQeFIL1nTY263DwZjgkyTTU9/U6svLCTM71bW8ax/XFGUTML1nHSq6tGulbYCyCZjep28Gw92P3MNGJzymKRhmNVjCnW99sEERzjg1LsIj4/EvTtyry7yQ3j6w0V/0I9XkND9/M01864ayqrcWWDgyTG/T5jRJ6jWoTYaSJAiyDIBZagJC6sqbRLW45Aa1sW4V5pw3Qwj6Ms0v/lL/G8dDGAtdAg4xWZYFOJxMlbS6VUtGnNu/sLNdIEjD6/oq5cgSyLg07a37OMqYJVMd90+A9MYfuwsfWZXuDv4dZZ0Gqac3cttZU6vZKWq2GgNFUQaJMmBzxJEvmxa50BcsGavF5VDn9XV3EXdCayNrxHKy/5folkqldqHQiFIhaFCzHST0gf9XoJ9vax79XazXGAAYtLs6mEDJeq0rhECKV3KqAwHaI4TeXhsFmvffHiplLDFc5VPPoP5L9S5XDlbl7val74E369gfdl4DsLJS17L15lFfunHByzwjOc55/WOBHQL257IL1aIo5nPblD9jxpR+nBXzYj58VB59Wqz+YAmdiM5n1S3gOG1sGZX3XTfaEPIuxXhHREtyD9mXy27OcmLo7YeBa5zFIJ3LiWKVmd8JwOHpZb3Vy727WvdC4IVtZ8SsfEP289BdoRgPmwvcSSxsFronZlQCcNzg0TwZHbpOmdtALwVejs7/jSXwjtjLwUSFXFwEFFxpFpe1ie7G+V3JwKGV7tLc3WbXpLWP27aO2QsfN0Tu7zcdm6cMN7QsRYk4h59ubvkgsZ/37XFJwaG73uBSCdPZSW9ej2k/Xb+N8sLfg7svU8vIP1S//SdK99aYeYWlIhZ/V6+8er0TKdx8sWkNTA6O45QJWut6hBy9+RbxrpGHTyhkhQOLfYL7TUwjf9JuxrudF8bg8m99NMyv5nxG8eZt4ruAQ2vdGNLXjtAFXh0Sk4s6RGFBZqqugP2Ba54Te7uKPYiZ3eWbcAKNivdn7wbO6iOxb5WCU2qEgxye1w7ogAkn7A9cgdxcpRF3TIkxpUjafQdw/s7itCs48y3L1r0yFmcQk4sIL1oElqTsE1yDMDjfkgVRleiyGE2bOp7iX4JD6av9Si8GnNmkbYMIcw/a2nEN+On1wwF33o688psDqvLX4DhlaLYDsOA03aES2t1eJx4EP0x7QOCakVfuExxnjHG8xoKjC39oREISNLMfPgCc4fuf4F9OZP/FFwLHGQvNA27QIyRC3gRGYhHzCQw/OG3YdRRVZmlB3RLvdEl+JXCmXOC4MTG5wIOtzIfWbYPDXALA9aCjSHDOSHAk4C5IViAFRSQq+dhqPgkARwtOkeCcpTIAXC5+OHI44MwjDy2TCmoFG9OI1/w0ABxNZJOBo3Gc+C3udz8kcDWyiMl+R8kEv1bpaY/gSiRzyIn9iJGsDgmcQdxmwIPsI0rFquntERzHFIgqM/+eQpAOCZx1DoI5V3VvRKLRa+3GxH2Caz7TxFMsi8XvrO7uTm9ffnhxHhQ4Qydz1buTUCecZLuIvE9waJWL2jbIi2K++HbjShAOChy3cGh4IxKDFOLApe049gqOK3wv+4h5+Im5K8bsDgvcgORdnt72Gk3vnVBlv+C40s/K1h0EsTwjjA4LnPlYsWVy7oiEGBw1xT2D47j506/cNnbiqzNfDwycQvIumd0PUyklko4FgKObtLuAQzAaL2ff/dvR7NaB+Gzf7IGBo2Guqyx3TQsABMk7gDNVKvTv//zz09E/TydXzww6Z7fq0MCtSGLFRCQDmjTQfdf3Aheg9o87Sq5oTdZDA0dXMyYimdBCHKW5x1x1u5p0O6dsudaDAzelEYnjHga08sts9H8oOG5OcouylZQdHDiNbD6QiGREDI7tEwkAR9sj9g6uWTl0cHTzASxtkyMrnHUSiq0MnAecQTcKrV7EKd2FZpsTDxAcbRksFGh+tidwzfn9n/7cGhEIjluQGzPTeYOW6ZZsUHyI4L53SEvhM6kl7wdc/63c6XTEV7PSGgxO0cnUxEguCA53GhZUOv/sqVq6JX+bJ7ut+wBXuu28/SzMC0/FDo4jg8ExQXCL/RN0vwvxcMAV6UYF0/qVz9k10W/5MHDbWlmpZuWZ1VTcrpZ/hoJTHRvDEYlCLvKUmj4YXM4LjobEebZqfMKQ+2Ne+OrZyX8i4B7igit0qtwtmqmdYoO7Q/9OIeDofhbKTCdhmXvUGhf5XOdO4GgznBMAf6fgXO3Ufzzpma935AexVTFesZnjrnJt7vYXWkQffjUb4lMYOLqDCi8HJIbzltMDwNFmgKiO2F3A9YsUk+0vz1hArOnc06Io+mBOisv5qvV5m8z6/Fu83cj2HZrUGBw3O2+Xfj2EguN4krEynYSeDZyAnXxqnXARvpmfHFzjhukPPLUhsf1xtrNzLmf2fqpFSvHF+rhUpd14xZ9xjK6d+x/H3RZfXr6VEfzTYjg4pkuED7vLAHADQC/Xx6PaRZBUUmqh+6q/T8P1+66SZxiVnQWtSY0Ql9fPT2c3tp6qzPpHryE+pMAUm9FPvvt9ehYu7LHbeQwu962Y+4P+1c4q4eBodkrk68oParqhwPED7FKw/P8WfTGwgTegkTcn0p5zbw8wU8DLBUg8ISPdXddRv1rMmeCKV+ZU7eewfb7dhYPzP83gfy1JYLfSVArorg4TBRe75bx8RtOr0mzbNoWbOF0HS1exR5oxYqlatJxD9bnEFfInEeB8j45A32MgwW1ealcI6K/eE7h8zt2zehLxSI135C07svRUidnqbwXX/c4Jd3uOTK98wr0iswsH530QJOBEp5D+OK2uyzGtLiE4UXzwdpb0z+M9IpL/7R1ZOIvz+BPJSh7E+wJeXBv3N50ZDYBhwCtw6+zt9wJ6DYllSd5+idViKEkygABACAH0agdwaLEpF6+CGnLuz0If5WLr7QGNFYWbB7Es5qON1unxb552rhrNUrtx1sF5mk4U8DyWuuQF884FuRvUMOd0uekBL3oxBqvW5PHfyyD9u/aDqxSjdP789jprhNSOSu1/qm/Fiuuhkjz6ec+/3t6Y/uqnwKH3s+rr2/N51O+2f23zpCKe/zoXz80fpBAFRl1qfbLZbB5HF4EJlOqMTXqm+sQXjjQLkZrPowtuaHzjh0sNNKjdLN3ThYzxqd7B83nULydL4/x+djbrR7cbv6/84N5NDZpElHeuWh6MPhAc16DdPOLZFrs9eH0kOG5OH+cUH744uUsCbtvDsftQ85SSe45bDTlI1Ug4ssubUJOrXaUVui9MTmPS2Q86R6ZUJRsRnXLcTtkPlbGqbVFrw9Ow2rXZ+J4qzYm2nZjxOdJ0SYiU5E7GQk5CSZ8Mb2UgSnD3Y3mPTknAgfQegu1XfHBA2mQHjFHFAoerBvA6O12MlaFH+wYsfr283v9RVl9cxrS+RbUL9RgOT/s/rkGTaf6+gOIAAAAASUVORK5CYII=;" vertex="1" parent="1">
          <mxGeometry x="785.93" y="419" width="178.14" height="92.5" as="geometry" />
        </mxCell>
        <mxCell id="2083" value="" style="arrow;html=1;endArrow=block;endFill=1;strokeColor=none;strokeWidth=4;fontFamily=Helvetica;fontSize=36;fontColor=#FFB366;fillColor=#FFB366;" parent="1" edge="1">
          <mxGeometry width="100" height="100" relative="1" as="geometry">
            <mxPoint x="614" y="624" as="sourcePoint" />
            <mxPoint x="534" y="624" as="targetPoint" />
          </mxGeometry>
        </mxCell>
      </root>
    </mxGraphModel>
  </diagram>
</mxfile>
